{
.appVersion = "3151";
.formatVersion = 3;
axes = (
{
name = Weight;
tag = wght;
},
{
name = Width;
tag = wdth;
},
{
name = Slant;
tag = slnt;
}
);
classes = (
{
code = "zero one two three four five six seven eight nine ";
name = Num;
},
{
code = "zero.canadian one.canadian two.canadian three.canadian four.canadian five.canadian six.canadian seven.canadian eight.canadian nine.canadian 
";
name = Num_can;
},
{

glyphs = (
{
glyphname = idotless;
lastChange = "2023-01-13 15:55:03 +0000";
layers = (
{
layerId = "DE93BBBF-E17B-48DE-A6AB-0C4E62D4ADD4";
shapes = (
{
closed = 1;
nodes = (
(86,0,l),
(196,516,l),
(134,516,l),
(25,0,l)
);
}
);
width = 212;
}
);
note = dotlessi;
unicode = 305;
},
{
glyphname = "acuteFinal-canadian";
lastChange = "2023-01-13 15:55:03 +0000";
layers = (
{
layerId = "DE93BBBF-E17B-48DE-A6AB-0C4E62D4ADD4";
shapes = (
{
closed = 1;
nodes = (
(124,345,l),
(347,690,l),
(293,690,l),
(70,345,l)
);
}
);
width = 297;
}
);
metricRight = "=|";
note = uni141F;
unicode = 5151;
},
{
glyphname = "graveFinal-canadian";
kernLeft = mwestleft;
kernRight = mwestright;
lastChange = "2023-01-13 15:55:06 +0000";
layers = (
{
layerId = "DE93BBBF-E17B-48DE-A6AB-0C4E62D4ADD4";
shapes = (
{
closed = 1;
nodes = (
(274,345,l),
(192,690,l),
(144,690,l),
(225,345,l)
);
}
);
width = 298;
}
);
metricLeft = "=|acuteFinal-canadian";
metricRight = "=|acuteFinal-canadian";
note = uni1420;
unicode = 5152;
},
{
glyphname = "ringBottomhalfFinal-canadian";
kernLeft = mwestleft;
kernRight = mwestright;
lastChange = "2023-01-13 15:55:06 +0000";
layers = (
{
layerId = "DE93BBBF-E17B-48DE-A6AB-0C4E62D4ADD4";
shapes = (
{
closed = 1;
nodes = (
(327,339,o),
(375,387,o),
(393,470,cs),
(440,690,l),
(393,690,l),
(350,481,ls),
(334,411,o),
(302,382,o),
(242,382,cs),
(176,382,o),
(153,419,o),
(167,488,cs),
(211,690,l),
(164,690,l),
(122,490,ls),
(102,395,o),
(146,339,o),
(240,339,cs)
);
}
);
width = 410;
}
);
metricLeft = "ai-canadian";
metricRight = "==|ai-canadian";
note = uni1421;
unicode = 5153;
},
{
glyphname = "ringTophalfFinal-canadian";
lastChange = "2023-01-13 15:55:06 +0000";
layers = (
{
layerId = "DE93BBBF-E17B-48DE-A6AB-0C4E62D4ADD4";
shapes = (
{
closed = 1;
nodes = (
(137,345,l),
(181,554,ls),
(196,624,o),
(228,653,o),
(289,653,cs),
(355,653,o),
(378,615,o),
(363,547,cs),
(320,345,l),
(366,345,l),
(409,545,ls),
(428,639,o),
(384,696,o),
(291,696,cs),
(204,696,o),
(156,647,o),
(137,564,cs),
(91,345,l)
);
}
);
width = 410;
}
);
metricLeft = "ai-canadian";
metricRight = "==|ai-canadian";
note = uni1422;
unicode = 5154;
},
{
glyphname = "ringRighthalfFinal-canadian";
kernLeft = mwestleft;
kernRight = mwestright;
lastChange = "2023-01-13 15:55:06 +0000";
layers = (
{
layerId = "DE93BBBF-E17B-48DE-A6AB-0C4E62D4ADD4";
shapes = (
{
closed = 1;
nodes = (
(157,345,ls),
(297,345,o),
(359,449,o),
(359,557,cs),
(359,639,o),
(309,690,o),
(222,690,cs),
(161,690,l),
(152,647,l),
(217,647,ls),
(281,647,o),
(313,613,o),
(313,555,cs),
(313,488,o),
(282,387,o),
(162,387,cs),
(98,387,l),
(88,345,l)
);
}
);
width = 361;
}
);
metricLeft = "=|t-canadian";
metricWidth = "t-canadian";
note = uni1423;
unicode = 5155;
},
{
glyphname = "ringFinal-canadian";
kernLeft = mwestleft;
kernRight = mwestright;
lastChange = "2023-01-13 15:55:03 +0000";
layers = (
{
layerId = "DE93BBBF-E17B-48DE-A6AB-0C4E62D4ADD4";
shapes = (
{
closed = 1;
nodes = (
(397,359,o),
(469,431,o),
(469,527,cs),
(469,624,o),
(395,696,o),
(298,696,cs),
(201,696,o),
(128,624,o),
(128,527,cs),
(128,431,o),
(200,359,o),
(298,359,cs)
);
},
{
closed = 1;
nodes = (
(223,399,o),
(172,453,o),
(172,527,cs),
(172,602,o),
(224,655,o),
(298,655,cs),
(372,655,o),
(426,602,o),
(426,527,cs),
(426,453,o),
(373,399,o),
(298,399,cs)
);
}
);
width = 472;
}
);
note = uni1424;
unicode = 5156;
},
{
glyphname = "doubleacuteFinal-canadian";
lastChange = "2023-01-13 15:55:03 +0000";
layers = (
{
layerId = "DE93BBBF-E17B-48DE-A6AB-0C4E62D4ADD4";
shapes = (
{
closed = 1;
nodes = (
(123,345,l),
(347,690,l),
(293,690,l),
(70,345,l)
);
},
{
closed = 1;
nodes = (
(254,345,l),
(477,690,l),
(424,690,l),
(201,345,l)
);
}
);
width = 427;
}
);
metricLeft = "acuteFinal-canadian";
metricRight = "=|";
note = uni1425;
unicode = 5157;
},
{
glyphname = "doubleshortverticalstrokesFinal-canadian";
kernLeft = mwestleft;
kernRight = mwestright;
lastChange = "2023-01-13 15:55:07 +0000";
layers = (
{
layerId = "DE93BBBF-E17B-48DE-A6AB-0C4E62D4ADD4";
shapes = (
{
closed = 1;
nodes = (
(137,345,l),
(211,690,l),
(164,690,l),
(91,345,l)
);
},
{
closed = 1;
nodes = (
(255,345,l),
(328,690,l),
(282,690,l),
(209,345,l)
);
}
);
width = 299;
}
);
metricLeft = "pWestCree-canadian";
metricRight = "pWestCree-canadian";
note = uni1426;
unicode = 5158;
},
{
glyphname = "middledotFinal-canadian";
lastChange = "2023-01-13 15:55:03 +0000";
layers = (
{
layerId = "DE93BBBF-E17B-48DE-A6AB-0C4E62D4ADD4";
shapes = (
{
closed = 1;
nodes = (
(156,311,o),
(175,330,o),
(175,355,cs),
(175,379,o),
(156,398,o),
(131,398,cs),
(107,398,o),
(89,379,o),
(89,355,cs),
(89,330,o),
(107,311,o),
(131,311,cs)
);
}
);
width = 213;
}
);
note = uni1427;
unicode = 5159;
},
{
glyphname = "shorthorizontalstrokeFinal-canadian";
kernLeft = mwestleft;
kernRight = mwestright;
lastChange = "2023-01-13 15:55:06 +0000";
layers = (
{
layerId = "DE93BBBF-E17B-48DE-A6AB-0C4E62D4ADD4";
shapes = (
{
closed = 1;
nodes = (
(431,498,l),
(440,544,l),
(131,544,l),
(122,498,l)
);
}
);
width = 441;
}
);
metricRight = "=|";
note = uni1428;
unicode = 5160;
},
{
glyphname = "plusFinal-canadian";
kernLeft = mwestleft;
kernRight = mwestright;
lastChange = "2023-01-13 15:55:06 +0000";
layers = (
{
layerId = "DE93BBBF-E17B-48DE-A6AB-0C4E62D4ADD4";
shapes = (
{
closed = 1;
nodes = (
(272,366,l),
(302,507,l),
(435,507,l),
(443,552,l),
(312,552,l),
(341,690,l),
(297,690,l),
(267,552,l),
(133,552,l),
(124,507,l),
(257,507,l),
(227,366,l)
);
}
);
width = 443;
}
);
metricLeft = "shorthorizontalstrokeFinal-canadian";
metricRight = "shorthorizontalstrokeFinal-canadian";
note = uni1429;
unicode = 5161;
},
{
glyphname = "downtackFinal-canadian";
kernLeft = mwestleft;
kernRight = mwestright;
lastChange = "2023-01-13 15:55:06 +0000";
layers = (
{
layerId = "DE93BBBF-E17B-48DE-A6AB-0C4E62D4ADD4";
shapes = (
{
closed = 1;
nodes = (
(269,345,l),
(332,646,l),
(464,646,l),
(473,690,l),
(163,690,l),
(154,646,l),
(287,646,l),
(222,345,l)
);
}
);
width = 443;
}
);
metricLeft = "shorthorizontalstrokeFinal-canadian";
metricRight = "shorthorizontalstrokeFinal-canadian";
note = uni142A;
unicode = 5162;
},
{
glyphname = "thFinalWoodScree-canadian";
lastChange = "2023-01-13 15:55:07 +0000";
layers = (
{
layerId = "DE93BBBF-E17B-48DE-A6AB-0C4E62D4ADD4";
shapes = (
{
closed = 1;
nodes = (
(269,345,l),
(287,430,l),
(417,430,l),
(426,469,l),
(296,469,l),
(316,565,l),
(446,565,l),
(455,605,l),
(325,605,l),
(343,690,l),
(297,690,l),
(278,605,l),
(146,605,l),
(137,565,l),
(269,565,l),
(249,469,l),
(117,469,l),
(108,430,l),
(241,430,l),
(223,345,l)
);
}
);
width = 444;
}
);
metricLeft = "hyphen-canadian";
metricRight = "hyphen-canadian";
note = uni167E;
unicode = 5758;
},
{
glyphname = "ringSmallFinal-canadian";
kernLeft = mwestleft;
kernRight = mwestright;
lastChange = "2023-01-13 15:55:03 +0000";
layers = (
{
layerId = "DE93BBBF-E17B-48DE-A6AB-0C4E62D4ADD4";
shapes = (
{
closed = 1;
nodes = (
(296,511,o),
(340,551,o),
(340,607,cs),
(340,663,o),
(296,702,o),
(242,702,cs),
(189,702,o),
(147,663,o),
(147,607,cs),
(147,551,o),
(189,511,o),
(242,511,cs)
);
},
{
closed = 1;
nodes = (
(205,545,o),
(182,571,o),
(182,607,cs),
(182,642,o),
(206,669,o),
(243,669,cs),
(280,669,o),
(304,642,o),
(304,607,cs),
(304,571,o),
(280,545,o),
(243,545,cs)
);
}
);
width = 328;
}
);
note = g725;
unicode = 6366;
},
{
glyphname = "raiseddotFinal-canadian";
kernLeft = mwestleft;
kernRight = mwestright;
lastChange = "2023-01-13 15:55:03 +0000";
layers = (
{
layerId = "DE93BBBF-E17B-48DE-A6AB-0C4E62D4ADD4";
shapes = (
{
closed = 1;
nodes = (
(222,615,o),
(241,635,o),
(241,659,cs),
(241,683,o),
(222,702,o),
(198,702,cs),
(173,702,o),
(155,683,o),
(155,659,cs),
(155,635,o),
(173,615,o),
(198,615,cs)
);
}
);
width = 215;
}
);
note = g725;
unicode = 6367;
},
{
glyphname = "plusFinal-canadian.base";
lastChange = "2023-01-13 15:55:06 +0000";
layers = (
{
layerId = "DE93BBBF-E17B-48DE-A6AB-0C4E62D4ADD4";
shapes = (
{
closed = 1;
nodes = (
(194,0,l),
(224,141,l),
(356,141,l),
(366,185,l),
(234,185,l),
(264,324,l),
(218,324,l),
(189,185,l),
(56,185,l),
(46,141,l),
(180,141,l),
(150,0,l)
);
}
);
width = 443;
}
);
metricLeft = "shorthorizontalstrokeFinal-canadian";
metricRight = "shorthorizontalstrokeFinal-canadian";
note = uni1429;
},
{
glyphname = "e-canadian";
kernLeft = ecanleft;
kernRight = ecanright;
lastChange = "2023-01-13 15:55:06 +0000";
layers = (
{
anchors = (
{
name = middle_center_can;
pos = (387,454);
},
{
name = top_center_can;
pos = (439,690);
},
{
name = top_left_can;
pos = (217,690);
},
{
name = top_right_can;
pos = (661,690);
}
);
layerId = "DE93BBBF-E17B-48DE-A6AB-0C4E62D4ADD4";
shapes = (
{
closed = 1;
nodes = (
(309,0,l),
(748,670,l),
(752,690,l),
(132,690,l),
(128,670,l),
(281,0,l)
);
},
{
closed = 1;
nodes = (
(318,69,l),
(191,654,l),
(179,638,l),
(682,638,l),
(668,654,l),
(295,69,l)
);
}
);
width = 691;
}
);
metricRight = "=|";
note = uni1401;
unicode = 5121;
},
{
glyphname = "i-canadian";
kernLeft = icanleft;
kernRight = icanright;
lastChange = "2023-01-13 15:55:06 +0000";
layers = (
{
anchors = (
{
name = middle_center_can;
pos = (385,403);
},
{
name = top_center_can;
pos = (442,690);
},
{
name = top_left_can;
pos = (219,690);
},
{
name = top_right_can;
pos = (663,690);
}
);
layerId = "DE93BBBF-E17B-48DE-A6AB-0C4E62D4ADD4";
shapes = (
{
closed = 1;
nodes = (
(428,690,l),
(-11,19,l),
(-14,0,l),
(605,0,l),
(610,19,l),
(456,690,l)
);
},
{
closed = 1;
nodes = (
(419,621,l),
(546,36,l),
(558,52,l),
(55,52,l),
(69,36,l),
(442,621,l)
);
}
);
width = 691;
}
);
metricLeft = "e-canadian";
metricWidth = "e-canadian";
note = uni1403;
unicode = 5123;
},
{
glyphname = "o-canadian";
kernLeft = ocanleft;
kernRight = ocanright;
lastChange = "2023-01-13 15:55:03 +0000";
layers = (
{
anchors = (
{
name = middle_center_can;
pos = (294,350);
},
{
name = top_center_can;
pos = (451,690);
},
{
name = top_double;
pos = (536,690);
},
{
name = top_left_can;
pos = (205,690);
},
{
name = top_right_can;
pos = (690,690);
}
);
layerId = "DE93BBBF-E17B-48DE-A6AB-0C4E62D4ADD4";
shapes = (
{
closed = 1;
nodes = (
(49,0,l),
(649,331,l),
(655,358,l),
(196,690,l),
(177,690,l),
(30,0,l)
);
},
{
closed = 1;
nodes = (
(217,626,l),
(197,626,l),
(589,342,l),
(592,358,l),
(80,74,l),
(99,68,l)
);
}
);
width = 665;
}
);
metricLeft = "nunavuth-canadian";
note = uni1405;
unicode = 5125;
},
{
glyphname = "eeCarrier-canadian";
lastChange = "2023-01-13 15:55:03 +0000";
layers = (
{
layerId = "DE93BBBF-E17B-48DE-A6AB-0C4E62D4ADD4";
shapes = (
{
closed = 1;
nodes = (
(49,0,l),
(648,330,l),
(655,358,l),
(196,690,l),
(177,690,l),
(30,0,l)
);
},
{
closed = 1;
nodes = (
(216,626,l),
(200,624,l),
(590,342,l),
(594,359,l),
(83,76,l),
(97,68,l)
);
},
{
closed = 1;
nodes = (
(287,255,l),
(327,441,l),
(297,441,l),
(257,255,l)
);
}
);
width = 665;
}
);
metricLeft = "nunavuth-canadian";
metricRight = "o-canadian";
note = uni1408;
unicode = 5128;
},
{
glyphname = "a-canadian";
kernLeft = acanleft;
kernRight = acanright;
lastChange = "2023-01-13 15:55:07 +0000";
layers = (
{
anchors = (
{
name = middle_center_can;
pos = (409,343);
},
{
name = top_center_can;
pos = (404,690);
},
{
name = top_left_can;
pos = (161,690);
},
{
name = top_right_can;
pos = (654,690);
}
);
layerId = "DE93BBBF-E17B-48DE-A6AB-0C4E62D4ADD4";
shapes = (
{
closed = 1;
nodes = (
(662,690,l),
(63,358,l),
(57,331,l),
(515,0,l),
(534,0,l),
(681,690,l)
);
},
{
closed = 1;
nodes = (
(495,64,l),
(515,64,l),
(123,348,l),
(119,331,l),
(632,615,l),
(612,622,l)
);
}
);
width = 664;
}
);
metricRight = "nunavuth-canadian";
note = uni140A;
unicode = 5130;
},
{
glyphname = "ai-canadian";
lastChange = "2023-01-13 15:55:03 +0000";
layers = (
{
layerId = "DE93BBBF-E17B-48DE-A6AB-0C4E62D4ADD4";
shapes = (
{
closed = 1;
nodes = (
(293,339,o),
(335,371,o),
(360,436,c),
(346,439,l),
(347,374,o),
(383,339,o),
(452,339,cs),
(536,339,o),
(582,385,o),
(604,487,cs),
(647,690,l),
(603,690,l),
(560,487,ls),
(545,412,o),
(513,380,o),
(453,380,cs),
(391,380,o),
(369,414,o),
(384,486,cs),
(428,690,l),
(384,690,l),
(341,489,ls),
(326,413,o),
(292,380,o),
(234,380,cs),
(175,380,o),
(150,416,o),
(164,484,cs),
(209,690,l),
(164,690,l),
(121,486,ls),
(102,396,o),
(144,339,o),
(230,339,cs)
);
}
);
width = 618;
}
);
metricRight = "=|";
note = uni141C;
unicode = 5148;
},
{
glyphname = "ycreew-canadian";
lastChange = "2023-01-13 15:55:06 +0000";
layers = (
{
layerId = "DE93BBBF-E17B-48DE-A6AB-0C4E62D4ADD4";
shapes = (
{
closed = 1;
nodes = (
(419,510,o),
(455,549,o),
(455,603,cs),
(455,658,o),
(420,696,o),
(372,696,cs),
(325,696,o),
(288,658,o),
(288,603,cs),
(288,549,o),
(324,510,o),
(372,510,cs)
);
},
{
closed = 1;
nodes = (
(242,339,o),
(278,378,o),
(278,432,cs),
(278,487,o),
(242,525,o),
(194,525,cs),
(147,525,o),
(110,487,o),
(110,432,cs),
(110,378,o),
(146,339,o),
(194,339,cs)
);
},
{
closed = 1;
nodes = (
(162,367,o),
(140,393,o),
(140,432,cs),
(140,470,o),
(162,497,o),
(194,497,cs),
(226,497,o),
(248,470,o),
(248,432,cs),
(248,393,o),
(226,367,o),
(194,367,cs)
);
},
{
closed = 1;
nodes = (
(339,538,o),
(318,564,o),
(318,603,cs),
(318,641,o),
(340,668,o),
(372,668,cs),
(404,668,o),
(425,641,o),
(425,603,cs),
(425,564,o),
(404,538,o),
(372,538,cs)
);
}
);
width = 446;
}
);
metricRight = "=|";
note = uni141D;
unicode = 5149;
},
{
glyphname = "glottalstop-canadian";
lastChange = "2023-01-13 15:55:06 +0000";
layers = (
{
layerId = "DE93BBBF-E17B-48DE-A6AB-0C4E62D4ADD4";
shapes = (
{
closed = 1;
nodes = (
(394,345,l),
(397,356,l),
(321,690,l),
(305,690,l),
(87,356,l),
(84,345,l)
);
},
{
closed = 1;
nodes = (
(320,648,l),
(294,649,l),
(356,363,l),
(369,381,l),
(126,381,l),
(135,363,l)
);
}
);
width = 432;
}
);
metricRight = "=|";
note = uni141E;
unicode = 5150;
},
{
glyphname = "pe-canadian";
kernLeft = ecanleft;
kernRight = ecanright;
lastChange = "2023-01-13 15:55:06 +0000";
layers = (
{
anchors = (
{
name = middle_center_can;
pos = (387,454);
},
{
name = top_center_can;
pos = (441,690);
},
{
name = top_left_can;
pos = (217,690);
},
{
name = top_right_can;
pos = (661,690);
}
);
layerId = "DE93BBBF-E17B-48DE-A6AB-0C4E62D4ADD4";
shapes = (
{
closed = 1;
nodes = (
(309,0,l),
(748,670,l),
(752,690,l),
(688,690,l),
(289,71,l),
(323,71,l),
(186,690,l),
(132,690,l),
(128,670,l),
(281,0,l)
);
}
);
width = 691;
}
);
metricLeft = "e-canadian";
metricRight = "e-canadian";
note = uni142F;
unicode = 5167;
},
{
glyphname = "pi-canadian";
kernLeft = icanleft;
kernRight = icanright;
lastChange = "2023-01-13 15:55:06 +0000";
layers = (
{
anchors = (
{
name = middle_center_can;
pos = (385,403);
},
{
name = top_center_can;
pos = (442,690);
},
{
name = top_left_can;
pos = (217,690);
},
{
name = top_right_can;
pos = (661,690);
}
);
layerId = "DE93BBBF-E17B-48DE-A6AB-0C4E62D4ADD4";
shapes = (
{
closed = 1;
nodes = (
(428,690,l),
(-11,19,l),
(-14,0,l),
(49,0,l),
(448,619,l),
(414,619,l),
(551,0,l),
(605,0,l),
(610,19,l),
(456,690,l)
);
}
);
width = 691;
}
);
metricLeft = "e-canadian";
metricRight = "e-canadian";
note = uni1431;
unicode = 5169;
},
{
glyphname = "po-canadian";
kernLeft = ocanleft;
kernRight = ocanright;
lastChange = "2023-01-13 15:55:03 +0000";
layers = (
{
anchors = (
{
name = middle_center_can;
pos = (245,352);
},
{
name = top_center_can;
pos = (424,690);
},
{
name = top_double;
pos = (515,690);
},
{
name = top_left_can;
pos = (182,690);
},
{
name = top_right_can;
pos = (660,690);
}
);
layerId = "DE93BBBF-E17B-48DE-A6AB-0C4E62D4ADD4";
name = "Thin Slanted";
shapes = (
{
closed = 1;
nodes = (
(26,0,l),
(619,331,l),
(625,358,l),
(173,690,l),
(154,690,l),
(143,639,l),
(555,337,l),
(562,365,l),
(20,63,l),
(8,0,l)
);
}
);
width = 635;
}
);
metricRight = "o-canadian";
note = uni1433;
unicode = 5171;
},
{
glyphname = "pa-canadian";
kernLeft = acanleft;
kernRight = acanright;
lastChange = "2023-01-13 15:55:03 +0000";
layers = (
{
anchors = (
{
name = middle_center_can;
pos = (304,345);
},
{
name = top_center_can;
pos = (405,690);
},
{
name = top_left_can;
pos = (162,690);
},
{
name = top_right_can;
pos = (646,690);
}
);
layerId = "DE93BBBF-E17B-48DE-A6AB-0C4E62D4ADD4";
shapes = (
{
closed = 1;
nodes = (
(655,690,l),
(63,358,l),
(57,331,l),
(508,0,l),
(527,0,l),
(538,50,l),
(126,353,l),
(120,325,l),
(661,627,l),
(674,690,l)
);
}
);
width = 635;
}
);
metricRight = "=|po-canadian";
note = uni1438;
unicode = 5176;
},
{
glyphname = "p-canadian";
kernLeft = mwestleft;
kernRight = mwestright;
lastChange = "2023-01-13 15:55:03 +0000";
layers = (
{
layerId = "DE93BBBF-E17B-48DE-A6AB-0C4E62D4ADD4";
shapes = (
{
closed = 1;
nodes = (
(360,345,l),
(368,382,l),
(169,529,l),
(162,497,l),
(424,644,l),
(434,690,l),
(421,690,l),
(129,526,l),
(126,509,l),
(348,345,l)
);
}
);
width = 405;
}
);
note = uni1449;
unicode = 5193;
},
{
glyphname = "pWestCree-canadian";
kernLeft = mwestleft;
kernRight = mwestright;
lastChange = "2023-01-13 15:55:06 +0000";
layers = (
{
layerId = "DE93BBBF-E17B-48DE-A6AB-0C4E62D4ADD4";
shapes = (
{
closed = 1;
nodes = (
(137,345,l),
(211,690,l),
(164,690,l),
(91,345,l)
);
}
);
width = 181;
}
);
metricRight = "=|";
note = uni144A;
unicode = 5194;
},
{
color = 6;
glyphname = "hCarrier-canadian";
lastChange = "2023-01-13 15:55:03 +0000";
layers = (
{
layerId = "DE93BBBF-E17B-48DE-A6AB-0C4E62D4ADD4";
shapes = (
{
closed = 1;
nodes = (
(102,183,l),
(131,320,ls),
(141,366,o),
(171,392,o),
(211,392,cs),
(255,392,o),
(273,364,o),
(263,315,cs),
(235,183,l),
(280,183,l),
(310,321,ls),
(325,390,o),
(289,434,o),
(225,434,cs),
(179,434,o),
(138,406,o),
(127,366,c),
(140,361,l),
(176,527,l),
(129,527,l),
(56,183,l)
);
}
);
width = 338;
}
);
metricLeft = "pWestCree-canadian";
note = uni144B;
unicode = 5195;
},
{
glyphname = "te-canadian";
lastChange = "2023-01-13 15:55:06 +0000";
layers = (
{
anchors = (
{
name = middle_center_can;
pos = (367,345);
},
{
name = top_center_can;
pos = (440,690);
},
{
name = top_left_can;
pos = (201,690);
},
{
name = top_right_can;
pos = (681,690);
}
);
layerId = "DE93BBBF-E17B-48DE-A6AB-0C4E62D4ADD4";
shapes = (
{
closed = 1;
nodes = (
(485,-13,o),
(582,79,o),
(622,266,cs),
(712,690,l),
(650,690,l),
(561,270,ls),
(528,115,o),
(453,45,o),
(322,45,cs),
(171,45,o),
(111,126,o),
(147,291,cs),
(232,690,l),
(170,690,l),
(86,294,ls),
(43,97,o),
(132,-13,o),
(318,-13,cs)
);
}
);
width = 689;
}
);
metricRight = "=|";
note = uni144C;
unicode = 5196;
},
{
glyphname = "ti-canadian";
lastChange = "2023-01-13 15:55:06 +0000";
layers = (
{
anchors = (
{
name = middle_center_can;
pos = (367,345);
},
{
name = middle_right_can;
pos = (797,345);
},
{
name = top_center_can;
pos = (440,690);
},
{
name = top_left_can;
pos = (201,690);
},
{
name = top_right_can;
pos = (681,690);
}
);
layerId = "DE93BBBF-E17B-48DE-A6AB-0C4E62D4ADD4";
shapes = (
{
closed = 1;
nodes = (
(85,0,l),
(174,420,ls),
(207,575,o),
(283,644,o),
(413,644,cs),
(564,644,o),
(624,564,o),
(588,399,cs),
(503,0,l),
(565,0,l),
(649,396,ls),
(692,593,o),
(603,702,o),
(417,702,cs),
(250,702,o),
(154,611,o),
(113,424,cs),
(23,0,l)
);
}
);
width = 688;
}
);
metricLeft = "te-canadian";
metricRight = "te-canadian";
note = uni144E;
unicode = 5198;
},
{
glyphname = "to-canadian";
kernLeft = toleft;
lastChange = "2023-01-13 15:55:03 +0000";
layers = (
{
anchors = (
{
name = middle_center_can;
pos = (282,345);
},
{
name = middle_right_can;
pos = (700,345);
},
{
name = top_center_can;
pos = (360,690);
},
{
name = top_double;
pos = (415,690);
},
{
name = top_left_can;
pos = (184,690);
},
{
name = top_right_can;
pos = (588,690);
}
);
layerId = "DE93BBBF-E17B-48DE-A6AB-0C4E62D4ADD4";
shapes = (
{
closed = 1;
nodes = (
(157,0,ls),
(467,0,o),
(550,263,o),
(550,434,cs),
(550,596,o),
(456,690,o),
(288,690,cs),
(156,690,l),
(144,634,l),
(279,634,ls),
(416,634,o),
(488,563,o),
(488,432,cs),
(488,289,o),
(422,56,o),
(164,56,cs),
(21,56,l),
(9,0,l)
);
}
);
width = 585;
}
);
note = uni1450;
unicode = 5200;
},
{
glyphname = "ta-canadian";
kernRight = taright;
lastChange = "2023-01-13 15:55:03 +0000";
layers = (
{
anchors = (
{
name = middle_center_can;
pos = (350,345);
},
{
name = top_center_can;
pos = (418,690);
},
{
name = top_left_can;
pos = (189,690);
},
{
name = top_right_can;
pos = (594,690);
}
);
layerId = "DE93BBBF-E17B-48DE-A6AB-0C4E62D4ADD4";
shapes = (
{
closed = 1;
nodes = (
(476,0,l),
(488,56,l),
(352,56,ls),
(214,56,o),
(144,127,o),
(144,258,cs),
(144,403,o),
(210,634,o),
(467,634,cs),
(611,634,l),
(623,690,l),
(472,690,ls),
(165,690,o),
(82,428,o),
(82,256,cs),
(82,94,o),
(175,0,o),
(343,0,cs)
);
}
);
width = 585;
}
);
metricLeft = "=|to-canadian";
metricRight = "=|to-canadian";
note = uni1455;
unicode = 5205;
},
{
glyphname = "t-canadian";
kernLeft = mwestleft;
kernRight = mwestright;
lastChange = "2023-01-13 15:55:03 +0000";
layers = (
{
layerId = "DE93BBBF-E17B-48DE-A6AB-0C4E62D4ADD4";
shapes = (
{
closed = 1;
nodes = (
(320,345,l),
(329,387,l),
(264,387,ls),
(200,387,o),
(168,421,o),
(168,479,cs),
(168,552,o),
(201,647,o),
(319,647,cs),
(384,647,l),
(393,690,l),
(325,690,ls),
(186,690,o),
(122,588,o),
(122,477,cs),
(122,395,o),
(172,345,o),
(259,345,cs)
);
}
);
width = 361;
}
);
note = uni1466;
unicode = 5222;
},
{
glyphname = "ke-canadian";
lastChange = "2023-01-13 15:55:03 +0000";
layers = (
{
anchors = (
{
name = middle_center_can;
pos = (344,441);
},
{
name = top_center_can;
pos = (376,690);
},
{
name = top_left_can;
pos = (192,690);
},
{
name = top_right_can;
pos = (554,692);
}
);
layerId = "DE93BBBF-E17B-48DE-A6AB-0C4E62D4ADD4";
shapes = (
{
closed = 1;
nodes = (
(444,0,l),
(534,421,ls),
(563,559,o),
(520,702,o),
(356,702,cs),
(180,702,o),
(111,527,o),
(111,401,cs),
(111,281,o),
(182,206,o),
(292,206,cs),
(373,206,o),
(435,249,o),
(467,327,c),
(455,341,l),
(383,0,l)
);
},
{
closed = 1;
nodes = (
(220,259,o),
(171,313,o),
(171,402,cs),
(171,493,o),
(217,648,o),
(352,648,cs),
(435,648,o),
(483,594,o),
(483,504,cs),
(483,412,o),
(437,259,o),
(303,259,cs)
);
}
);
width = 568;
}
);
metricRight = "te-canadian";
note = uni146B;
unicode = 5227;
},
{
glyphname = "ki-canadian";
lastChange = "2023-01-13 15:55:03 +0000";
layers = (
{
anchors = (
{
name = middle_center_can;
pos = (351,441);
},
{
name = top_center_can;
pos = (379,690);
},
{
name = top_left_can;
pos = (201,690);
},
{
name = top_right_can;
pos = (566,690);
}
);
layerId = "DE93BBBF-E17B-48DE-A6AB-0C4E62D4ADD4";
shapes = (
{
closed = 1;
nodes = (
(85,0,l),
(161,361,l),
(151,356,l),
(146,277,o),
(210,206,o),
(310,206,cs),
(483,206,o),
(549,383,o),
(549,504,cs),
(549,627,o),
(477,702,o),
(360,702,cs),
(241,702,o),
(156,623,o),
(126,482,cs),
(23,0,l)
);
},
{
closed = 1;
nodes = (
(225,259,o),
(177,313,o),
(177,403,cs),
(177,492,o),
(222,648,o),
(356,648,cs),
(440,648,o),
(489,595,o),
(489,505,cs),
(489,415,o),
(442,259,o),
(309,259,cs)
);
}
);
width = 568;
}
);
metricLeft = "te-canadian";
metricRight = "=|ke-canadian";
note = uni146D;
unicode = 5229;
},
{
glyphname = "ko-canadian";
lastChange = "2023-01-13 15:55:06 +0000";
layers = (
{
anchors = (
{
name = middle_center_can;
pos = (337,397);
},
{
name = top_center_can;
pos = (378,690);
},
{
name = top_double;
pos = (560,690);
},
{
name = top_left_can;
pos = (195,690);
},
{
name = top_right_can;
pos = (560,690);
}
);
layerId = "DE93BBBF-E17B-48DE-A6AB-0C4E62D4ADD4";
shapes = (
{
closed = 1;
nodes = (
(376,-13,o),
(460,67,o),
(490,208,cs),
(592,690,l),
(530,690,l),
(453,328,l),
(464,333,l),
(469,412,o),
(406,484,o),
(304,484,cs),
(130,484,o),
(66,305,o),
(66,185,cs),
(66,63,o),
(137,-13,o),
(256,-13,cs)
);
},
{
closed = 1;
nodes = (
(175,42,o),
(126,95,o),
(126,185,cs),
(126,274,o),
(173,430,o),
(306,430,cs),
(389,430,o),
(438,377,o),
(438,287,cs),
(438,196,o),
(393,42,o),
(258,42,cs)
);
}
);
width = 569;
}
);
metricLeft = "ke-canadian";
metricRight = "te-canadian";
note = uni146F;
unicode = 5231;
},
{
glyphname = "ka-canadian";
lastChange = "2023-01-13 15:55:03 +0000";
layers = (
{
anchors = (
{
name = middle_center_can;
pos = (341,398);
},
{
name = top_center_can;
pos = (383,690);
},
{
name = top_left_can;
pos = (201,690);
},
{
name = top_right_can;
pos = (566,690);
}
);
layerId = "DE93BBBF-E17B-48DE-A6AB-0C4E62D4ADD4";
shapes = (
{
closed = 1;
nodes = (
(434,-13,o),
(503,162,o),
(503,289,cs),
(503,409,o),
(433,484,o),
(323,484,cs),
(242,484,o),
(181,440,o),
(148,363,c),
(159,349,l),
(232,690,l),
(170,690,l),
(80,269,ls),
(44,98,o),
(119,-13,o),
(260,-13,cs)
);
},
{
closed = 1;
nodes = (
(180,42,o),
(131,96,o),
(131,185,cs),
(131,278,o),
(178,431,o),
(311,431,cs),
(394,431,o),
(442,377,o),
(442,288,cs),
(442,197,o),
(397,42,o),
(263,42,cs)
);
}
);
width = 568;
}
);
metricLeft = "te-canadian";
metricRight = "==|ke-canadian";
note = uni1472;
unicode = 5234;
},
{
glyphname = "k-canadian";
kernLeft = mwestleft;
kernRight = mwestright;
lastChange = "2023-01-13 15:55:03 +0000";
layers = (
{
layerId = "DE93BBBF-E17B-48DE-A6AB-0C4E62D4ADD4";
shapes = (
{
closed = 1;
nodes = (
(308,339,o),
(355,427,o),
(355,499,cs),
(355,560,o),
(318,601,o),
(261,601,cs),
(213,601,o),
(177,571,o),
(159,526,c),
(175,524,l),
(211,690,l),
(164,690,l),
(121,486,ls),
(105,415,o),
(128,339,o),
(219,339,cs)
);
},
{
closed = 1;
nodes = (
(183,376,o),
(158,402,o),
(158,444,cs),
(158,495,o),
(189,564,o),
(249,564,cs),
(289,564,o),
(313,539,o),
(313,497,cs),
(313,445,o),
(282,376,o),
(221,376,cs)
);
}
);
width = 361;
}
);
note = uni1483;
unicode = 5251;
},
{
glyphname = "kw-canadian";
kernLeft = mwestleft;
kernRight = mwestright;
lastChange = "2023-01-13 15:55:06 +0000";
layers = (
{
layerId = "DE93BBBF-E17B-48DE-A6AB-0C4E62D4ADD4";
shapes = (
{
closed = 1;
nodes = (
(277,339,o),
(325,382,o),
(341,463,cs),
(390,690,l),
(344,690,l),
(307,520,l),
(321,520,l),
(321,566,o),
(286,601,o),
(235,601,cs),
(151,601,o),
(106,513,o),
(106,443,cs),
(106,381,o),
(146,339,o),
(211,339,cs)
);
},
{
closed = 1;
nodes = (
(172,376,o),
(148,401,o),
(148,443,cs),
(148,494,o),
(178,564,o),
(239,564,cs),
(277,564,o),
(302,538,o),
(302,496,cs),
(302,447,o),
(273,376,o),
(211,376,cs)
);
}
);
width = 360;
}
);
metricLeft = "=|k-canadian";
metricRight = "=|k-canadian";
note = uni1484;
unicode = 5252;
},
{
glyphname = "ce-canadian";
kernLeft = celeft;
lastChange = "2023-01-13 15:55:03 +0000";
layers = (
{
anchors = (
{
name = middle_center_can;
pos = (339,419);
},
{
name = top_center_can;
pos = (378,690);
},
{
name = top_left_can;
pos = (195,690);
},
{
name = top_right_can;
pos = (557,690);
}
);
layerId = "DE93BBBF-E17B-48DE-A6AB-0C4E62D4ADD4";
shapes = (
{
closed = 1;
nodes = (
(441,0,l),
(535,440,ls),
(568,596,o),
(497,702,o),
(355,702,cs),
(227,702,o),
(152,626,o),
(118,469,cs),
(100,391,l),
(162,391,l),
(178,467,ls),
(204,591,o),
(260,647,o),
(351,647,cs),
(458,647,o),
(500,571,o),
(474,448,cs),
(380,0,l)
);
}
);
width = 565;
}
);
metricRight = "te-canadian";
note = uni1489;
unicode = 5257;
},
{
glyphname = "ci-canadian";
kernRight = ciright;
lastChange = "2023-01-13 15:55:03 +0000";
layers = (
{
anchors = (
{
name = middle_center_can;
pos = (342,419);
},
{
name = top_center_can;
pos = (384,690);
},
{
name = top_left_can;
pos = (201,690);
},
{
name = top_right_can;
pos = (564,690);
}
);
layerId = "DE93BBBF-E17B-48DE-A6AB-0C4E62D4ADD4";
shapes = (
{
closed = 1;
nodes = (
(85,0,l),
(184,467,ls),
(210,591,o),
(265,647,o),
(356,647,cs),
(465,647,o),
(506,571,o),
(480,448,cs),
(469,391,l),
(529,391,l),
(540,440,ls),
(575,596,o),
(503,702,o),
(361,702,cs),
(233,702,o),
(156,626,o),
(123,469,cs),
(23,0,l)
);
}
);
width = 564;
}
);
metricLeft = "te-canadian";
metricRight = "=|ce-canadian";
note = uni148B;
unicode = 5259;
},
{
glyphname = "co-canadian";
kernLeft = coleft;
lastChange = "2023-01-13 15:55:06 +0000";
layers = (
{
anchors = (
{
name = middle_center_can;
pos = (339,419);
},
{
name = top_center_can;
pos = (376,690);
},
{
name = top_double;
pos = (556,690);
},
{
name = top_left_can;
pos = (194,690);
},
{
name = top_right_can;
pos = (556,690);
}
);
layerId = "DE93BBBF-E17B-48DE-A6AB-0C4E62D4ADD4";
shapes = (
{
closed = 1;
nodes = (
(377,-13,o),
(453,64,o),
(487,220,cs),
(587,690,l),
(525,690,l),
(426,223,ls),
(400,99,o),
(345,43,o),
(253,43,cs),
(145,43,o),
(104,119,o),
(129,242,cs),
(141,298,l),
(80,298,l),
(70,249,ls),
(36,94,o),
(106,-13,o),
(248,-13,cs)
);
}
);
width = 563;
}
);
metricLeft = "ce-canadian";
metricRight = "te-canadian";
note = uni148D;
unicode = 5261;
},
{
glyphname = "ca-canadian";
kernRight = caright;
lastChange = "2023-01-13 15:55:06 +0000";
layers = (
{
anchors = (
{
name = middle_center_can;
pos = (343,419);
},
{
name = top_center_can;
pos = (384,690);
},
{
name = top_left_can;
pos = (201,690);
},
{
name = top_right_can;
pos = (562,690);
}
);
layerId = "DE93BBBF-E17B-48DE-A6AB-0C4E62D4ADD4";
shapes = (
{
closed = 1;
nodes = (
(384,-13,o),
(459,64,o),
(493,220,cs),
(509,298,l),
(448,298,l),
(433,223,ls),
(406,99,o),
(352,43,o),
(260,43,cs),
(153,43,o),
(110,119,o),
(136,242,cs),
(232,690,l),
(170,690,l),
(76,249,ls),
(43,94,o),
(113,-13,o),
(255,-13,cs)
);
}
);
width = 563;
}
);
metricLeft = "te-canadian";
metricRight = "=|ce-canadian";
note = uni1490;
unicode = 5264;
},
{
glyphname = "c-canadian";
kernLeft = mwestleft;
kernRight = mwestright;
lastChange = "2023-01-13 15:55:03 +0000";
layers = (
{
layerId = "DE93BBBF-E17B-48DE-A6AB-0C4E62D4ADD4";
shapes = (
{
closed = 1;
nodes = (
(287,339,o),
(334,380,o),
(350,454,cs),
(356,485,l),
(313,485,l),
(306,452,ls),
(295,403,o),
(266,378,o),
(221,378,cs),
(171,378,o),
(151,409,o),
(163,468,cs),
(211,690,l),
(164,690,l),
(119,472,ls),
(101,391,o),
(139,339,o),
(219,339,cs)
);
}
);
width = 352;
}
);
note = uni14A1;
unicode = 5281;
},
{
glyphname = "thSayisi-canadian";
lastChange = "2023-01-13 15:55:06 +0000";
layers = (
{
layerId = "DE93BBBF-E17B-48DE-A6AB-0C4E62D4ADD4";
shapes = (
{
closed = 1;
nodes = (
(270,339,o),
(315,380,o),
(331,455,cs),
(382,690,l),
(335,690,l),
(285,454,ls),
(274,401,o),
(243,378,o),
(201,378,cs),
(149,378,o),
(129,412,o),
(140,462,cs),
(145,485,l),
(101,485,l),
(98,468,ls),
(81,393,o),
(121,339,o),
(199,339,cs)
);
}
);
width = 352;
}
);
metricLeft = "=|c-canadian";
metricRight = "=|c-canadian";
note = uni14A2;
unicode = 5282;
},
{
glyphname = "me-canadian";
kernLeft = meleft;
lastChange = "2023-01-13 15:55:07 +0000";
layers = (
{
anchors = (
{
name = middle_center_can;
pos = (224,345);
},
{
name = top_center_can;
pos = (329,690);
},
{
name = top_left_can;
pos = (169,690);
},
{
name = top_right_can;
pos = (488,690);
}
);
layerId = "DE93BBBF-E17B-48DE-A6AB-0C4E62D4ADD4";
shapes = (
{
closed = 1;
nodes = (
(372,0,l),
(519,690,l),
(138,690,l),
(127,634,l),
(445,634,l),
(310,0,l)
);
}
);
width = 502;
}
);
metricRight = "nunavuth-canadian";
note = uni14A3;
unicode = 5283;
},
{
glyphname = "mi-canadian";
kernRight = miright;
lastChange = "2023-01-13 15:55:06 +0000";
layers = (
{
anchors = (
{
name = middle_center_can;
pos = (326,345);
},
{
name = top_center_can;
pos = (367,690);
},
{
name = top_left_can;
pos = (209,690);
},
{
name = top_right_can;
pos = (526,690);
}
);
layerId = "DE93BBBF-E17B-48DE-A6AB-0C4E62D4ADD4";
shapes = (
{
closed = 1;
nodes = (
(92,0,l),
(227,634,l),
(546,634,l),
(557,690,l),
(177,690,l),
(30,0,l)
);
}
);
width = 502;
}
);
metricLeft = "nunavuth-canadian";
metricRight = "=|me-canadian";
note = uni14A5;
unicode = 5285;
},
{
glyphname = "mo-canadian";
kernLeft = moleft;
lastChange = "2023-01-13 15:55:07 +0000";
layers = (
{
anchors = (
{
name = middle_center_can;
pos = (224,345);
},
{
name = top_center_can;
pos = (329,690);
},
{
name = top_double;
pos = (488,690);
},
{
name = top_left_can;
pos = (169,690);
},
{
name = top_right_can;
pos = (488,690);
}
);
layerId = "DE93BBBF-E17B-48DE-A6AB-0C4E62D4ADD4";
shapes = (
{
closed = 1;
nodes = (
(372,0,l),
(519,690,l),
(457,690,l),
(323,56,l),
(3,56,l),
(-9,0,l)
);
}
);
width = 502;
}
);
metricLeft = "me-canadian";
metricRight = "nunavuth-canadian";
note = uni14A7;
unicode = 5287;
},
{
glyphname = "ma-canadian";
kernRight = maright;
lastChange = "2023-01-13 15:55:06 +0000";
layers = (
{
anchors = (
{
name = middle_center_can;
pos = (326,345);
},
{
name = top_center_can;
pos = (367,690);
},
{
name = top_left_can;
pos = (209,690);
},
{
name = top_right_can;
pos = (526,690);
}
);
layerId = "DE93BBBF-E17B-48DE-A6AB-0C4E62D4ADD4";
shapes = (
{
closed = 1;
nodes = (
(411,0,l),
(423,56,l),
(104,56,l),
(239,690,l),
(177,690,l),
(30,0,l)
);
}
);
width = 502;
}
);
metricLeft = "nunavuth-canadian";
metricRight = "=|me-canadian";
note = uni14AA;
unicode = 5290;
},
{
glyphname = "m-canadian";
kernLeft = mwestleft;
kernRight = mwestright;
lastChange = "2023-01-13 15:55:03 +0000";
layers = (
{
layerId = "DE93BBBF-E17B-48DE-A6AB-0C4E62D4ADD4";
shapes = (
{
closed = 1;
nodes = (
(299,345,l),
(309,387,l),
(146,387,l),
(211,690,l),
(164,690,l),
(91,345,l)
);
}
);
width = 326;
}
);
metricLeft = "pWestCree-canadian";
note = uni14BB;
unicode = 5307;
},
{
glyphname = "mh-canadian";
kernLeft = mwestleft;
kernRight = mwestright;
lastChange = "2023-01-13 15:55:06 +0000";
layers = (
{
layerId = "DE93BBBF-E17B-48DE-A6AB-0C4E62D4ADD4";
shapes = (
{
closed = 1;
nodes = (
(281,345,l),
(355,690,l),
(309,690,l),
(244,387,l),
(81,387,l),
(72,345,l)
);
}
);
width = 325;
}
);
metricLeft = "=|m-canadian";
metricRight = "=|m-canadian";
note = uni14BD;
unicode = 5309;
},
{
glyphname = "mAthapascan-canadian";
lastChange = "2023-01-13 15:55:03 +0000";
layers = (
{
layerId = "DE93BBBF-E17B-48DE-A6AB-0C4E62D4ADD4";
shapes = (
{
closed = 1;
nodes = (
(316,345,l),
(325,384,l),
(152,384,l),
(150,360,l),
(288,483,ls),
(329,521,o),
(353,556,o),
(353,605,cs),
(353,659,o),
(315,696,o),
(256,696,cs),
(191,696,o),
(145,659,o),
(130,574,c),
(173,574,l),
(184,634,o),
(212,659,o),
(253,659,cs),
(289,659,o),
(311,639,o),
(311,604,cs),
(311,564,o),
(293,537,o),
(249,498,cs),
(100,367,l),
(96,345,l)
);
}
);
width = 345;
}
);
note = uni14BE;
unicode = 5310;
},
{
glyphname = "ne-canadian";
kernLeft = neleft;
lastChange = "2023-01-13 15:55:06 +0000";
layers = (
{
anchors = (
{
name = middle_center_can;
pos = (502,245);
},
{
name = top_center_can;
pos = (546,490);
},
{
name = top_left_can;
pos = (147,490);
},
{
name = top_right_can;
pos = (744,490);
}
);
layerId = "DE93BBBF-E17B-48DE-A6AB-0C4E62D4ADD4";
shapes = (
{
closed = 1;
nodes = (
(640,-13,o),
(722,146,o),
(722,277,cs),
(722,395,o),
(647,472,o),
(517,472,cs),
(112,472,l),
(100,416,l),
(440,416,l),
(440,442,l),
(315,409,o),
(275,272,o),
(275,183,cs),
(275,66,o),
(351,-13,o),
(476,-13,cs)
);
},
{
closed = 1;
nodes = (
(386,42,o),
(335,98,o),
(335,184,cs),
(335,282,o),
(389,418,o),
(519,418,cs),
(611,418,o),
(661,362,o),
(661,276,cs),
(661,178,o),
(607,42,o),
(477,42,cs)
);
}
);
width = 789;
}
);
metricRight = "=|ke-canadian";
note = uni14C0;
unicode = 5312;
},
{
glyphname = "ni-canadian";
kernRight = niright;
lastChange = "2023-01-13 15:55:06 +0000";
layers = (
{
anchors = (
{
name = middle_center_can;
pos = (289,245);
},
{
name = top_center_can;
pos = (350,490);
},
{
name = top_left_can;
pos = (152,490);
},
{
name = top_right_can;
pos = (750,490);
}
);
layerId = "DE93BBBF-E17B-48DE-A6AB-0C4E62D4ADD4";
shapes = (
{
closed = 1;
nodes = (
(430,-13,o),
(511,146,o),
(511,277,cs),
(511,345,o),
(480,398,o),
(433,423,c),
(424,416,l),
(765,416,l),
(777,472,l),
(316,472,ls),
(144,472,o),
(65,316,o),
(65,184,cs),
(65,66,o),
(140,-13,o),
(266,-13,cs)
);
},
{
closed = 1;
nodes = (
(176,42,o),
(126,98,o),
(126,184,cs),
(126,282,o),
(180,418,o),
(309,418,cs),
(400,418,o),
(450,362,o),
(450,276,cs),
(450,178,o),
(396,42,o),
(267,42,cs)
);
}
);
width = 789;
}
);
metricLeft = "ke-canadian";
metricRight = "=|ne-canadian";
note = uni14C2;
unicode = 5314;
},
{
glyphname = "no-canadian";
kernLeft = noleft;
lastChange = "2023-01-13 15:55:06 +0000";
layers = (
{
anchors = (
{
name = middle_center_can;
pos = (504,245);
},
{
name = top_center_can;
pos = (553,490);
},
{
name = top_double;
pos = (556,490);
},
{
name = top_left_can;
pos = (148,490);
},
{
name = top_right_can;
pos = (746,490);
}
);
layerId = "DE93BBBF-E17B-48DE-A6AB-0C4E62D4ADD4";
shapes = (
{
closed = 1;
nodes = (
(473,0,ls),
(645,0,o),
(725,156,o),
(725,289,cs),
(725,407,o),
(649,484,o),
(524,484,cs),
(359,484,o),
(278,326,o),
(278,195,cs),
(278,127,o),
(310,74,o),
(357,49,c),
(365,56,l),
(24,56,l),
(13,0,l)
);
},
{
closed = 1;
nodes = (
(389,54,o),
(339,109,o),
(339,196,cs),
(339,294,o),
(393,430,o),
(523,430,cs),
(614,430,o),
(665,375,o),
(665,289,cs),
(665,190,o),
(611,54,o),
(481,54,cs)
);
}
);
width = 789;
}
);
metricLeft = "ne-canadian";
metricRight = "=|ke-canadian";
note = uni14C4;
unicode = 5316;
},
{
glyphname = "na-canadian";
kernRight = naright;
lastChange = "2023-01-13 15:55:03 +0000";
layers = (
{
anchors = (
{
name = middle_center_can;
pos = (289,245);
},
{
name = top_center_can;
pos = (344,490);
},
{
name = top_double;
pos = (484,490);
},
{
name = top_left_can;
pos = (152,490);
},
{
name = top_right_can;
pos = (749,490);
}
);
layerId = "DE93BBBF-E17B-48DE-A6AB-0C4E62D4ADD4";
shapes = (
{
closed = 1;
nodes = (
(675,0,l),
(688,56,l),
(349,56,l),
(348,30,l),
(472,64,o),
(512,200,o),
(512,290,cs),
(512,407,o),
(437,484,o),
(311,484,cs),
(147,484,o),
(67,326,o),
(67,195,cs),
(67,77,o),
(141,0,o),
(270,0,cs)
);
},
{
closed = 1;
nodes = (
(177,54,o),
(127,109,o),
(127,196,cs),
(127,294,o),
(181,430,o),
(310,430,cs),
(402,430,o),
(452,375,o),
(452,289,cs),
(452,190,o),
(398,54,o),
(269,54,cs)
);
}
);
width = 788;
}
);
metricLeft = "ke-canadian";
metricRight = "=|ne-canadian";
note = uni14C7;
unicode = 5319;
},
{
glyphname = "n-canadian";
kernLeft = mwestleft;
kernRight = mwestright;
lastChange = "2023-01-13 15:55:06 +0000";
layers = (
{
layerId = "DE93BBBF-E17B-48DE-A6AB-0C4E62D4ADD4";
shapes = (
{
closed = 1;
nodes = (
(460,434,l),
(468,477,l),
(287,477,l),
(284,452,l),
(341,470,o),
(363,543,o),
(363,588,cs),
(363,653,o),
(323,696,o),
(258,696,cs),
(172,696,o),
(127,615,o),
(127,542,cs),
(127,476,o),
(167,434,o),
(233,434,cs)
);
},
{
closed = 1;
nodes = (
(191,470,o),
(167,498,o),
(167,541,cs),
(167,584,o),
(190,660,o),
(257,660,cs),
(298,660,o),
(323,632,o),
(323,589,cs),
(323,546,o),
(299,470,o),
(233,470,cs)
);
}
);
width = 467;
}
);
metricLeft = "=|k-canadian";
note = uni14D0;
unicode = 5328;
},
{
glyphname = "nh-canadian";
kernLeft = mwestleft;
kernRight = mwestright;
lastChange = "2023-01-13 15:55:06 +0000";
layers = (
{
layerId = "DE93BBBF-E17B-48DE-A6AB-0C4E62D4ADD4";
shapes = (
{
closed = 1;
nodes = (
(345,434,ls),
(435,434,o),
(480,515,o),
(480,589,cs),
(480,654,o),
(439,696,o),
(374,696,cs),
(288,696,o),
(243,615,o),
(243,542,cs),
(243,501,o),
(264,472,o),
(283,461,c),
(289,477,l),
(100,477,l),
(91,434,l)
);
},
{
closed = 1;
nodes = (
(308,470,o),
(284,498,o),
(284,541,cs),
(284,584,o),
(306,660,o),
(373,660,cs),
(414,660,o),
(439,632,o),
(439,589,cs),
(439,546,o),
(416,470,o),
(350,470,cs)
);
}
);
width = 467;
}
);
metricLeft = "=|n-canadian";
metricRight = "=|n-canadian";
note = uni14D2;
unicode = 5330;
},
{
glyphname = "le-canadian";
kernLeft = neleft;
lastChange = "2023-01-13 15:55:06 +0000";
layers = (
{
anchors = (
{
name = middle_center_can;
pos = (502,245);
},
{
name = top_center_can;
pos = (546,490);
},
{
name = top_left_can;
pos = (147,490);
},
{
name = top_right_can;
pos = (744,490);
}
);
layerId = "DE93BBBF-E17B-48DE-A6AB-0C4E62D4ADD4";
shapes = (
{
closed = 1;
nodes = (
(435,0,ls),
(649,0,o),
(723,151,o),
(723,281,cs),
(723,398,o),
(647,472,o),
(521,472,cs),
(112,472,l),
(100,415,l),
(508,415,ls),
(608,415,o),
(661,366,o),
(661,278,cs),
(661,180,o),
(611,55,o),
(440,55,cs),
(400,55,l),
(388,0,l)
);
}
);
width = 789;
}
);
metricLeft = "ne-canadian";
metricRight = "=|ke-canadian";
note = uni14D3;
unicode = 5331;
},
{
glyphname = "li-canadian";
kernRight = niright;
lastChange = "2023-01-13 15:55:03 +0000";
layers = (
{
anchors = (
{
name = middle_center_can;
pos = (290,245);
},
{
name = top_center_can;
pos = (351,490);
},
{
name = top_left_can;
pos = (153,490);
},
{
name = top_right_can;
pos = (750,490);
}
);
layerId = "DE93BBBF-E17B-48DE-A6AB-0C4E62D4ADD4";
shapes = (
{
closed = 1;
nodes = (
(299,0,l),
(311,55,l),
(275,55,ls),
(180,55,o),
(127,107,o),
(127,194,cs),
(127,293,o),
(178,415,o),
(350,415,cs),
(764,415,l),
(776,472,l),
(355,472,ls),
(144,472,o),
(66,327,o),
(66,193,cs),
(66,77,o),
(140,0,o),
(262,0,cs)
);
}
);
width = 788;
}
);
metricLeft = "ke-canadian";
metricRight = "=|ne-canadian";
note = uni14D5;
unicode = 5333;
},
{
glyphname = "lo-canadian";
kernLeft = noleft;
lastChange = "2023-01-13 15:55:06 +0000";
layers = (
{
anchors = (
{
name = middle_center_can;
pos = (502,245);
},
{
name = top_center_can;
pos = (551,490);
},
{
name = top_double;
pos = (538,490);
},
{
name = top_left_can;
pos = (148,490);
},
{
name = top_right_can;
pos = (745,490);
}
);
layerId = "DE93BBBF-E17B-48DE-A6AB-0C4E62D4ADD4";
shapes = (
{
closed = 1;
nodes = (
(434,0,ls),
(645,0,o),
(724,145,o),
(724,278,cs),
(724,395,o),
(648,472,o),
(527,472,cs),
(489,472,l),
(478,416,l),
(513,416,ls),
(609,416,o),
(663,365,o),
(663,278,cs),
(663,180,o),
(611,56,o),
(440,56,cs),
(24,56,l),
(13,0,l)
);
}
);
width = 790;
}
);
metricLeft = "ne-canadian";
metricRight = "=|ke-canadian";
note = uni14D7;
unicode = 5335;
},
{
glyphname = "la-canadian";
kernRight = naright;
lastChange = "2023-01-13 15:55:03 +0000";
layers = (
{
anchors = (
{
name = middle_center_can;
pos = (290,245);
},
{
name = top_center_can;
pos = (345,490);
},
{
name = top_left_can;
pos = (153,490);
},
{
name = top_right_can;
pos = (749,490);
}
);
layerId = "DE93BBBF-E17B-48DE-A6AB-0C4E62D4ADD4";
shapes = (
{
closed = 1;
nodes = (
(675,0,l),
(688,56,l),
(279,56,ls),
(181,56,o),
(128,106,o),
(128,194,cs),
(128,293,o),
(176,416,o),
(347,416,cs),
(387,416,l),
(399,472,l),
(353,472,ls),
(138,472,o),
(66,322,o),
(66,191,cs),
(66,74,o),
(141,0,o),
(267,0,cs)
);
}
);
width = 788;
}
);
metricLeft = "ke-canadian";
metricRight = "=|ne-canadian";
note = uni14DA;
unicode = 5338;
},
{
glyphname = "l-canadian";
kernLeft = mwestleft;
kernRight = mwestright;
lastChange = "2023-01-13 15:55:03 +0000";
layers = (
{
layerId = "DE93BBBF-E17B-48DE-A6AB-0C4E62D4ADD4";
shapes = (
{
closed = 1;
nodes = (
(441,345,l),
(450,387,l),
(265,387,ls),
(201,387,o),
(168,420,o),
(168,479,cs),
(168,550,o),
(199,647,o),
(317,647,cs),
(337,647,l),
(346,690,l),
(322,690,ls),
(184,690,o),
(123,587,o),
(123,477,cs),
(123,393,o),
(173,345,o),
(263,345,cs)
);
}
);
width = 467;
}
);
metricLeft = "t-canadian";
metricRight = "m-canadian";
note = uni14EA;
unicode = 5354;
},
{
glyphname = "lWestCree-canadian";
kernLeft = mwestleft;
kernRight = mwestright;
lastChange = "2023-01-13 15:55:06 +0000";
layers = (
{
layerId = "DE93BBBF-E17B-48DE-A6AB-0C4E62D4ADD4";
shapes = (
{
closed = 1;
nodes = (
(325,345,l),
(330,374,l),
(153,450,l),
(147,429,l),
(358,503,l),
(363,526,l),
(184,600,l),
(179,578,l),
(390,656,l),
(398,690,l),
(387,690,l),
(146,602,l),
(142,582,l),
(325,508,l),
(328,526,l),
(114,452,l),
(110,433,l),
(314,345,l)
);
}
);
width = 370;
}
);
metricRight = "=|";
note = uni14EB;
unicode = 5355;
},
{
glyphname = "mediall-canadian";
lastChange = "2023-01-13 15:55:06 +0000";
layers = (
{
layerId = "DE93BBBF-E17B-48DE-A6AB-0C4E62D4ADD4";
shapes = (
{
closed = 1;
nodes = (
(507,-13,l),
(516,29,l),
(125,195,l),
(119,165,l),
(579,326,l),
(585,357,l),
(193,514,l),
(187,487,l),
(648,652,l),
(659,702,l),
(639,702,l),
(135,521,l),
(129,491,l),
(523,333,l),
(527,357,l),
(68,198,l),
(62,169,l),
(489,-13,l)
);
}
);
width = 634;
}
);
metricRight = "=|";
note = uni14EC;
unicode = 5356;
},
{
glyphname = "se-canadian";
kernRight = seright;
lastChange = "2023-01-13 15:55:03 +0000";
layers = (
{
anchors = (
{
name = top_left_can;
pos = (205,690);
},
{
name = top_right_can;
pos = (501,690);
}
);
layerId = "DE93BBBF-E17B-48DE-A6AB-0C4E62D4ADD4";
shapes = (
{
closed = 1;
nodes = (
(386,0,l),
(453,314,l),
(418,314,ls),
(249,314,o),
(174,405,o),
(213,587,cs),
(236,690,l),
(174,690,l),
(152,583,ls),
(109,382,o),
(208,258,o),
(405,258,cs),
(426,258,l),
(384,282,l),
(325,0,l)
);
}
);
width = 517;
}
);
note = uni14ED;
unicode = 5357;
},
{
glyphname = "si-canadian";
kernLeft = sileft;
lastChange = "2023-01-13 15:55:06 +0000";
layers = (
{
anchors = (
{
name = top_left_can;
pos = (209,690);
},
{
name = top_right_can;
pos = (506,690);
}
);
layerId = "DE93BBBF-E17B-48DE-A6AB-0C4E62D4ADD4";
shapes = (
{
closed = 1;
nodes = (
(93,0,l),
(153,283,l),
(103,258,l),
(145,258,ls),
(336,258,o),
(466,360,o),
(512,579,cs),
(536,690,l),
(474,690,l),
(452,585,ls),
(413,404,o),
(306,314,o),
(149,314,cs),
(98,314,l),
(31,0,l)
);
}
);
width = 516;
}
);
metricLeft = "=|se-canadian";
metricRight = "=|se-canadian";
note = uni14EF;
unicode = 5359;
},
{
glyphname = "so-canadian";
kernRight = soright;
lastChange = "2023-01-13 15:55:06 +0000";
layers = (
{
anchors = (
{
name = top_double;
pos = (502,690);
},
{
name = top_left_can;
pos = (205,690);
},
{
name = top_right_can;
pos = (502,690);
}
);
layerId = "DE93BBBF-E17B-48DE-A6AB-0C4E62D4ADD4";
shapes = (
{
closed = 1;
nodes = (
(89,0,l),
(112,104,ls),
(151,286,o),
(257,376,o),
(415,376,cs),
(467,376,l),
(533,690,l),
(471,690,l),
(411,407,l),
(460,432,l),
(418,432,ls),
(228,432,o),
(99,329,o),
(51,111,cs),
(27,0,l)
);
}
);
width = 518;
}
);
metricLeft = "se-canadian";
metricRight = "se-canadian";
note = uni14F1;
unicode = 5361;
},
{
glyphname = "sa-canadian";
kernLeft = saleft;
kernRight = saright;
lastChange = "2023-01-13 15:55:06 +0000";
layers = (
{
anchors = (
{
name = top_left_can;
pos = (210,690);
},
{
name = top_right_can;
pos = (506,690);
}
);
layerId = "DE93BBBF-E17B-48DE-A6AB-0C4E62D4ADD4";
shapes = (
{
closed = 1;
nodes = (
(390,0,l),
(413,106,ls),
(456,308,o),
(356,432,o),
(159,432,cs),
(138,432,l),
(180,408,l),
(240,690,l),
(179,690,l),
(111,376,l),
(147,376,ls),
(315,376,o),
(390,285,o),
(351,102,cs),
(328,0,l)
);
}
);
width = 518;
}
);
metricLeft = "=|se-canadian";
metricRight = "=|se-canadian";
note = uni14F4;
unicode = 5364;
},
{
glyphname = "s-canadian";
kernLeft = mwestleft;
kernRight = mwestright;
lastChange = "2023-01-13 15:55:06 +0000";
layers = (
{
layerId = "DE93BBBF-E17B-48DE-A6AB-0C4E62D4ADD4";
shapes = (
{
closed = 1;
nodes = (
(300,345,l),
(312,399,ls),
(335,506,o),
(281,573,o),
(175,573,cs),
(160,573,l),
(180,547,l),
(211,690,l),
(164,690,l),
(131,533,l),
(161,533,ls),
(247,533,o),
(285,489,o),
(267,401,cs),
(254,345,l)
);
}
);
width = 344;
}
);
metricRight = "=|";
note = uni1505;
unicode = 5381;
},
{
color = 6;
glyphname = "sAthapascan-canadian";
lastChange = "2023-01-13 15:55:03 +0000";
layers = (
{
layerId = "DE93BBBF-E17B-48DE-A6AB-0C4E62D4ADD4";
shapes = (
{
closed = 1;
nodes = (
(270,177,o),
(310,222,o),
(310,280,cs),
(310,318,o),
(291,344,o),
(252,359,cs),
(193,381,ls),
(165,391,o),
(155,409,o),
(155,432,cs),
(155,470,o),
(182,497,o),
(236,497,cs),
(285,497,o),
(309,474,o),
(300,429,c),
(342,429,l),
(353,490,o),
(312,533,o),
(238,533,cs),
(154,533,o),
(113,486,o),
(113,429,cs),
(113,389,o),
(138,361,o),
(170,349,cs),
(229,327,ls),
(259,316,o),
(269,300,o),
(269,277,cs),
(269,239,o),
(242,213,o),
(187,213,cs),
(131,213,o),
(110,237,o),
(119,284,c),
(77,284,l),
(66,221,o),
(102,177,o),
(186,177,cs)
);
}
);
width = 370;
}
);
metricRight = "=|";
note = uni1506;
unicode = 5382;
},
{
glyphname = "sw-canadian";
kernLeft = mwestleft;
kernRight = mwestright;
lastChange = "2023-01-13 15:55:06 +0000";
layers = (
{
layerId = "DE93BBBF-E17B-48DE-A6AB-0C4E62D4ADD4";
shapes = (
{
closed = 1;
nodes = (
(136,345,l),
(147,398,ls),
(167,493,o),
(214,533,o),
(304,533,cs),
(339,533,l),
(373,690,l),
(326,690,l),
(297,550,l),
(327,573,l),
(297,573,ls),
(189,573,o),
(126,517,o),
(102,403,cs),
(90,345,l)
);
}
);
width = 343;
}
);
metricLeft = "=|s-canadian";
metricRight = "=|s-canadian";
note = uni1507;
unicode = 5383;
},
{
glyphname = "sBlackfoot-canadian";
lastChange = "2023-01-13 15:55:06 +0000";
layers = (
{
layerId = "DE93BBBF-E17B-48DE-A6AB-0C4E62D4ADD4";
shapes = (
{
closed = 1;
nodes = (
(307,345,l),
(317,387,l),
(235,387,ls),
(176,387,o),
(153,417,o),
(166,482,cs),
(211,690,l),
(164,690,l),
(121,482,ls),
(101,395,o),
(141,345,o),
(229,345,cs)
);
}
);
width = 334;
}
);
metricLeft = "ai-canadian";
metricRight = "m-canadian";
note = uni1508;
unicode = 5384;
},
{
glyphname = "moosecreesk-canadian";
kernLeft = mwestleft;
kernRight = mwestright;
lastChange = "2023-01-13 15:55:03 +0000";
layers = (
{
layerId = "DE93BBBF-E17B-48DE-A6AB-0C4E62D4ADD4";
shapes = (
{
closed = 1;
nodes = (
(292,217,o),
(334,320,o),
(334,420,cs),
(334,520,o),
(290,572,o),
(185,572,cs),
(166,572,l),
(181,550,l),
(211,690,l),
(165,690,l),
(131,533,l),
(177,533,ls),
(270,533,o),
(296,495,o),
(292,405,c),
(301,410,l),
(297,447,o),
(270,478,o),
(219,478,cs),
(132,478,o),
(91,392,o),
(91,324,cs),
(91,260,o),
(130,217,o),
(197,217,cs)
);
},
{
closed = 1;
nodes = (
(156,253,o),
(132,281,o),
(132,324,cs),
(132,374,o),
(162,443,o),
(223,443,cs),
(264,443,o),
(287,417,o),
(287,375,cs),
(287,321,o),
(254,253,o),
(198,253,cs)
);
}
);
width = 371;
}
);
metricRight = "=|";
note = uni1509;
unicode = 5385;
},
{
glyphname = "skwNaskapi-canadian";
kernLeft = mwestleft;
kernRight = mwestright;
lastChange = "2023-01-13 15:55:06 +0000";
layers = (
{
layerId = "DE93BBBF-E17B-48DE-A6AB-0C4E62D4ADD4";
shapes = (
{
closed = 1;
nodes = (
(284,217,o),
(328,303,o),
(328,376,cs),
(328,438,o),
(293,478,o),
(236,478,cs),
(191,478,o),
(153,450,o),
(136,403,c),
(152,414,l),
(181,494,o),
(230,533,o),
(313,533,cs),
(365,533,l),
(398,690,l),
(352,690,l),
(322,549,l),
(348,572,l),
(315,572,ls),
(150,572,o),
(93,422,o),
(93,328,cs),
(93,261,o),
(130,217,o),
(196,217,cs)
);
},
{
closed = 1;
nodes = (
(156,253,o),
(134,281,o),
(134,324,cs),
(134,374,o),
(163,443,o),
(223,443,cs),
(264,443,o),
(287,417,o),
(287,375,cs),
(287,321,o),
(255,253,o),
(199,253,cs)
);
}
);
width = 370;
}
);
metricLeft = "=|moosecreesk-canadian";
metricRight = "=|moosecreesk-canadian";
note = uni150A;
unicode = 5386;
},
{
glyphname = "swNaskapi-canadian";
lastChange = "2023-01-13 15:55:03 +0000";
layers = (
{
layerId = "DE93BBBF-E17B-48DE-A6AB-0C4E62D4ADD4";
shapes = (
{
closed = 1;
nodes = (
(282,178,l),
(293,228,ls),
(316,335,o),
(268,399,o),
(161,399,cs),
(141,399,l),
(156,375,l),
(186,513,l),
(141,513,l),
(108,360,l),
(147,360,ls),
(233,360,o),
(266,321,o),
(247,229,cs),
(236,178,l)
);
},
{
closed = 1;
nodes = (
(267,63,o),
(284,81,o),
(284,104,cs),
(284,127,o),
(267,145,o),
(243,145,cs),
(221,145,o),
(202,127,o),
(202,104,cs),
(202,81,o),
(221,63,o),
(243,63,cs)
);
},
{
closed = 1;
nodes = (
(203,545,o),
(220,563,o),
(220,585,cs),
(220,610,o),
(203,627,o),
(180,627,cs),
(156,627,o),
(138,610,o),
(138,585,cs),
(138,563,o),
(156,545,o),
(180,545,cs)
);
}
);
width = 376;
}
);
metricRight = "=|";
note = uni150B;
unicode = 5387;
},
{
glyphname = "spwaNaskapi-canadian";
lastChange = "2023-01-13 15:55:03 +0000";
layers = (
{
layerId = "DE93BBBF-E17B-48DE-A6AB-0C4E62D4ADD4";
shapes = (
{
closed = 1;
nodes = (
(527,0,l),
(538,50,l),
(126,353,l),
(120,325,l),
(661,627,l),
(674,690,l),
(655,690,l),
(63,358,l),
(57,331,l),
(508,0,l)
);
},
{
closed = 1;
nodes = (
(216,489,o),
(234,508,o),
(234,530,cs),
(234,554,o),
(216,573,o),
(192,573,cs),
(170,573,o),
(151,554,o),
(151,530,cs),
(151,508,o),
(170,489,o),
(192,489,cs)
);
},
{
closed = 1;
nodes = (
(405,597,l),
(413,639,ls),
(429,713,o),
(396,759,o),
(325,759,cs),
(303,759,l),
(326,740,l),
(346,837,l),
(301,837,l),
(277,723,l),
(306,723,ls),
(362,723,o),
(382,696,o),
(369,637,cs),
(360,597,l)
);
},
{
closed = 1;
nodes = (
(595,699,o),
(613,718,o),
(613,741,cs),
(613,764,o),
(595,782,o),
(572,782,cs),
(549,782,o),
(530,764,o),
(530,741,cs),
(530,718,o),
(549,699,o),
(572,699,cs)
);
}
);
width = 635;
}
);
metricRight = "pa-canadian";
metricWidth = "pa-canadian";
note = uni150C;
unicode = 5388;
},
{
glyphname = "she-canadian";
kernRight = caright;
lastChange = "2023-01-13 15:55:03 +0000";
layers = (
{
anchors = (
{
name = top_left_can;
pos = (371,690);
},
{
name = top_right_can;
pos = (761,690);
}
);
layerId = "DE93BBBF-E17B-48DE-A6AB-0C4E62D4ADD4";
shapes = (
{
closed = 1;
nodes = (
(718,-13,o),
(794,71,o),
(825,225,cs),
(840,298,l),
(780,298,l),
(764,226,ls),
(738,103,o),
(687,43,o),
(598,43,cs),
(503,43,o),
(465,107,o),
(485,241,cs),
(517,441,ls),
(543,611,o),
(480,702,o),
(348,702,cs),
(225,702,o),
(149,618,o),
(118,465,cs),
(102,391,l),
(164,391,l),
(179,464,ls),
(205,586,o),
(256,647,o),
(345,647,cs),
(440,647,o),
(478,582,o),
(458,449,cs),
(426,249,ls),
(399,79,o),
(463,-13,o),
(596,-13,cs)
);
}
);
width = 896;
}
);
metricRight = "=|";
note = uni1510;
unicode = 5392;
},
{
glyphname = "shi-canadian";
kernLeft = coleft;
lastChange = "2023-01-13 15:55:06 +0000";
layers = (
{
anchors = (
{
name = top_left_can;
pos = (331,690);
},
{
name = top_right_can;
pos = (722,690);
}
);
layerId = "DE93BBBF-E17B-48DE-A6AB-0C4E62D4ADD4";
shapes = (
{
closed = 1;
nodes = (
(361,-13,o),
(427,65,o),
(472,231,cs),
(530,450,ls),
(567,588,o),
(612,647,o),
(702,647,cs),
(796,647,o),
(839,582,o),
(810,446,cs),
(799,391,l),
(861,391,l),
(870,439,ls),
(905,602,o),
(837,702,o),
(703,702,cs),
(581,702,o),
(516,625,o),
(471,459,cs),
(412,239,ls),
(376,101,o),
(330,43,o),
(241,43,cs),
(147,43,o),
(103,107,o),
(132,243,cs),
(144,298,l),
(82,298,l),
(72,251,ls),
(37,87,o),
(105,-13,o),
(240,-13,cs)
);
}
);
width = 897;
}
);
metricLeft = "she-canadian";
metricRight = "she-canadian";
note = uni1511;
unicode = 5393;
},
{
glyphname = "sho-canadian";
lastChange = "2023-01-13 15:55:06 +0000";
layers = (
{
anchors = (
{
name = top_center_can;
pos = (514,490);
},
{
name = top_left_can;
pos = (326,490);
},
{
name = top_right_can;
pos = (701,490);
}
);
layerId = "DE93BBBF-E17B-48DE-A6AB-0C4E62D4ADD4";
shapes = (
{
closed = 1;
nodes = (
(289,42,l),
(178,42,o),
(116,84,o),
(116,156,cs),
(116,226,o),
(159,287,o),
(251,287,cs),
(395,287,o),
(506,129,o),
(673,129,cs),
(795,129,o),
(866,213,o),
(866,318,cs),
(866,419,o),
(782,484,o),
(643,484,c),
(633,431,l),
(744,430,o),
(806,387,o),
(806,317,cs),
(806,246,o),
(762,185,o),
(669,185,cs),
(526,185,o),
(415,342,o),
(247,342,cs),
(126,342,o),
(56,259,o),
(56,155,cs),
(56,53,o),
(140,-12,o),
(277,-13,c)
);
}
);
width = 922;
}
);
metricLeft = "ke-canadian";
metricRight = "=|ke-canadian";
note = uni1513;
unicode = 5395;
},
{
glyphname = "sha-canadian";
lastChange = "2023-01-13 15:55:03 +0000";
layers = (
{
anchors = (
{
name = top_center_can;
pos = (515,490);
},
{
name = top_left_can;
pos = (326,490);
},
{
name = top_right_can;
pos = (702,490);
}
);
layerId = "DE93BBBF-E17B-48DE-A6AB-0C4E62D4ADD4";
shapes = (
{
closed = 1;
nodes = (
(713,-14,o),
(839,53,o),
(839,196,cs),
(839,283,o),
(779,342,o),
(676,342,cs),
(526,342,o),
(379,185,o),
(251,185,cs),
(182,185,o),
(141,221,o),
(141,279,cs),
(141,384,o),
(233,431,o),
(351,431,c),
(361,484,l),
(209,487,o),
(81,419,o),
(81,276,cs),
(81,189,o),
(143,129,o),
(244,129,cs),
(395,129,o),
(542,287,o),
(669,287,cs),
(740,287,o),
(780,251,o),
(780,193,cs),
(780,88,o),
(689,41,o),
(570,42,c),
(558,-13,l)
);
}
);
width = 921;
}
);
metricLeft = "ke-canadian";
metricRight = "=|ke-canadian";
note = uni1515;
unicode = 5397;
},
{
glyphname = "sh-canadian";
kernLeft = mwestleft;
kernRight = mwestright;
lastChange = "2023-01-13 15:55:06 +0000";
layers = (
{
layerId = "DE93BBBF-E17B-48DE-A6AB-0C4E62D4ADD4";
shapes = (
{
closed = 1;
nodes = (
(590,286,o),
(687,344,o),
(687,456,cs),
(687,523,o),
(640,569,o),
(561,569,cs),
(451,569,o),
(356,463,o),
(260,463,cs),
(209,463,o),
(179,490,o),
(179,534,cs),
(179,615,o),
(248,658,o),
(345,655,c),
(354,697,l),
(230,702,o),
(132,644,o),
(132,531,cs),
(132,465,o),
(180,418,o),
(258,418,cs),
(369,418,o),
(465,526,o),
(559,526,cs),
(611,526,o),
(640,497,o),
(640,454,cs),
(640,374,o),
(573,329,o),
(475,332,c),
(468,291,l)
);
}
);
width = 709;
}
);
metricLeft = "t-canadian";
metricRight = "=|";
note = uni1525;
unicode = 5413;
},
{
glyphname = "ye-canadian";
kernLeft = yeleft;
lastChange = "2023-01-13 15:55:03 +0000";
layers = (
{
anchors = (
{
name = middle_right_can;
pos = (634,345);
},
{
name = top_left_can;
pos = (176,690);
},
{
name = top_right_can;
pos = (537,690);
}
);
layerId = "DE93BBBF-E17B-48DE-A6AB-0C4E62D4ADD4";
shapes = (
{
closed = 1;
nodes = (
(420,0,l),
(487,310,l),
(134,310,l),
(136,279,l),
(572,661,l),
(534,701,l),
(57,280,l),
(52,255,l),
(413,255,l),
(359,0,l)
);
}
);
width = 550;
}
);
note = uni1526;
unicode = 5414;
},
{
glyphname = "yi-canadian";
kernRight = yiright;
lastChange = "2023-01-13 15:55:03 +0000";
layers = (
{
anchors = (
{
name = top_left_can;
pos = (213,690);
},
{
name = top_right_can;
pos = (575,690);
}
);
layerId = "DE93BBBF-E17B-48DE-A6AB-0C4E62D4ADD4";
shapes = (
{
closed = 1;
nodes = (
(90,0,l),
(145,255,l),
(506,255,l),
(511,280,l),
(205,701,l),
(159,668,l),
(445,280,l),
(447,310,l),
(95,310,l),
(29,0,l)
);
}
);
width = 550;
}
);
metricRight = "=|ye-canadian";
metricWidth = "ye-canadian";
note = uni1528;
unicode = 5416;
},
{
glyphname = "yo-canadian";
kernLeft = yoleft;
lastChange = "2023-01-13 15:55:06 +0000";
layers = (
{
anchors = (
{
name = middle_right_can;
pos = (635,345);
},
{
name = top_double;
pos = (538,690);
},
{
name = top_left_can;
pos = (176,690);
},
{
name = top_right_can;
pos = (538,690);
}
);
layerId = "DE93BBBF-E17B-48DE-A6AB-0C4E62D4ADD4";
shapes = (
{
closed = 1;
nodes = (
(438,21,l),
(152,410,l),
(150,380,l),
(502,380,l),
(568,690,l),
(506,690,l),
(452,435,l),
(91,435,l),
(85,410,l),
(392,-12,l)
);
}
);
width = 550;
}
);
metricLeft = "ye-canadian";
metricWidth = "ye-canadian";
note = uni152A;
unicode = 5418;
},
{
glyphname = "ya-canadian";
kernRight = yaright;
lastChange = "2023-01-13 15:55:03 +0000";
layers = (
{
anchors = (
{
name = top_left_can;
pos = (206,690);
},
{
name = top_right_can;
pos = (567,690);
}
);
layerId = "DE93BBBF-E17B-48DE-A6AB-0C4E62D4ADD4";
shapes = (
{
closed = 1;
nodes = (
(539,410,l),
(544,435,l),
(183,435,l),
(237,690,l),
(175,690,l),
(109,380,l),
(462,380,l),
(459,411,l),
(23,29,l),
(62,-12,l)
);
}
);
width = 550;
}
);
metricRight = "=|ye-canadian";
metricWidth = "ye-canadian";
note = uni152D;
unicode = 5421;
},
{
glyphname = "y-canadian";
kernLeft = mwestleft;
kernRight = mwestright;
lastChange = "2023-01-13 15:55:03 +0000";
layers = (
{
layerId = "DE93BBBF-E17B-48DE-A6AB-0C4E62D4ADD4";
shapes = (
{
closed = 1;
nodes = (
(358,546,l),
(361,562,l),
(185,562,l),
(212,690,l),
(166,690,l),
(130,524,l),
(308,524,l),
(302,550,l),
(96,366,l),
(124,336,l)
);
}
);
width = 334;
}
);
note = uni153E;
unicode = 5438;
},
{
glyphname = "biblecreey-canadian";
lastChange = "2023-01-13 15:55:06 +0000";
layers = (
{
layerId = "DE93BBBF-E17B-48DE-A6AB-0C4E62D4ADD4";
shapes = (
{
closed = 1;
nodes = (
(127,345,l),
(257,639,l),
(231,639,l),
(264,345,l),
(290,345,l),
(448,639,l),
(420,639,l),
(428,345,l),
(468,345,l),
(470,357,l),
(463,690,l),
(433,690,l),
(272,393,l),
(298,393,l),
(266,690,l),
(236,690,l),
(86,357,l),
(83,345,l)
);
}
);
width = 505;
}
);
metricRight = "=|";
note = uni153F;
unicode = 5439;
},
{
glyphname = "yWestCree-canadian";
lastChange = "2023-01-13 15:55:06 +0000";
layers = (
{
layerId = "DE93BBBF-E17B-48DE-A6AB-0C4E62D4ADD4";
shapes = (
{
closed = 1;
nodes = (
(236,193,l),
(266,334,l),
(398,334,l),
(407,378,l),
(275,378,l),
(304,517,l),
(259,517,l),
(230,378,l),
(97,378,l),
(87,334,l),
(220,334,l),
(190,193,l)
);
}
);
width = 443;
}
);
metricLeft = "shorthorizontalstrokeFinal-canadian";
metricRight = "shorthorizontalstrokeFinal-canadian";
note = uni1540;
unicode = 5440;
},
{
glyphname = "re-canadian";
kernRight = niright;
lastChange = "2023-01-13 15:55:06 +0000";
layers = (
{
anchors = (
{
name = top_center_can;
pos = (343,490);
},
{
name = top_left_can;
pos = (161,490);
},
{
name = top_right_can;
pos = (791,490);
}
);
layerId = "DE93BBBF-E17B-48DE-A6AB-0C4E62D4ADD4";
shapes = (
{
closed = 1;
nodes = (
(385,-13,o),
(464,63,o),
(497,217,cs),
(540,416,l),
(808,416,l),
(819,472,l),
(491,472,l),
(438,220,ls),
(411,99,o),
(355,43,o),
(266,43,cs),
(158,43,o),
(111,109,o),
(137,231,cs),
(189,472,l),
(128,472,l),
(77,238,ls),
(44,84,o),
(117,-13,o),
(262,-13,cs)
);
}
);
width = 832;
}
);
metricRight = "=|ne-canadian";
note = uni1542;
unicode = 5442;
},
{
glyphname = "reRCree-canadian";
kernLeft = neleft;
lastChange = "2023-01-13 15:55:03 +0000";
layers = (
{
anchors = (
{
name = top_center_can;
pos = (595,490);
},
{
name = top_left_can;
pos = (147,490);
},
{
name = top_right_can;
pos = (777,490);
}
);
layerId = "DE93BBBF-E17B-48DE-A6AB-0C4E62D4ADD4";
shapes = (
{
closed = 1;
nodes = (
(638,-13,o),
(717,63,o),
(750,217,cs),
(804,472,l),
(742,472,l),
(689,220,ls),
(662,99,o),
(607,43,o),
(517,43,cs),
(410,43,o),
(362,109,o),
(388,231,cs),
(440,472,l),
(112,472,l),
(100,416,l),
(368,416,l),
(329,238,ls),
(297,84,o),
(370,-13,o),
(514,-13,cs)
);
}
);
width = 831;
}
);
metricLeft = "ne-canadian";
metricRight = "=|re-canadian";
note = uni1543;
unicode = 5443;
},
{
glyphname = "leWestCree-canadian";
kernLeft = noleft;
lastChange = "2023-01-13 15:55:06 +0000";
layers = (
{
anchors = (
{
name = top_center_can;
pos = (596,490);
},
{
name = top_left_can;
pos = (147,490);
},
{
name = top_right_can;
pos = (778,490);
}
);
layerId = "DE93BBBF-E17B-48DE-A6AB-0C4E62D4ADD4";
shapes = (
{
closed = 1;
nodes = (
(341,0,l),
(394,251,ls),
(420,373,o),
(476,430,o),
(566,430,cs),
(673,430,o),
(720,363,o),
(695,242,cs),
(642,0,l),
(704,0,l),
(754,235,ls),
(787,388,o),
(714,484,o),
(570,484,cs),
(446,484,o),
(367,410,o),
(334,255,cs),
(292,56,l),
(24,56,l),
(13,0,l)
);
}
);
width = 831;
}
);
metricLeft = "ne-canadian";
metricRight = "=|re-canadian";
note = uni1544;
unicode = 5444;
},
{
glyphname = "ri-canadian";
kernRight = naright;
lastChange = "2023-01-13 15:55:03 +0000";
layers = (
{
anchors = (
{
name = top_center_can;
pos = (344,490);
},
{
name = top_left_can;
pos = (162,490);
},
{
name = top_right_can;
pos = (792,490);
}
);
layerId = "DE93BBBF-E17B-48DE-A6AB-0C4E62D4ADD4";
shapes = (
{
closed = 1;
nodes = (
(89,0,l),
(142,251,ls),
(168,373,o),
(224,430,o),
(320,430,cs),
(421,430,o),
(468,362,o),
(442,242,cs),
(390,0,l),
(719,0,l),
(730,56,l),
(463,56,l),
(501,235,ls),
(534,388,o),
(461,484,o),
(323,484,cs),
(193,484,o),
(114,410,o),
(81,255,cs),
(27,0,l)
);
}
);
width = 831;
}
);
metricLeft = "re-canadian";
metricRight = "=|ne-canadian";
note = uni1546;
unicode = 5446;
},
{
glyphname = "ro-canadian";
lastChange = "2023-01-13 15:55:03 +0000";
layers = (
{
anchors = (
{
name = top_center_can;
pos = (321,690);
}
);
layerId = "DE93BBBF-E17B-48DE-A6AB-0C4E62D4ADD4";
shapes = (
{
closed = 1;
nodes = (
(91,0,l),
(151,283,l),
(118,255,l),
(233,255,ls),
(412,255,o),
(508,366,o),
(508,510,cs),
(508,619,o),
(435,690,o),
(315,690,cs),
(177,690,l),
(165,634,l),
(305,634,ls),
(396,634,o),
(448,586,o),
(448,508,cs),
(448,396,o),
(373,311,o),
(240,311,cs),
(96,311,l),
(30,0,l)
);
}
);
width = 521;
}
);
metricLeft = "nunavuth-canadian";
note = uni1548;
unicode = 5448;
},
{
glyphname = "loWestCree-canadian";
lastChange = "2023-01-13 15:55:03 +0000";
layers = (
{
anchors = (
{
name = top_center_can;
pos = (349,690);
},
{
name = top_left_can;
pos = (209,690);
}
);
layerId = "DE93BBBF-E17B-48DE-A6AB-0C4E62D4ADD4";
shapes = (
{
closed = 1;
nodes = (
(180,0,ls),
(358,0,o),
(455,111,o),
(455,255,cs),
(455,363,o),
(382,435,o),
(262,435,cs),
(156,435,l),
(179,405,l),
(239,690,l),
(177,690,l),
(111,379,l),
(252,379,ls),
(343,379,o),
(395,331,o),
(395,253,cs),
(395,141,o),
(320,56,o),
(186,56,cs),
(43,56,l),
(31,0,l)
);
}
);
width = 522;
}
);
metricLeft = "nunavuth-canadian";
metricRight = "ro-canadian";
note = uni154A;
unicode = 5450;
},
{
glyphname = "ra-canadian";
lastChange = "2023-01-13 15:55:07 +0000";
layers = (
{
anchors = (
{
name = top_center_can;
pos = (392,690);
},
{
name = top_right_can;
pos = (506,690);
}
);
layerId = "DE93BBBF-E17B-48DE-A6AB-0C4E62D4ADD4";
shapes = (
{
closed = 1;
nodes = (
(390,0,l),
(456,311,l),
(316,311,ls),
(225,311,o),
(173,358,o),
(173,437,cs),
(173,549,o),
(248,634,o),
(382,634,cs),
(526,634,l),
(537,690,l),
(388,690,ls),
(210,690,o),
(113,579,o),
(113,435,cs),
(113,327,o),
(186,255,o),
(306,255,cs),
(412,255,l),
(389,285,l),
(328,0,l)
);
}
);
width = 521;
}
);
metricLeft = "=|ro-canadian";
metricRight = "nunavuth-canadian";
note = uni154B;
unicode = 5451;
},
{
glyphname = "laWestCree-canadian";
lastChange = "2023-01-13 15:55:07 +0000";
layers = (
{
anchors = (
{
name = top_center_can;
pos = (507,690);
}
);
layerId = "DE93BBBF-E17B-48DE-A6AB-0C4E62D4ADD4";
shapes = (
{
closed = 1;
nodes = (
(390,0,l),
(402,56,l),
(263,56,ls),
(172,56,o),
(120,103,o),
(120,182,cs),
(120,294,o),
(195,379,o),
(327,379,cs),
(471,379,l),
(538,690,l),
(476,690,l),
(416,407,l),
(450,435,l),
(335,435,ls),
(156,435,o),
(59,324,o),
(59,180,cs),
(59,71,o),
(133,0,o),
(253,0,cs)
);
}
);
width = 521;
}
);
metricLeft = "=|ro-canadian";
metricRight = "nunavuth-canadian";
note = uni154D;
unicode = 5453;
},
{
glyphname = "r-canadian";
kernLeft = mwestleft;
kernRight = mwestright;
lastChange = "2023-01-13 15:55:06 +0000";
layers = (
{
layerId = "DE93BBBF-E17B-48DE-A6AB-0C4E62D4ADD4";
shapes = (
{
closed = 1;
nodes = (
(273,345,l),
(308,509,l),
(241,509,ls),
(195,509,o),
(174,527,o),
(174,563,cs),
(174,615,o),
(202,651,o),
(270,651,cs),
(338,651,l),
(347,690,l),
(278,690,ls),
(185,690,o),
(131,644,o),
(131,562,cs),
(131,507,o),
(168,470,o),
(234,470,cs),
(280,470,l),
(258,490,l),
(228,345,l)
);
}
);
width = 318;
}
);
metricLeft = "=|k-canadian";
note = uni1550;
unicode = 5456;
},
{
glyphname = "rWestCree-canadian";
kernLeft = mwestleft;
kernRight = mwestright;
lastChange = "2023-01-13 15:55:06 +0000";
layers = (
{
layerId = "DE93BBBF-E17B-48DE-A6AB-0C4E62D4ADD4";
shapes = (
{
closed = 1;
nodes = (
(165,690,l),
(159,661,l),
(338,584,l),
(343,606,l),
(131,531,l),
(128,508,l),
(306,435,l),
(311,457,l),
(100,379,l),
(92,345,l),
(102,345,l),
(344,433,l),
(349,452,l),
(166,526,l),
(162,508,l),
(376,582,l),
(381,602,l),
(176,690,l)
);
}
);
width = 371;
}
);
metricLeft = "=|lWestCree-canadian";
metricRight = "=|lWestCree-canadian";
note = uni1551;
unicode = 5457;
},
{
glyphname = "rMedial-canadian";
lastChange = "2023-01-13 15:55:06 +0000";
layers = (
{
layerId = "DE93BBBF-E17B-48DE-A6AB-0C4E62D4ADD4";
shapes = (
{
closed = 1;
nodes = (
(41,-13,l),
(545,169,l),
(551,199,l),
(157,356,l),
(153,332,l),
(612,492,l),
(618,521,l),
(191,702,l),
(173,702,l),
(164,661,l),
(555,495,l),
(561,525,l),
(101,364,l),
(95,332,l),
(487,176,l),
(493,203,l),
(32,38,l),
(21,-13,l)
);
}
);
width = 633;
}
);
metricLeft = "mediall-canadian";
metricRight = "mediall-canadian";
note = uni1552;
unicode = 5458;
},
{
glyphname = "fe-canadian";
kernLeft = ecanleft;
kernRight = ecanright;
lastChange = "2023-01-13 15:55:06 +0000";
layers = (
{
layerId = "DE93BBBF-E17B-48DE-A6AB-0C4E62D4ADD4";
shapes = (
{
closed = 1;
nodes = (
(320,0,l),
(789,670,l),
(793,690,l),
(738,690,l),
(308,66,l),
(321,66,l),
(228,367,l),
(197,363,l),
(219,336,o),
(250,322,o),
(290,322,cs),
(416,322,o),
(471,461,o),
(471,554,cs),
(471,641,o),
(421,702,o),
(334,702,cs),
(207,702,o),
(152,569,o),
(152,468,cs),
(152,432,o),
(158,397,o),
(172,358,cs),
(292,0,l)
);
},
{
closed = 1;
nodes = (
(236,367,o),
(204,406,o),
(204,472,cs),
(204,536,o),
(236,654,o),
(331,654,cs),
(387,654,o),
(420,614,o),
(420,552,cs),
(420,485,o),
(388,367,o),
(291,367,cs)
);
}
);
width = 732;
}
);
metricRight = "e-canadian";
note = uni1553;
unicode = 5459;
},
{
glyphname = "fi-canadian";
kernLeft = icanleft;
kernRight = icanright;
lastChange = "2023-01-13 15:55:03 +0000";
layers = (
{
anchors = (
{
name = top_center_can;
pos = (449,690);
},
{
name = top_left_can;
pos = (220,690);
},
{
name = top_right_can;
pos = (708,690);
}
);
layerId = "DE93BBBF-E17B-48DE-A6AB-0C4E62D4ADD4";
shapes = (
{
closed = 1;
nodes = (
(350,-13,o),
(400,127,o),
(400,217,cs),
(400,307,o),
(350,369,o),
(270,369,cs),
(242,369,o),
(214,359,o),
(189,339,c),
(223,335,l),
(446,624,l),
(429,625,l),
(600,0,l),
(647,0,l),
(651,19,l),
(464,690,l),
(436,690,l),
(155,335,ls),
(109,277,o),
(81,211,o),
(81,137,cs),
(81,47,o),
(133,-13,o),
(218,-13,cs)
);
},
{
closed = 1;
nodes = (
(164,36,o),
(133,74,o),
(133,140,cs),
(133,205,o),
(165,323,o),
(261,323,cs),
(318,323,o),
(349,282,o),
(349,217,cs),
(349,151,o),
(317,36,o),
(220,36,cs)
);
}
);
width = 732;
}
);
metricLeft = "fe-canadian";
metricRight = "e-canadian";
note = uni1555;
unicode = 5461;
},
{
glyphname = "fo-canadian";
kernLeft = ocanleft;
kernRight = ocanright;
lastChange = "2023-01-13 15:55:06 +0000";
layers = (
{
anchors = (
{
name = top_center_can;
pos = (313,690);
}
);
layerId = "DE93BBBF-E17B-48DE-A6AB-0C4E62D4ADD4";
shapes = (
{
closed = 1;
nodes = (
(65,0,l),
(656,331,l),
(662,358,l),
(414,644,ls),
(383,681,o),
(345,702,o),
(297,702,cs),
(170,702,o),
(118,565,o),
(116,474,cs),
(114,382,o),
(166,320,o),
(249,320,cs),
(365,320,o),
(428,436,o),
(429,538,cs),
(430,568,o),
(425,594,o),
(416,615,c),
(396,587,l),
(602,348,l),
(606,361,l),
(57,55,l),
(45,0,l)
);
},
{
closed = 1;
nodes = (
(198,367,o),
(167,408,o),
(168,476,cs),
(169,543,o),
(201,654,o),
(296,654,cs),
(352,654,o),
(384,613,o),
(383,547,cs),
(382,478,o),
(351,367,o),
(255,367,cs)
);
}
);
width = 672;
}
);
metricRight = "o-canadian";
note = uni1557;
unicode = 5463;
},
{
glyphname = "fa-canadian";
kernLeft = acanleft;
kernRight = acanright;
lastChange = "2023-01-13 15:55:03 +0000";
layers = (
{
anchors = (
{
name = top_center_can;
pos = (552,690);
}
);
layerId = "DE93BBBF-E17B-48DE-A6AB-0C4E62D4ADD4";
shapes = (
{
closed = 1;
nodes = (
(526,0,l),
(535,46,l),
(117,354,l),
(115,337,l),
(423,590,l),
(408,623,l),
(373,578,o),
(356,515,o),
(356,468,cs),
(356,380,o),
(410,319,o),
(496,319,cs),
(618,319,o),
(672,457,o),
(672,550,cs),
(672,642,o),
(620,702,o),
(537,702,cs),
(497,702,o),
(459,687,o),
(421,655,cs),
(63,358,l),
(57,331,l),
(506,0,l)
);
},
{
closed = 1;
nodes = (
(438,367,o),
(406,406,o),
(406,471,cs),
(406,536,o),
(439,654,o),
(534,654,cs),
(590,654,o),
(622,614,o),
(622,551,cs),
(622,485,o),
(590,367,o),
(494,367,cs)
);
}
);
width = 671;
}
);
metricRight = "=|fo-canadian";
note = uni1559;
unicode = 5465;
},
{
glyphname = "f-canadian";
kernLeft = mwestleft;
kernRight = mwestright;
lastChange = "2023-01-13 15:55:03 +0000";
layers = (
{
layerId = "DE93BBBF-E17B-48DE-A6AB-0C4E62D4ADD4";
shapes = (
{
closed = 1;
nodes = (
(355,345,l),
(362,377,l),
(159,526,l),
(157,511,l),
(302,633,l),
(302,664,l),
(284,644,o),
(271,606,o),
(271,578,cs),
(271,534,o),
(298,504,o),
(339,504,cs),
(400,504,o),
(428,571,o),
(428,621,cs),
(428,668,o),
(403,696,o),
(362,696,cs),
(340,696,o),
(319,688,o),
(296,668,cs),
(124,526,l),
(121,509,l),
(343,345,l)
);
},
{
closed = 1;
nodes = (
(316,533,o),
(301,551,o),
(301,580,cs),
(301,619,o),
(323,667,o),
(360,667,cs),
(384,667,o),
(397,650,o),
(397,621,cs),
(397,582,o),
(377,533,o),
(340,533,cs)
);
}
);
width = 410;
}
);
note = uni155D;
unicode = 5469;
},
{
glyphname = "the-canadian";
lastChange = "2023-01-13 15:55:03 +0000";
layers = (
{
anchors = (
{
name = middle_right_can;
pos = (810,345);
},
{
name = top_center_can;
pos = (450,690);
},
{
name = top_left_can;
pos = (205,690);
},
{
name = top_right_can;
pos = (696,690);
}
);
layerId = "DE93BBBF-E17B-48DE-A6AB-0C4E62D4ADD4";
shapes = (
{
closed = 1;
nodes = (
(494,-13,o),
(590,79,o),
(631,266,cs),
(721,690,l),
(659,690,l),
(570,269,ls),
(536,115,o),
(461,44,o),
(326,44,cs),
(148,44,o),
(115,149,o),
(146,291,cs),
(176,433,l),
(153,420,l),
(159,366,o),
(199,316,o),
(268,316,cs),
(394,316,o),
(446,453,o),
(449,547,cs),
(451,639,o),
(401,702,o),
(314,702,cs),
(218,702,o),
(158,634,o),
(133,519,cs),
(87,298,ls),
(49,122,o),
(109,-13,o),
(325,-13,cs)
);
},
{
closed = 1;
nodes = (
(213,364,o),
(182,404,o),
(182,469,cs),
(182,534,o),
(213,654,o),
(310,654,cs),
(365,654,o),
(397,614,o),
(397,551,cs),
(397,484,o),
(366,364,o),
(269,364,cs)
);
}
);
width = 698;
}
);
metricLeft = "te-canadian";
metricRight = "te-canadian";
note = uni155E;
unicode = 5470;
},
{
glyphname = "theNCree-canadian";
lastChange = "2023-01-13 15:55:06 +0000";
layers = (
{
layerId = "DE93BBBF-E17B-48DE-A6AB-0C4E62D4ADD4";
shapes = (
{
closed = 1;
nodes = (
(494,-13,o),
(591,80,o),
(632,270,cs),
(676,483,ls),
(704,614,o),
(652,702,o),
(550,702,cs),
(422,702,o),
(367,567,o),
(367,467,cs),
(367,385,o),
(410,316,o),
(498,316,cs),
(551,316,o),
(596,345,o),
(620,393,c),
(601,412,l),
(571,269,ls),
(538,114,o),
(462,44,o),
(324,44,cs),
(168,44,o),
(112,128,o),
(147,292,cs),
(232,690,l),
(170,690,l),
(86,294,ls),
(43,98,o),
(132,-13,o),
(322,-13,cs)
);
},
{
closed = 1;
nodes = (
(450,364,o),
(419,404,o),
(419,469,cs),
(419,534,o),
(451,654,o),
(547,654,cs),
(602,654,o),
(634,614,o),
(634,551,cs),
(634,484,o),
(602,364,o),
(505,364,cs)
);
}
);
width = 698;
}
);
metricLeft = "te-canadian";
metricRight = "te-canadian";
note = uni155F;
unicode = 5471;
},
{
glyphname = "thi-canadian";
lastChange = "2023-01-13 15:55:03 +0000";
layers = (
{
anchors = (
{
name = top_center_can;
pos = (444,690);
}
);
layerId = "DE93BBBF-E17B-48DE-A6AB-0C4E62D4ADD4";
shapes = (
{
closed = 1;
nodes = (
(322,-13,o),
(377,123,o),
(377,223,cs),
(377,304,o),
(334,374,o),
(245,374,cs),
(193,374,o),
(148,345,o),
(124,297,c),
(143,278,l),
(173,421,ls),
(206,576,o),
(282,645,o),
(420,645,cs),
(576,645,o),
(632,561,o),
(597,398,cs),
(512,0,l),
(574,0,l),
(658,396,ls),
(699,592,o),
(611,702,o),
(422,702,cs),
(250,702,o),
(153,610,o),
(112,419,cs),
(68,207,ls),
(40,75,o),
(92,-13,o),
(194,-13,cs)
);
},
{
closed = 1;
nodes = (
(142,36,o),
(110,75,o),
(110,139,cs),
(110,206,o),
(142,326,o),
(239,326,cs),
(294,326,o),
(325,286,o),
(325,220,cs),
(325,156,o),
(293,36,o),
(197,36,cs)
);
}
);
width = 697;
}
);
metricLeft = "te-canadian";
metricRight = "te-canadian";
note = uni1560;
unicode = 5472;
},
{
glyphname = "thiNCree-canadian";
lastChange = "2023-01-13 15:55:06 +0000";
layers = (
{
anchors = (
{
name = top_center_can;
pos = (444,690);
}
);
layerId = "DE93BBBF-E17B-48DE-A6AB-0C4E62D4ADD4";
shapes = (
{
closed = 1;
nodes = (
(526,-13,o),
(585,56,o),
(611,171,cs),
(657,391,ls),
(695,568,o),
(635,702,o),
(419,702,cs),
(250,702,o),
(154,611,o),
(113,424,cs),
(23,0,l),
(85,0,l),
(174,421,ls),
(207,575,o),
(283,645,o),
(418,645,cs),
(596,645,o),
(629,541,o),
(598,399,cs),
(568,257,l),
(591,270,l),
(584,324,o),
(545,374,o),
(476,374,cs),
(350,374,o),
(298,237,o),
(295,143,cs),
(293,50,o),
(343,-13,o),
(430,-13,cs)
);
},
{
closed = 1;
nodes = (
(379,36,o),
(347,75,o),
(347,139,cs),
(347,206,o),
(379,326,o),
(475,326,cs),
(531,326,o),
(562,286,o),
(562,220,cs),
(562,156,o),
(530,36,o),
(434,36,cs)
);
}
);
width = 698;
}
);
metricLeft = "te-canadian";
metricRight = "te-canadian";
note = uni1561;
unicode = 5473;
},
{
glyphname = "tho-canadian";
lastChange = "2023-01-13 15:55:06 +0000";
layers = (
{
anchors = (
{
name = top_center_can;
pos = (396,690);
}
);
layerId = "DE93BBBF-E17B-48DE-A6AB-0C4E62D4ADD4";
shapes = (
{
closed = 1;
nodes = (
(223,0,ls),
(515,0,o),
(614,242,o),
(614,430,cs),
(614,596,o),
(521,702,o),
(374,702,cs),
(207,702,o),
(125,573,o),
(125,442,cs),
(125,354,o),
(175,294,o),
(258,294,cs),
(377,294,o),
(436,423,o),
(436,524,cs),
(436,611,o),
(384,667,o),
(302,663,c),
(299,641,l),
(315,651,o),
(340,656,o),
(370,656,cs),
(483,656,o),
(554,574,o),
(554,436,cs),
(554,296,o),
(496,56,o),
(228,56,cs),
(70,56,l),
(58,0,l)
);
},
{
closed = 1;
nodes = (
(207,341,o),
(176,380,o),
(176,443,cs),
(176,507,o),
(209,633,o),
(304,633,cs),
(358,633,o),
(388,594,o),
(388,531,cs),
(388,467,o),
(356,341,o),
(261,341,cs)
);
}
);
width = 650;
}
);
metricRight = "to-canadian";
note = uni1564;
unicode = 5476;
},
{
glyphname = "tha-canadian";
lastChange = "2023-01-13 15:55:07 +0000";
layers = (
{
anchors = (
{
name = top_center_can;
pos = (451,690);
}
);
layerId = "DE93BBBF-E17B-48DE-A6AB-0C4E62D4ADD4";
shapes = (
{
closed = 1;
nodes = (
(496,0,l),
(507,56,l),
(360,56,ls),
(219,56,o),
(143,130,o),
(143,267,cs),
(143,408,o),
(218,655,o),
(426,655,cs),
(465,655,o),
(503,646,o),
(531,630,c),
(511,660,l),
(387,677,o),
(319,550,o),
(319,440,cs),
(319,352,o),
(368,294,o),
(451,294,cs),
(569,294,o),
(633,419,o),
(633,526,cs),
(633,636,o),
(556,701,o),
(429,701,cs),
(181,701,o),
(82,439,o),
(82,262,cs),
(82,99,o),
(179,0,o),
(347,0,cs)
);
},
{
closed = 1;
nodes = (
(400,341,o),
(368,380,o),
(368,443,cs),
(368,507,o),
(401,633,o),
(496,633,cs),
(551,633,o),
(581,594,o),
(581,531,cs),
(581,467,o),
(549,341,o),
(453,341,cs)
);
}
);
width = 652;
}
);
metricLeft = "=|theCarrier-canadian";
metricRight = "=|tho-canadian";
note = uni1566;
unicode = 5478;
},
{
glyphname = "th-canadian";
kernLeft = mwestleft;
kernRight = mwestright;
lastChange = "2023-01-13 15:55:03 +0000";
layers = (
{
layerId = "DE93BBBF-E17B-48DE-A6AB-0C4E62D4ADD4";
shapes = (
{
closed = 1;
nodes = (
(329,345,l),
(338,384,l),
(265,384,ls),
(197,384,o),
(163,418,o),
(163,480,cs),
(163,547,o),
(200,665,o),
(298,665,cs),
(315,665,o),
(334,660,o),
(349,652,c),
(331,672,l),
(267,677,o),
(241,611,o),
(241,565,cs),
(241,521,o),
(267,492,o),
(307,492,cs),
(371,492,o),
(397,564,o),
(397,608,cs),
(397,662,o),
(360,696,o),
(296,696,cs),
(172,696,o),
(122,565,o),
(122,477,cs),
(122,394,o),
(172,345,o),
(256,345,cs)
);
},
{
closed = 1;
nodes = (
(283,521,o),
(270,537,o),
(270,565,cs),
(270,596,o),
(284,653,o),
(327,653,cs),
(353,653,o),
(367,637,o),
(367,609,cs),
(367,579,o),
(353,521,o),
(308,521,cs)
);
}
);
width = 382;
}
);
metricLeft = "t-canadian";
note = uni156A;
unicode = 5482;
},
{
glyphname = "tthe-canadian";
lastChange = "2023-01-13 15:55:06 +0000";
layers = (
{
anchors = (
{
name = middle_right_can;
pos = (797,345);
},
{
name = top_center_can;
pos = (440,690);
},
{
name = top_left_can;
pos = (201,690);
},
{
name = top_right_can;
pos = (681,690);
}
);
layerId = "DE93BBBF-E17B-48DE-A6AB-0C4E62D4ADD4";
shapes = (
{
closed = 1;
nodes = (
(484,-13,o),
(582,76,o),
(622,269,cs),
(712,690,l),
(652,690,l),
(562,270,ls),
(529,115,o),
(454,45,o),
(321,45,cs),
(170,45,o),
(110,126,o),
(146,291,cs),
(230,690,l),
(170,690,l),
(86,294,ls),
(43,97,o),
(132,-13,o),
(318,-13,cs)
);
},
{
closed = 1;
nodes = (
(403,391,l),
(467,690,l),
(415,690,l),
(352,391,l)
);
}
);
width = 688;
}
);
metricLeft = "te-canadian";
metricRight = "te-canadian";
note = uni156B;
unicode = 5483;
},
{
glyphname = "tthi-canadian";
lastChange = "2023-01-13 15:55:06 +0000";
layers = (
{
layerId = "DE93BBBF-E17B-48DE-A6AB-0C4E62D4ADD4";
shapes = (
{
closed = 1;
nodes = (
(83,0,l),
(173,420,ls),
(206,575,o),
(281,644,o),
(414,644,cs),
(564,644,o),
(625,564,o),
(589,399,cs),
(505,0,l),
(565,0,l),
(649,396,ls),
(692,593,o),
(603,702,o),
(417,702,cs),
(251,702,o),
(154,613,o),
(113,421,cs),
(23,0,l)
);
},
{
closed = 1;
nodes = (
(320,0,l),
(384,298,l),
(332,298,l),
(269,0,l)
);
}
);
width = 688;
}
);
metricLeft = "te-canadian";
metricRight = "te-canadian";
note = uni156C;
unicode = 5484;
},
{
glyphname = "ttho-canadian";
lastChange = "2023-01-13 15:55:06 +0000";
layers = (
{
anchors = (
{
name = top_center_can;
pos = (394,690);
},
{
name = top_left_can;
pos = (203,690);
},
{
name = top_right_can;
pos = (608,690);
}
);
layerId = "DE93BBBF-E17B-48DE-A6AB-0C4E62D4ADD4";
shapes = (
{
closed = 1;
nodes = (
(178,0,ls),
(487,0,o),
(570,263,o),
(570,434,cs),
(570,596,o),
(476,690,o),
(307,690,cs),
(176,690,l),
(164,634,l),
(299,634,ls),
(437,634,o),
(508,563,o),
(508,432,cs),
(508,289,o),
(442,56,o),
(185,56,cs),
(41,56,l),
(29,0,l)
);
},
{
closed = 1;
nodes = (
(325,320,l),
(335,371,l),
(108,371,l),
(98,320,l)
);
}
);
width = 605;
}
);
metricRight = "to-canadian";
note = uni156D;
unicode = 5485;
},
{
glyphname = "ttha-canadian";
lastChange = "2023-01-13 15:55:06 +0000";
layers = (
{
anchors = (
{
name = top_center_can;
pos = (410,690);
},
{
name = top_left_can;
pos = (192,690);
},
{
name = top_right_can;
pos = (590,690);
}
);
layerId = "DE93BBBF-E17B-48DE-A6AB-0C4E62D4ADD4";
shapes = (
{
closed = 1;
nodes = (
(476,0,l),
(488,56,l),
(352,56,ls),
(214,56,o),
(144,127,o),
(144,258,cs),
(144,403,o),
(210,634,o),
(467,634,cs),
(611,634,l),
(623,690,l),
(473,690,ls),
(165,690,o),
(82,428,o),
(82,256,cs),
(82,94,o),
(175,0,o),
(344,0,cs)
);
},
{
closed = 1;
nodes = (
(542,320,l),
(554,371,l),
(327,371,l),
(315,320,l)
);
}
);
width = 605;
}
);
metricLeft = "=|to-canadian";
metricRight = "=|ttho-canadian";
note = uni156E;
unicode = 5486;
},
{
glyphname = "tth-canadian";
lastChange = "2023-01-13 15:55:03 +0000";
layers = (
{
layerId = "DE93BBBF-E17B-48DE-A6AB-0C4E62D4ADD4";
shapes = (
{
closed = 1;
nodes = (
(278,489,l),
(262,489,l),
(327,358,l),
(365,378,l),
(296,512,l),
(288,496,l),
(446,550,l),
(434,586,l),
(283,535,l),
(296,527,l),
(330,690,l),
(289,690,l),
(254,526,l),
(270,534,l),
(134,586,l),
(120,550,l),
(250,499,l),
(248,516,l),
(128,386,l),
(157,358,l)
);
},
{
closed = 1;
nodes = (
(668,489,l),
(652,489,l),
(718,358,l),
(755,378,l),
(686,512,l),
(678,496,l),
(837,549,l),
(824,586,l),
(673,535,l),
(686,527,l),
(721,690,l),
(678,690,l),
(644,526,l),
(660,534,l),
(524,586,l),
(510,550,l),
(640,499,l),
(639,516,l),
(518,386,l),
(548,358,l)
);
}
);
width = 823;
}
);
metricRight = "=|";
note = uni156F;
unicode = 5487;
},
{
glyphname = "tye-canadian";
lastChange = "2023-01-13 15:55:06 +0000";
layers = (
{
layerId = "DE93BBBF-E17B-48DE-A6AB-0C4E62D4ADD4";
shapes = (
{
closed = 1;
nodes = (
(485,-13,o),
(582,79,o),
(622,268,cs),
(712,690,l),
(652,690,l),
(563,274,ls),
(530,116,o),
(454,45,o),
(321,45,cs),
(170,45,o),
(110,126,o),
(145,291,cs),
(230,690,l),
(170,690,l),
(86,294,ls),
(43,98,o),
(132,-13,o),
(319,-13,cs)
);
},
{
closed = 1;
nodes = (
(461,412,o),
(504,453,o),
(523,539,cs),
(554,690,l),
(519,690,l),
(488,545,ls),
(473,478,o),
(443,448,o),
(391,448,cs),
(337,448,o),
(319,478,o),
(333,547,cs),
(363,690,l),
(327,690,l),
(297,546,ls),
(279,461,o),
(314,412,o),
(390,412,cs)
);
}
);
width = 688;
}
);
metricLeft = "te-canadian";
metricRight = "te-canadian";
note = uni1570;
unicode = 5488;
},
{
glyphname = "tyi-canadian";
lastChange = "2023-01-13 15:55:06 +0000";
layers = (
{
layerId = "DE93BBBF-E17B-48DE-A6AB-0C4E62D4ADD4";
shapes = (
{
closed = 1;
nodes = (
(83,0,l),
(172,415,ls),
(205,574,o),
(281,644,o),
(414,644,cs),
(565,644,o),
(625,564,o),
(590,399,cs),
(505,0,l),
(565,0,l),
(649,396,ls),
(692,592,o),
(603,702,o),
(416,702,cs),
(250,702,o),
(154,611,o),
(113,422,cs),
(23,0,l)
);
},
{
closed = 1;
nodes = (
(216,0,l),
(247,145,ls),
(262,212,o),
(292,242,o),
(344,242,cs),
(398,242,o),
(416,212,o),
(402,143,cs),
(372,0,l),
(408,0,l),
(439,144,ls),
(456,229,o),
(421,278,o),
(344,278,cs),
(273,278,o),
(231,237,o),
(213,151,cs),
(181,0,l)
);
}
);
width = 688;
}
);
metricLeft = "te-canadian";
metricRight = "te-canadian";
note = uni1571;
unicode = 5489;
},
{
glyphname = "tyo-canadian";
lastChange = "2023-01-13 15:55:07 +0000";
layers = (
{
layerId = "DE93BBBF-E17B-48DE-A6AB-0C4E62D4ADD4";
shapes = (
{
closed = 1;
nodes = (
(178,0,ls),
(488,0,o),
(571,263,o),
(571,434,cs),
(571,596,o),
(476,690,o),
(307,690,cs),
(177,690,l),
(165,634,l),
(299,634,ls),
(437,634,o),
(509,563,o),
(509,432,cs),
(509,282,o),
(437,56,o),
(184,56,cs),
(43,56,l),
(31,0,l)
);
},
{
closed = 1;
nodes = (
(160,210,ls),
(274,210,o),
(324,286,o),
(326,368,cs),
(327,438,o),
(284,480,o),
(210,480,cs),
(132,480,l),
(125,442,l),
(201,442,ls),
(257,442,o),
(287,415,o),
(286,367,cs),
(286,309,o),
(253,247,o),
(165,247,cs),
(83,247,l),
(74,210,l)
);
}
);
width = 606;
}
);
metricLeft = "nunavuth-canadian";
metricRight = "theCarrier-canadian";
note = uni1572;
unicode = 5490;
},
{
glyphname = "tya-canadian";
lastChange = "2023-01-13 15:55:07 +0000";
layers = (
{
layerId = "DE93BBBF-E17B-48DE-A6AB-0C4E62D4ADD4";
shapes = (
{
closed = 1;
nodes = (
(475,0,l),
(487,56,l),
(354,56,ls),
(216,56,o),
(144,127,o),
(144,258,cs),
(144,408,o),
(217,634,o),
(469,634,cs),
(611,634,l),
(622,690,l),
(476,690,ls),
(166,690,o),
(82,427,o),
(82,256,cs),
(82,94,o),
(177,0,o),
(346,0,cs)
);
},
{
closed = 1;
nodes = (
(521,210,l),
(528,247,l),
(453,247,ls),
(397,247,o),
(367,274,o),
(367,323,cs),
(368,381,o),
(401,442,o),
(489,442,cs),
(570,442,l),
(578,480,l),
(493,480,ls),
(379,480,o),
(329,404,o),
(328,322,cs),
(327,252,o),
(370,210,o),
(444,210,cs)
);
}
);
width = 607;
}
);
metricLeft = "=|theCarrier-canadian";
metricRight = "nunavuth-canadian";
note = uni1573;
unicode = 5491;
},
{
glyphname = "heNunavik-canadian";
lastChange = "2023-01-13 15:55:03 +0000";
layers = (
{
layerId = "DE93BBBF-E17B-48DE-A6AB-0C4E62D4ADD4";
shapes = (
{
closed = 1;
nodes = (
(438,0,l),
(706,191,l),
(674,238,l),
(436,68,l),
(456,52,l),
(534,421,ls),
(563,556,o),
(520,702,o),
(356,702,cs),
(180,702,o),
(111,526,o),
(111,401,cs),
(111,281,o),
(182,206,o),
(292,206,cs),
(373,206,o),
(436,250,o),
(468,327,c),
(450,316,l),
(383,0,l)
);
},
{
closed = 1;
nodes = (
(220,259,o),
(171,313,o),
(171,402,cs),
(171,492,o),
(217,648,o),
(352,648,cs),
(435,648,o),
(483,594,o),
(483,504,cs),
(483,412,o),
(437,259,o),
(303,259,cs)
);
}
);
width = 745;
}
);
metricLeft = "ke-canadian";
note = uni1574;
unicode = 5492;
},
{
glyphname = "hiNunavik-canadian";
lastChange = "2023-01-13 15:55:03 +0000";
layers = (
{
anchors = (
{
name = top_center_can;
pos = (561,690);
}
);
layerId = "DE93BBBF-E17B-48DE-A6AB-0C4E62D4ADD4";
shapes = (
{
closed = 1;
nodes = (
(263,0,l),
(340,363,l),
(328,356,l),
(325,277,o),
(388,206,o),
(488,206,cs),
(661,206,o),
(726,384,o),
(726,504,cs),
(726,627,o),
(655,702,o),
(538,702,cs),
(418,702,o),
(333,623,o),
(303,482,cs),
(212,49,l),
(235,55,l),
(60,231,l),
(19,191,l),
(208,0,l)
);
},
{
closed = 1;
nodes = (
(403,259,o),
(355,313,o),
(355,403,cs),
(355,492,o),
(400,648,o),
(534,648,cs),
(618,648,o),
(667,595,o),
(667,505,cs),
(667,415,o),
(621,259,o),
(487,259,cs)
);
}
);
width = 745;
}
);
metricLeft = "=|heNunavik-canadian";
metricRight = "=|ke-canadian";
note = uni1575;
unicode = 5493;
},
{
glyphname = "hoNunavik-canadian";
lastChange = "2023-01-13 15:55:03 +0000";
layers = (
{
anchors = (
{
name = top_center_can;
pos = (378,690);
},
{
name = top_right_can;
pos = (560,690);
}
);
layerId = "DE93BBBF-E17B-48DE-A6AB-0C4E62D4ADD4";
shapes = (
{
closed = 1;
nodes = (
(374,-13,o),
(459,67,o),
(489,208,cs),
(581,640,l),
(557,635,l),
(731,459,l),
(772,498,l),
(584,690,l),
(529,690,l),
(452,327,l),
(463,333,l),
(468,412,o),
(404,484,o),
(303,484,cs),
(130,484,o),
(65,305,o),
(65,185,cs),
(65,63,o),
(136,-13,o),
(254,-13,cs)
);
},
{
closed = 1;
nodes = (
(174,42,o),
(125,95,o),
(125,185,cs),
(125,274,o),
(171,431,o),
(305,431,cs),
(388,431,o),
(437,377,o),
(437,287,cs),
(437,198,o),
(391,42,o),
(257,42,cs)
);
}
);
width = 745;
}
);
metricLeft = "ke-canadian";
metricRight = "heNunavik-canadian";
note = uni1577;
unicode = 5495;
},
{
glyphname = "haNunavik-canadian";
lastChange = "2023-01-13 15:55:03 +0000";
layers = (
{
anchors = (
{
name = top_center_can;
pos = (560,690);
},
{
name = top_left_can;
pos = (378,690);
}
);
layerId = "DE93BBBF-E17B-48DE-A6AB-0C4E62D4ADD4";
shapes = (
{
closed = 1;
nodes = (
(611,-13,o),
(681,163,o),
(681,289,cs),
(681,409,o),
(611,484,o),
(499,484,cs),
(418,484,o),
(356,440,o),
(325,363,c),
(342,374,l),
(409,690,l),
(355,690,l),
(85,498,l),
(117,452,l),
(356,622,l),
(336,638,l),
(258,269,ls),
(229,133,o),
(272,-13,o),
(436,-13,cs)
);
},
{
closed = 1;
nodes = (
(357,42,o),
(308,96,o),
(308,185,cs),
(308,278,o),
(355,431,o),
(489,431,cs),
(572,431,o),
(620,377,o),
(620,288,cs),
(620,198,o),
(575,42,o),
(440,42,cs)
);
}
);
width = 746;
}
);
metricLeft = "=|heNunavik-canadian";
metricRight = "=|ke-canadian";
note = uni1579;
unicode = 5497;
},
{
glyphname = "hNunavik-canadian";
kernLeft = mwestleft;
kernRight = mwestright;
lastChange = "2023-01-13 15:55:06 +0000";
layers = (
{
layerId = "DE93BBBF-E17B-48DE-A6AB-0C4E62D4ADD4";
shapes = (
{
closed = 1;
nodes = (
(396,339,o),
(443,428,o),
(443,499,cs),
(443,560,o),
(407,601,o),
(351,601,cs),
(312,601,o),
(280,582,o),
(261,550,c),
(268,541,l),
(299,690,l),
(257,690,l),
(122,594,l),
(144,563,l),
(268,651,l),
(249,669,l),
(210,484,ls),
(192,406,o),
(227,339,o),
(307,339,cs)
);
},
{
closed = 1;
nodes = (
(271,376,o),
(246,400,o),
(246,444,cs),
(246,500,o),
(278,564,o),
(338,564,cs),
(378,564,o),
(403,539,o),
(403,497,cs),
(403,440,o),
(370,376,o),
(310,376,cs)
);
}
);
width = 449;
}
);
metricRight = "k-canadian";
note = uni157B;
unicode = 5499;
},
{
color = 4;
glyphname = "nunavuth-canadian";
lastChange = "2023-01-13 15:55:06 +0000";
layers = (
{
layerId = "DE93BBBF-E17B-48DE-A6AB-0C4E62D4ADD4";
shapes = (
{
closed = 1;
nodes = (
(92,0,l),
(162,330,l),
(537,330,l),
(467,0,l),
(528,0,l),
(675,690,l),
(613,690,l),
(549,385,l),
(175,385,l),
(239,690,l),
(177,690,l),
(30,0,l)
);
}
);
width = 658;
}
);
metricRight = "=|";
note = uni157C;
unicode = 5500;
},
{
glyphname = "tlhe-canadian";
lastChange = "2023-01-13 15:55:03 +0000";
layers = (
{
anchors = (
{
name = top_center_can;
pos = (383,690);
}
);
layerId = "DE93BBBF-E17B-48DE-A6AB-0C4E62D4ADD4";
shapes = (
{
closed = 1;
nodes = (
(121,0,l),
(313,266,l),
(270,242,l),
(279,242,o),
(290,242,o),
(299,242,cs),
(371,242,o),
(431,274,o),
(467,335,c),
(463,350,l),
(388,0,l),
(449,0,l),
(545,449,ls),
(574,586,o),
(513,702,o),
(362,702,cs),
(206,702,o),
(120,566,o),
(120,429,cs),
(120,342,o),
(166,276,o),
(241,255,c),
(55,0,l)
);
},
{
closed = 1;
nodes = (
(229,296,o),
(180,350,o),
(180,435,cs),
(180,529,o),
(238,648,o),
(358,648,cs),
(445,648,o),
(492,597,o),
(492,515,cs),
(492,416,o),
(432,296,o),
(309,296,cs)
);
}
);
width = 573;
}
);
metricRight = "te-canadian";
note = uni1586;
unicode = 5510;
},
{
glyphname = "tlhi-canadian";
lastChange = "2023-01-13 15:55:06 +0000";
layers = (
{
layerId = "DE93BBBF-E17B-48DE-A6AB-0C4E62D4ADD4";
shapes = (
{
closed = 1;
nodes = (
(84,0,l),
(164,377,l),
(144,368,l),
(160,298,o),
(220,248,o),
(301,243,c),
(271,268,l),
(352,0,l),
(417,0,l),
(343,247,l),
(476,257,o),
(554,391,o),
(554,512,cs),
(554,626,o),
(480,702,o),
(360,702,cs),
(241,702,o),
(156,627,o),
(126,485,cs),
(23,0,l)
);
},
{
closed = 1;
nodes = (
(231,296,o),
(181,347,o),
(181,431,cs),
(181,527,o),
(239,648,o),
(360,648,cs),
(445,648,o),
(494,596,o),
(494,514,cs),
(494,417,o),
(436,296,o),
(315,296,cs)
);
}
);
width = 574;
}
);
metricLeft = "te-canadian";
metricRight = "=|tlhe-canadian";
note = uni1587;
unicode = 5511;
},
{
glyphname = "tlho-canadian";
lastChange = "2023-01-13 15:55:03 +0000";
layers = (
{
anchors = (
{
name = top_center_can;
pos = (402,690);
}
);
layerId = "DE93BBBF-E17B-48DE-A6AB-0C4E62D4ADD4";
shapes = (
{
closed = 1;
nodes = (
(379,-13,o),
(463,63,o),
(494,205,cs),
(597,690,l),
(535,690,l),
(456,313,l),
(475,322,l),
(459,392,o),
(399,441,o),
(318,446,c),
(348,422,l),
(268,690,l),
(202,690,l),
(276,442,l),
(144,433,o),
(66,298,o),
(66,178,cs),
(66,64,o),
(139,-13,o),
(259,-13,cs)
);
},
{
closed = 1;
nodes = (
(175,42,o),
(126,94,o),
(126,176,cs),
(126,272,o),
(184,394,o),
(304,394,cs),
(388,394,o),
(439,343,o),
(439,259,cs),
(439,162,o),
(381,42,o),
(260,42,cs)
);
}
);
width = 574;
}
);
metricLeft = "tlhe-canadian";
metricRight = "te-canadian";
note = uni1588;
unicode = 5512;
},
{
glyphname = "tlha-canadian";
lastChange = "2023-01-13 15:55:03 +0000";
layers = (
{
layerId = "DE93BBBF-E17B-48DE-A6AB-0C4E62D4ADD4";
shapes = (
{
closed = 1;
nodes = (
(413,-13,o),
(499,124,o),
(499,261,cs),
(499,348,o),
(453,413,o),
(379,435,c),
(564,690,l),
(498,690,l),
(306,424,l),
(350,447,l),
(340,448,o),
(329,448,o),
(320,448,cs),
(248,448,o),
(188,415,o),
(153,355,c),
(156,340,l),
(231,690,l),
(170,690,l),
(74,241,ls),
(45,103,o),
(106,-13,o),
(257,-13,cs)
);
},
{
closed = 1;
nodes = (
(175,42,o),
(128,93,o),
(128,175,cs),
(128,273,o),
(188,394,o),
(310,394,cs),
(390,394,o),
(440,340,o),
(440,255,cs),
(440,160,o),
(382,42,o),
(262,42,cs)
);
}
);
width = 573;
}
);
metricLeft = "te-canadian";
note = uni1589;
unicode = 5513;
},
{
glyphname = "reWestCree-canadian";
lastChange = "2023-01-13 15:55:03 +0000";
layers = (
{
layerId = "DE93BBBF-E17B-48DE-A6AB-0C4E62D4ADD4";
shapes = (
{
closed = 1;
nodes = (
(435,0,l),
(702,191,l),
(670,237,l),
(432,67,l),
(452,53,l),
(534,440,ls),
(567,596,o),
(497,702,o),
(355,702,cs),
(227,702,o),
(152,626,o),
(118,469,cs),
(100,391,l),
(162,391,l),
(178,467,ls),
(204,591,o),
(259,647,o),
(351,647,cs),
(458,647,o),
(500,571,o),
(474,448,cs),
(380,0,l)
);
}
);
width = 741;
}
);
metricLeft = "ce-canadian";
metricRight = "heNunavik-canadian";
note = uni158A;
unicode = 5514;
},
{
glyphname = "riWestCree-canadian";
lastChange = "2023-01-13 15:55:03 +0000";
layers = (
{
layerId = "DE93BBBF-E17B-48DE-A6AB-0C4E62D4ADD4";
shapes = (
{
closed = 1;
nodes = (
(262,0,l),
(360,467,ls),
(386,591,o),
(441,647,o),
(534,647,cs),
(641,647,o),
(685,570,o),
(657,448,cs),
(645,391,l),
(707,391,l),
(718,440,ls),
(752,596,o),
(680,702,o),
(538,702,cs),
(410,702,o),
(334,626,o),
(300,469,cs),
(212,50,l),
(235,57,l),
(62,233,l),
(19,191,l),
(207,0,l)
);
}
);
width = 742;
}
);
metricLeft = "=|heNunavik-canadian";
metricRight = "=|ce-canadian";
note = uni158B;
unicode = 5515;
},
{
glyphname = "roWestCree-canadian";
lastChange = "2023-01-13 15:55:06 +0000";
layers = (
{
layerId = "DE93BBBF-E17B-48DE-A6AB-0C4E62D4ADD4";
shapes = (
{
closed = 1;
nodes = (
(377,-13,o),
(453,64,o),
(487,220,cs),
(576,639,l),
(553,633,l),
(724,457,l),
(767,498,l),
(581,690,l),
(525,690,l),
(426,223,ls),
(400,99,o),
(345,43,o),
(253,43,cs),
(145,43,o),
(102,120,o),
(129,242,cs),
(142,298,l),
(80,298,l),
(70,249,ls),
(36,94,o),
(106,-13,o),
(248,-13,cs)
);
}
);
width = 740;
}
);
metricLeft = "ce-canadian";
metricRight = "heNunavik-canadian";
note = uni158C;
unicode = 5516;
},
{
glyphname = "raWestCree-canadian";
lastChange = "2023-01-13 15:55:03 +0000";
layers = (
{
layerId = "DE93BBBF-E17B-48DE-A6AB-0C4E62D4ADD4";
shapes = (
{
closed = 1;
nodes = (
(560,-13,o),
(636,64,o),
(669,220,cs),
(687,298,l),
(625,298,l),
(610,223,ls),
(583,99,o),
(528,43,o),
(437,43,cs),
(329,43,o),
(287,119,o),
(313,242,cs),
(408,690,l),
(353,690,l),
(85,498,l),
(117,453,l),
(355,623,l),
(335,637,l),
(253,249,ls),
(220,94,o),
(290,-13,o),
(432,-13,cs)
);
}
);
width = 741;
}
);
metricLeft = "=|heNunavik-canadian";
metricRight = "=|ce-canadian";
note = uni158D;
unicode = 5517;
},
{
glyphname = "ng-canadian";
kernLeft = mwestleft;
kernRight = mwestright;
lastChange = "2023-01-13 15:55:06 +0000";
layers = (
{
layerId = "DE93BBBF-E17B-48DE-A6AB-0C4E62D4ADD4";
shapes = (
{
closed = 1;
nodes = (
(533,217,o),
(581,261,o),
(600,341,cs),
(605,363,l),
(561,363,l),
(555,338,ls),
(543,283,o),
(513,256,o),
(467,256,cs),
(417,256,o),
(397,287,o),
(410,344,cs),
(438,477,l),
(297,477,l),
(300,458,l),
(344,481,o),
(364,543,o),
(364,585,cs),
(365,651,o),
(325,696,o),
(258,696,cs),
(173,696,o),
(128,616,o),
(127,546,cs),
(126,478,o),
(167,434,o),
(235,434,cs),
(399,434,l),
(386,452,l),
(365,351,ls),
(348,270,o),
(387,217,o),
(464,217,cs)
);
},
{
closed = 1;
nodes = (
(192,470,o),
(168,498,o),
(169,543,cs),
(169,587,o),
(192,660,o),
(258,660,cs),
(299,660,o),
(324,631,o),
(323,586,cs),
(323,543,o),
(299,470,o),
(234,470,cs)
);
}
);
width = 626;
}
);
metricLeft = "n-canadian";
metricRight = "c-canadian";
note = uni1595;
unicode = 5525;
},
{
glyphname = "nng-canadian";
kernLeft = mwestleft;
kernRight = mwestright;
lastChange = "2023-01-13 15:55:06 +0000";
layers = (
{
layerId = "DE93BBBF-E17B-48DE-A6AB-0C4E62D4ADD4";
shapes = (
{
closed = 1;
nodes = (
(811,217,o),
(859,261,o),
(876,341,cs),
(881,363,l),
(837,363,l),
(832,338,ls),
(819,283,o),
(789,256,o),
(744,256,cs),
(694,256,o),
(673,287,o),
(686,344,cs),
(715,477,l),
(576,477,l),
(578,458,l),
(622,481,o),
(642,546,o),
(642,588,cs),
(642,653,o),
(602,696,o),
(536,696,cs),
(450,696,o),
(405,615,o),
(405,542,cs),
(405,507,o),
(417,479,o),
(440,461,c),
(449,477,l),
(297,477,l),
(298,458,l),
(344,482,o),
(363,547,o),
(363,587,cs),
(363,653,o),
(323,696,o),
(258,696,cs),
(172,696,o),
(127,615,o),
(127,542,cs),
(127,476,o),
(167,434,o),
(233,434,cs),
(660,434,l),
(641,351,ls),
(624,270,o),
(665,217,o),
(741,217,cs)
);
},
{
closed = 1;
nodes = (
(191,470,o),
(167,498,o),
(167,541,cs),
(167,584,o),
(190,660,o),
(257,660,cs),
(298,660,o),
(323,632,o),
(323,589,cs),
(323,546,o),
(299,470,o),
(233,470,cs)
);
},
{
closed = 1;
nodes = (
(470,470,o),
(446,498,o),
(446,541,cs),
(446,584,o),
(469,660,o),
(536,660,cs),
(577,660,o),
(601,632,o),
(601,589,cs),
(601,546,o),
(579,470,o),
(511,470,cs)
);
}
);
width = 902;
}
);
metricLeft = "n-canadian";
metricRight = "c-canadian";
note = uni1596;
unicode = 5526;
},
{
glyphname = "sheSayisi-canadian";
lastChange = "2023-01-13 15:55:06 +0000";
layers = (
{
anchors = (
{
name = middle_right_can;
pos = (681,345);
},
{
name = top_center_can;
pos = (385,690);
}
);
layerId = "DE93BBBF-E17B-48DE-A6AB-0C4E62D4ADD4";
shapes = (
{
closed = 1;
nodes = (
(451,0,l),
(543,432,ls),
(574,580,o),
(525,702,o),
(368,702,cs),
(179,702,o),
(106,505,o),
(106,371,cs),
(106,270,o),
(154,207,o),
(239,207,cs),
(325,207,o),
(379,273,o),
(404,411,c),
(365,411,l),
(345,307,o),
(308,260,o),
(248,260,cs),
(194,260,o),
(165,299,o),
(165,370,cs),
(165,469,o),
(215,648,o),
(363,648,cs),
(477,648,o),
(507,555,o),
(481,434,cs),
(389,0,l)
);
}
);
width = 574;
}
);
metricLeft = "ke-canadian";
metricRight = "te-canadian";
note = uni1597;
unicode = 5527;
},
{
glyphname = "shiSayisi-canadian";
lastChange = "2023-01-13 15:55:06 +0000";
layers = (
{
layerId = "DE93BBBF-E17B-48DE-A6AB-0C4E62D4ADD4";
shapes = (
{
closed = 1;
nodes = (
(85,0,l),
(184,467,ls),
(209,586,o),
(270,648,o),
(360,648,cs),
(447,648,o),
(496,596,o),
(496,505,cs),
(496,428,o),
(454,260,o),
(354,260,cs),
(288,260,o),
(260,315,o),
(283,411,c),
(244,411,l),
(213,290,o),
(260,207,o),
(356,207,cs),
(498,207,o),
(554,399,o),
(554,505,cs),
(554,627,o),
(483,702,o),
(362,702,cs),
(239,702,o),
(155,622,o),
(125,476,cs),
(23,0,l)
);
}
);
width = 573;
}
);
metricLeft = "te-canadian";
metricRight = "=|ke-canadian";
note = uni1598;
unicode = 5528;
},
{
glyphname = "shoSayisi-canadian";
lastChange = "2023-01-13 15:55:06 +0000";
layers = (
{
anchors = (
{
name = top_center_can;
pos = (382,690);
},
{
name = top_left_can;
pos = (195,690);
},
{
name = top_right_can;
pos = (567,690);
}
);
layerId = "DE93BBBF-E17B-48DE-A6AB-0C4E62D4ADD4";
shapes = (
{
closed = 1;
nodes = (
(383,-13,o),
(465,68,o),
(496,213,cs),
(597,690,l),
(535,690,l),
(436,223,ls),
(411,103,o),
(351,42,o),
(260,42,cs),
(173,42,o),
(126,94,o),
(126,185,cs),
(126,262,o),
(166,430,o),
(267,430,cs),
(332,430,o),
(360,375,o),
(337,279,c),
(377,279,l),
(408,400,o),
(360,483,o),
(264,483,cs),
(122,483,o),
(66,291,o),
(66,185,cs),
(66,63,o),
(137,-13,o),
(258,-13,cs)
);
}
);
width = 574;
}
);
metricLeft = "ke-canadian";
metricRight = "te-canadian";
note = uni1599;
unicode = 5529;
},
{
glyphname = "shaSayisi-canadian";
lastChange = "2023-01-13 15:55:06 +0000";
layers = (
{
layerId = "DE93BBBF-E17B-48DE-A6AB-0C4E62D4ADD4";
shapes = (
{
closed = 1;
nodes = (
(441,-13,o),
(514,185,o),
(514,319,cs),
(514,420,o),
(467,483,o),
(383,483,cs),
(297,483,o),
(242,416,o),
(216,279,c),
(255,279,l),
(276,383,o),
(313,430,o),
(372,430,cs),
(426,430,o),
(455,390,o),
(455,320,cs),
(455,220,o),
(405,42,o),
(258,42,cs),
(143,42,o),
(113,134,o),
(139,256,cs),
(232,690,l),
(170,690,l),
(78,258,ls),
(46,110,o),
(96,-13,o),
(253,-13,cs)
);
}
);
width = 574;
}
);
metricLeft = "te-canadian";
metricRight = "=|ke-canadian";
note = uni159A;
unicode = 5530;
},
{
glyphname = "theWoodScree-canadian";
lastChange = "2023-01-13 15:55:03 +0000";
layers = (
{
layerId = "DE93BBBF-E17B-48DE-A6AB-0C4E62D4ADD4";
shapes = (
{
closed = 1;
nodes = (
(649,-13,o),
(730,146,o),
(730,274,cs),
(730,393,o),
(653,472,o),
(529,472,cs),
(122,472,l),
(111,419,l),
(449,419,l),
(450,443,l),
(326,410,o),
(285,275,o),
(285,187,cs),
(285,69,o),
(361,-13,o),
(482,-13,cs)
);
},
{
closed = 1;
nodes = (
(398,42,o),
(345,100,o),
(345,189,cs),
(345,289,o),
(404,418,o),
(529,418,cs),
(617,418,o),
(670,361,o),
(670,273,cs),
(670,176,o),
(613,42,o),
(484,42,cs)
);
},
{
closed = 1;
nodes = (
(805,637,l),
(815,690,l),
(168,690,l),
(157,637,l)
);
}
);
width = 801;
}
);
note = uni159B;
unicode = 5531;
},
{
glyphname = "thiWoodScree-canadian";
kernRight = niright;
lastChange = "2023-01-13 15:55:06 +0000";
layers = (
{
layerId = "DE93BBBF-E17B-48DE-A6AB-0C4E62D4ADD4";
shapes = (
{
closed = 1;
nodes = (
(432,-13,o),
(513,146,o),
(513,274,cs),
(513,343,o),
(483,397,o),
(436,424,c),
(426,419,l),
(767,419,l),
(778,472,l),
(322,472,ls),
(151,472,o),
(68,323,o),
(68,187,cs),
(68,69,o),
(144,-13,o),
(265,-13,cs)
);
},
{
closed = 1;
nodes = (
(181,42,o),
(127,100,o),
(127,189,cs),
(127,289,o),
(186,418,o),
(312,418,cs),
(400,418,o),
(453,361,o),
(453,273,cs),
(453,176,o),
(396,42,o),
(267,42,cs)
);
},
{
closed = 1;
nodes = (
(813,637,l),
(824,690,l),
(178,690,l),
(166,637,l)
);
}
);
width = 800;
}
);
metricLeft = "theWoodScree-canadian";
metricRight = "theWoodScree-canadian";
note = uni159C;
unicode = 5532;
},
{
glyphname = "thoWoodScree-canadian";
lastChange = "2023-01-13 15:55:03 +0000";
layers = (
{
layerId = "DE93BBBF-E17B-48DE-A6AB-0C4E62D4ADD4";
shapes = (
{
closed = 1;
nodes = (
(478,0,ls),
(649,0,o),
(732,150,o),
(732,285,cs),
(732,404,o),
(656,484,o),
(534,484,cs),
(368,484,o),
(287,327,o),
(287,198,cs),
(287,129,o),
(316,75,o),
(364,47,c),
(374,53,l),
(33,53,l),
(21,0,l)
);
},
{
closed = 1;
nodes = (
(399,54,o),
(347,111,o),
(347,199,cs),
(347,297,o),
(403,430,o),
(533,430,cs),
(619,430,o),
(671,372,o),
(671,283,cs),
(671,184,o),
(612,54,o),
(488,54,cs)
);
},
{
closed = 1;
nodes = (
(804,637,l),
(815,690,l),
(168,690,l),
(157,637,l)
);
}
);
width = 801;
}
);
metricLeft = "theWoodScree-canadian";
metricRight = "theWoodScree-canadian";
note = uni159D;
unicode = 5533;
},
{
glyphname = "thaWoodScree-canadian";
lastChange = "2023-01-13 15:55:06 +0000";
layers = (
{
layerId = "DE93BBBF-E17B-48DE-A6AB-0C4E62D4ADD4";
shapes = (
{
closed = 1;
nodes = (
(678,0,l),
(689,53,l),
(351,53,l),
(349,29,l),
(474,63,o),
(515,196,o),
(515,285,cs),
(515,404,o),
(438,484,o),
(318,484,cs),
(150,484,o),
(70,327,o),
(70,198,cs),
(70,79,o),
(146,0,o),
(270,0,cs)
);
},
{
closed = 1;
nodes = (
(182,54,o),
(129,111,o),
(129,199,cs),
(129,297,o),
(185,430,o),
(316,430,cs),
(402,430,o),
(454,372,o),
(454,283,cs),
(454,184,o),
(396,54,o),
(270,54,cs)
);
},
{
closed = 1;
nodes = (
(812,637,l),
(824,690,l),
(177,690,l),
(165,637,l)
);
}
);
width = 800;
}
);
metricLeft = "theWoodScree-canadian";
metricRight = "theWoodScree-canadian";
note = uni159E;
unicode = 5534;
},
{
glyphname = "thWoodScree-canadian";
lastChange = "2023-01-13 15:55:03 +0000";
layers = (
{
layerId = "DE93BBBF-E17B-48DE-A6AB-0C4E62D4ADD4";
shapes = (
{
closed = 1;
nodes = (
(451,345,l),
(460,385,l),
(278,385,l),
(275,362,l),
(333,381,o),
(355,454,o),
(355,498,cs),
(355,563,o),
(314,607,o),
(249,607,cs),
(163,607,o),
(118,526,o),
(118,453,cs),
(118,386,o),
(159,345,o),
(225,345,cs)
);
},
{
closed = 1;
nodes = (
(184,381,o),
(159,409,o),
(159,451,cs),
(159,495,o),
(183,570,o),
(249,570,cs),
(290,570,o),
(314,542,o),
(314,499,cs),
(314,457,o),
(292,381,o),
(224,381,cs)
);
},
{
closed = 1;
nodes = (
(520,676,l),
(528,717,l),
(175,717,l),
(165,676,l)
);
}
);
width = 496;
}
);
metricRight = "=|";
note = uni159F;
unicode = 5535;
},
{
glyphname = "lhi-canadian";
kernRight = niright;
lastChange = "2023-01-13 15:55:03 +0000";
layers = (
{
anchors = (
{
name = top_center_can;
pos = (558,690);
},
{
name = top_right_can;
pos = (643,690);
}
);
layerId = "DE93BBBF-E17B-48DE-A6AB-0C4E62D4ADD4";
shapes = (
{
closed = 1;
nodes = (
(299,0,l),
(311,55,l),
(275,55,ls),
(180,55,o),
(127,107,o),
(127,194,cs),
(127,293,o),
(178,415,o),
(350,415,cs),
(764,415,l),
(775,467,l),
(658,722,l),
(604,696,l),
(718,447,l),
(733,472,l),
(355,472,ls),
(144,472,o),
(66,327,o),
(66,193,cs),
(66,77,o),
(140,0,o),
(262,0,cs)
);
}
);
width = 788;
}
);
metricLeft = "ke-canadian";
metricRight = "=|ne-canadian";
note = uni15A0;
unicode = 5536;
},
{
glyphname = "lho-canadian";
kernLeft = noleft;
lastChange = "2023-01-13 15:55:06 +0000";
layers = (
{
anchors = (
{
name = top_center_can;
pos = (438,490);
},
{
name = top_right_can;
pos = (549,490);
}
);
layerId = "DE93BBBF-E17B-48DE-A6AB-0C4E62D4ADD4";
shapes = (
{
closed = 1;
nodes = (
(186,-224,l),
(72,24,l),
(55,0,l),
(434,0,ls),
(645,0,o),
(724,144,o),
(724,278,cs),
(724,394,o),
(648,471,o),
(527,471,cs),
(489,471,l),
(478,416,l),
(513,416,ls),
(609,416,o),
(663,364,o),
(663,278,cs),
(663,180,o),
(612,56,o),
(440,56,cs),
(24,56,l),
(14,6,l),
(130,-249,l)
);
}
);
width = 791;
}
);
metricLeft = "ne-canadian";
metricRight = "=|ke-canadian";
note = uni15A2;
unicode = 5538;
},
{
glyphname = "lha-canadian";
kernRight = naright;
lastChange = "2023-01-13 15:55:03 +0000";
layers = (
{
anchors = (
{
name = top_center_can;
pos = (462,490);
},
{
name = top_left_can;
pos = (350,490);
}
);
layerId = "DE93BBBF-E17B-48DE-A6AB-0C4E62D4ADD4";
shapes = (
{
closed = 1;
nodes = (
(676,6,l),
(688,56,l),
(279,56,ls),
(181,56,o),
(128,106,o),
(128,194,cs),
(128,293,o),
(176,416,o),
(347,416,cs),
(387,416,l),
(399,472,l),
(353,472,ls),
(138,472,o),
(66,322,o),
(66,191,cs),
(66,74,o),
(141,0,o),
(267,0,cs),
(632,0,l),
(618,24,l),
(409,-213,l),
(451,-249,l)
);
}
);
width = 788;
}
);
metricLeft = "ke-canadian";
metricRight = "=|ne-canadian";
note = uni15A4;
unicode = 5540;
},
{
glyphname = "lh-canadian";
kernLeft = mwestleft;
kernRight = mwestright;
lastChange = "2023-01-13 15:55:06 +0000";
layers = (
{
layerId = "DE93BBBF-E17B-48DE-A6AB-0C4E62D4ADD4";
shapes = (
{
closed = 1;
nodes = (
(459,350,l),
(468,387,l),
(265,387,ls),
(201,387,o),
(168,420,o),
(168,479,cs),
(168,550,o),
(199,647,o),
(317,647,cs),
(337,647,l),
(346,690,l),
(322,690,ls),
(184,690,o),
(123,587,o),
(123,477,cs),
(123,393,o),
(173,345,o),
(263,345,cs),
(431,345,l),
(417,371,l),
(302,238,l),
(336,208,l)
);
}
);
width = 501;
}
);
metricLeft = "t-canadian";
metricRight = "=|";
note = uni15A6;
unicode = 5542;
},
{
glyphname = "theThCree-canadian";
lastChange = "2023-01-13 15:55:03 +0000";
layers = (
{
anchors = (
{
name = top_left_can;
pos = (175,690);
},
{
name = top_right_can;
pos = (537,690);
}
);
layerId = "DE93BBBF-E17B-48DE-A6AB-0C4E62D4ADD4";
shapes = (
{
closed = 1;
nodes = (
(384,117,l),
(359,0,l),
(420,0,l),
(445,117,l),
(526,117,l),
(535,157,l),
(454,157,l),
(487,310,l),
(144,310,l),
(152,292,l),
(572,661,l),
(534,701,l),
(57,280,l),
(52,255,l),
(413,255,l),
(393,157,l),
(149,157,l),
(141,117,l)
);
}
);
width = 587;
}
);
metricLeft = "ye-canadian";
note = uni15A7;
unicode = 5543;
},
{
glyphname = "thiThCree-canadian";
kernRight = yiright;
lastChange = "2023-01-13 15:55:06 +0000";
layers = (
{
anchors = (
{
name = top_left_can;
pos = (243,690);
},
{
name = top_right_can;
pos = (605,690);
}
);
layerId = "DE93BBBF-E17B-48DE-A6AB-0C4E62D4ADD4";
shapes = (
{
closed = 1;
nodes = (
(127,0,l),
(153,117,l),
(396,117,l),
(405,157,l),
(160,157,l),
(182,255,l),
(543,255,l),
(548,280,l),
(241,701,l),
(196,668,l),
(474,288,l),
(487,310,l),
(131,310,l),
(99,157,l),
(18,157,l),
(10,117,l),
(90,117,l),
(66,0,l)
);
}
);
width = 587;
}
);
metricLeft = "=|theThCree-canadian";
metricRight = "=|ye-canadian";
note = uni15A8;
unicode = 5544;
},
{
glyphname = "thoThCree-canadian";
kernLeft = yoleft;
lastChange = "2023-01-13 15:55:06 +0000";
layers = (
{
anchors = (
{
name = top_left_can;
pos = (176,690);
},
{
name = top_right_can;
pos = (538,690);
}
);
layerId = "DE93BBBF-E17B-48DE-A6AB-0C4E62D4ADD4";
shapes = (
{
closed = 1;
nodes = (
(437,21,l),
(159,402,l),
(147,380,l),
(502,380,l),
(534,532,l),
(616,532,l),
(624,573,l),
(543,573,l),
(568,690,l),
(506,690,l),
(481,573,l),
(237,573,l),
(229,532,l),
(472,532,l),
(452,435,l),
(91,435,l),
(85,410,l),
(392,-12,l)
);
}
);
width = 588;
}
);
metricLeft = "ye-canadian";
metricRight = "theThCree-canadian";
note = uni15AA;
unicode = 5546;
},
{
glyphname = "thaThCree-canadian";
kernRight = yaright;
lastChange = "2023-01-13 15:55:06 +0000";
layers = (
{
anchors = (
{
name = top_left_can;
pos = (244,690);
},
{
name = top_right_can;
pos = (606,690);
}
);
layerId = "DE93BBBF-E17B-48DE-A6AB-0C4E62D4ADD4";
shapes = (
{
closed = 1;
nodes = (
(578,410,l),
(582,435,l),
(220,435,l),
(241,532,l),
(485,532,l),
(493,573,l),
(249,573,l),
(274,690,l),
(213,690,l),
(187,573,l),
(107,573,l),
(99,532,l),
(179,532,l),
(147,380,l),
(491,380,l),
(483,398,l),
(61,29,l),
(99,-12,l)
);
}
);
width = 589;
}
);
metricLeft = "=|theThCree-canadian";
metricRight = "=|ye-canadian";
note = uni15AC;
unicode = 5548;
},
{
glyphname = "thThCree-canadian";
kernLeft = mwestleft;
kernRight = mwestright;
lastChange = "2023-01-13 15:55:06 +0000";
layers = (
{
layerId = "DE93BBBF-E17B-48DE-A6AB-0C4E62D4ADD4";
shapes = (
{
closed = 1;
nodes = (
(178,612,l),
(158,524,l),
(329,524,l),
(322,542,l),
(124,366,l),
(152,336,l),
(385,546,l),
(389,562,l),
(213,562,l),
(223,612,l),
(342,612,l),
(348,639,l),
(228,639,l),
(240,690,l),
(193,690,l),
(183,639,l),
(142,639,l),
(136,612,l)
);
}
);
width = 362;
}
);
metricRight = "y-canadian";
note = uni15AE;
unicode = 5550;
},
{
glyphname = "bAivilik-canadian";
lastChange = "2023-01-13 15:55:03 +0000";
layers = (
{
layerId = "DE93BBBF-E17B-48DE-A6AB-0C4E62D4ADD4";
shapes = (
{
closed = 1;
nodes = (
(440,-13,o),
(511,162,o),
(511,289,cs),
(511,409,o),
(440,484,o),
(330,484,cs),
(250,484,o),
(191,440,o),
(160,373,c),
(169,363,l),
(239,690,l),
(177,690,l),
(31,0,l),
(90,0,l),
(119,138,l),
(111,127,l),
(121,41,o),
(180,-13,o),
(271,-13,cs)
);
},
{
closed = 1;
nodes = (
(187,42,o),
(139,96,o),
(139,185,cs),
(139,278,o),
(185,431,o),
(319,431,cs),
(403,431,o),
(451,377,o),
(451,288,cs),
(451,197,o),
(406,42,o),
(271,42,cs)
);
}
);
width = 576;
}
);
metricLeft = "nunavuth-canadian";
metricRight = "=|ke-canadian";
note = uni15AF;
unicode = 5551;
},
{
glyphname = "eBlackfoot-canadian";
lastChange = "2023-01-13 15:55:03 +0000";
layers = (
{
layerId = "DE93BBBF-E17B-48DE-A6AB-0C4E62D4ADD4";
shapes = (
{
closed = 1;
nodes = (
(92,0,l),
(181,418,l),
(205,377,o),
(249,353,o),
(305,353,cs),
(423,353,o),
(490,460,o),
(490,554,cs),
(490,640,o),
(434,702,o),
(346,702,cs),
(302,702,o),
(261,686,o),
(230,658,c),
(237,690,l),
(177,690,l),
(30,0,l)
);
}
);
width = 472;
}
);
metricLeft = "nunavuth-canadian";
note = uni15B0;
unicode = 5552;
},
{
glyphname = "iBlackfoot-canadian";
lastChange = "2023-01-13 15:55:06 +0000";
layers = (
{
layerId = "DE93BBBF-E17B-48DE-A6AB-0C4E62D4ADD4";
shapes = (
{
closed = 1;
nodes = (
(216,-13,o),
(258,4,o),
(288,32,c),
(281,0,l),
(341,0,l),
(488,690,l),
(426,690,l),
(337,271,l),
(314,313,o),
(269,337,o),
(213,337,cs),
(96,337,o),
(28,230,o),
(28,135,cs),
(28,49,o),
(85,-13,o),
(172,-13,cs)
);
}
);
width = 471;
}
);
metricLeft = "=|eBlackfoot-canadian";
metricRight = "nunavuth-canadian";
note = uni15B1;
unicode = 5553;
},
{
glyphname = "oBlackfoot-canadian";
lastChange = "2023-01-13 15:55:03 +0000";
layers = (
{
layerId = "DE93BBBF-E17B-48DE-A6AB-0C4E62D4ADD4";
shapes = (
{
closed = 1;
nodes = (
(344,-13,o),
(412,92,o),
(412,189,cs),
(412,275,o),
(356,337,o),
(270,337,cs),
(227,337,o),
(185,321,o),
(155,292,c),
(239,690,l),
(177,690,l),
(30,0,l),
(90,0,l),
(102,60,l),
(125,14,o),
(170,-13,o),
(228,-13,cs)
);
}
);
width = 472;
}
);
metricLeft = "nunavuth-canadian";
metricRight = "eBlackfoot-canadian";
note = uni15B2;
unicode = 5554;
},
{
glyphname = "aBlackfoot-canadian";
lastChange = "2023-01-13 15:55:03 +0000";
layers = (
{
layerId = "DE93BBBF-E17B-48DE-A6AB-0C4E62D4ADD4";
shapes = (
{
closed = 1;
nodes = (
(341,0,l),
(488,690,l),
(428,690,l),
(415,630,l),
(393,675,o),
(349,702,o),
(290,702,cs),
(174,702,o),
(106,598,o),
(106,500,cs),
(106,414,o),
(162,353,o),
(247,353,cs),
(292,353,o),
(333,369,o),
(364,398,c),
(279,0,l)
);
}
);
width = 471;
}
);
metricLeft = "=|eBlackfoot-canadian";
metricRight = "nunavuth-canadian";
note = uni15B3;
unicode = 5555;
},
{
glyphname = "weBlackfoot-canadian";
lastChange = "2023-01-13 15:55:03 +0000";
layers = (
{
layerId = "DE93BBBF-E17B-48DE-A6AB-0C4E62D4ADD4";
shapes = (
{
closed = 1;
nodes = (
(92,0,l),
(159,319,l),
(509,319,l),
(520,372,l),
(171,372,l),
(227,637,l),
(577,637,l),
(587,690,l),
(177,690,l),
(30,0,l)
);
}
);
width = 552;
}
);
metricLeft = "nunavuth-canadian";
note = uni15B4;
unicode = 5556;
},
{
glyphname = "wiBlackfoot-canadian";
lastChange = "2023-01-13 15:55:06 +0000";
layers = (
{
layerId = "DE93BBBF-E17B-48DE-A6AB-0C4E62D4ADD4";
shapes = (
{
closed = 1;
nodes = (
(421,0,l),
(568,690,l),
(506,690,l),
(439,371,l),
(89,371,l),
(78,318,l),
(427,318,l),
(371,53,l),
(21,53,l),
(11,0,l)
);
}
);
width = 551;
}
);
metricLeft = "=|weBlackfoot-canadian";
metricRight = "nunavuth-canadian";
note = uni15B5;
unicode = 5557;
},
{
glyphname = "woBlackfoot-canadian";
lastChange = "2023-01-13 15:55:03 +0000";
layers = (
{
layerId = "DE93BBBF-E17B-48DE-A6AB-0C4E62D4ADD4";
shapes = (
{
closed = 1;
nodes = (
(441,0,l),
(452,53,l),
(103,53,l),
(159,318,l),
(509,318,l),
(520,371,l),
(171,371,l),
(239,690,l),
(177,690,l),
(30,0,l)
);
}
);
width = 552;
}
);
metricLeft = "nunavuth-canadian";
metricRight = "weBlackfoot-canadian";
note = uni15B6;
unicode = 5558;
},
{
glyphname = "waBlackfoot-canadian";
lastChange = "2023-01-13 15:55:06 +0000";
layers = (
{
layerId = "DE93BBBF-E17B-48DE-A6AB-0C4E62D4ADD4";
shapes = (
{
closed = 1;
nodes = (
(422,0,l),
(569,690,l),
(157,690,l),
(147,637,l),
(496,637,l),
(440,372,l),
(91,372,l),
(79,319,l),
(428,319,l),
(360,0,l)
);
}
);
width = 552;
}
);
metricLeft = "=|weBlackfoot-canadian";
metricRight = "nunavuth-canadian";
note = uni15B7;
unicode = 5559;
},
{
glyphname = "neBlackfoot-canadian";
lastChange = "2023-01-13 15:55:03 +0000";
layers = (
{
layerId = "DE93BBBF-E17B-48DE-A6AB-0C4E62D4ADD4";
shapes = (
{
closed = 1;
nodes = (
(92,0,l),
(229,641,l),
(273,641,l),
(258,678,l),
(252,650,ls),
(221,506,o),
(294,408,o),
(435,408,cs),
(559,408,o),
(644,483,o),
(673,628,cs),
(687,690,l),
(626,690,l),
(613,631,ls),
(591,518,o),
(531,462,o),
(438,462,cs),
(335,462,o),
(288,531,o),
(311,639,cs),
(322,690,l),
(177,690,l),
(30,0,l)
);
}
);
width = 635;
}
);
metricLeft = "nunavuth-canadian";
note = uni15B8;
unicode = 5560;
},
{
glyphname = "niBlackfoot-canadian";
lastChange = "2023-01-13 15:55:06 +0000";
layers = (
{
layerId = "DE93BBBF-E17B-48DE-A6AB-0C4E62D4ADD4";
shapes = (
{
closed = 1;
nodes = (
(56,0,l),
(69,59,ls),
(91,172,o),
(152,228,o),
(244,228,cs),
(348,228,o),
(395,158,o),
(372,50,cs),
(361,0,l),
(505,0,l),
(652,690,l),
(590,690,l),
(454,48,l),
(409,48,l),
(425,12,l),
(431,40,ls),
(462,184,o),
(389,282,o),
(247,282,cs),
(123,282,o),
(39,207,o),
(9,62,cs),
(-5,0,l)
);
}
);
width = 635;
}
);
metricLeft = "=|neBlackfoot-canadian";
metricRight = "nunavuth-canadian";
note = uni15B9;
unicode = 5561;
},
{
glyphname = "noBlackfoot-canadian";
lastChange = "2023-01-13 15:55:03 +0000";
layers = (
{
layerId = "DE93BBBF-E17B-48DE-A6AB-0C4E62D4ADD4";
shapes = (
{
closed = 1;
nodes = (
(175,0,l),
(185,53,ls),
(211,171,o),
(266,228,o),
(359,228,cs),
(463,228,o),
(513,157,o),
(489,43,cs),
(480,0,l),
(541,0,l),
(548,36,ls),
(578,185,o),
(504,283,o),
(364,283,cs),
(239,283,o),
(157,205,o),
(125,52,cs),
(116,13,l),
(148,48,l),
(102,48,l),
(239,690,l),
(177,690,l),
(30,0,l)
);
}
);
width = 636;
}
);
metricLeft = "nunavuth-canadian";
metricRight = "neBlackfoot-canadian";
note = uni15BA;
unicode = 5562;
},
{
glyphname = "naBlackfoot-canadian";
lastChange = "2023-01-13 15:55:06 +0000";
layers = (
{
layerId = "DE93BBBF-E17B-48DE-A6AB-0C4E62D4ADD4";
shapes = (
{
closed = 1;
nodes = (
(505,0,l),
(652,690,l),
(508,690,l),
(497,637,ls),
(472,519,o),
(417,462,o),
(324,462,cs),
(219,462,o),
(170,532,o),
(194,646,cs),
(203,690,l),
(142,690,l),
(135,654,ls),
(105,505,o),
(179,407,o),
(319,407,cs),
(443,407,o),
(526,485,o),
(558,638,cs),
(566,677,l),
(535,641,l),
(581,641,l),
(443,0,l)
);
}
);
width = 635;
}
);
metricLeft = "=|neBlackfoot-canadian";
metricRight = "nunavuth-canadian";
note = uni15BB;
unicode = 5563;
},
{
glyphname = "keBlackfoot-canadian";
lastChange = "2023-01-13 15:55:03 +0000";
layers = (
{
layerId = "DE93BBBF-E17B-48DE-A6AB-0C4E62D4ADD4";
shapes = (
{
closed = 1;
nodes = (
(92,0,l),
(225,623,l),
(200,623,l),
(312,258,l),
(342,258,l),
(662,690,l),
(590,690,l),
(325,327,l),
(345,326,l),
(234,690,l),
(177,690,l),
(30,0,l)
);
}
);
width = 594;
}
);
metricLeft = "nunavuth-canadian";
note = uni15BC;
unicode = 5564;
},
{
glyphname = "kiBlackfoot-canadian";
lastChange = "2023-01-13 15:55:03 +0000";
layers = (
{
layerId = "DE93BBBF-E17B-48DE-A6AB-0C4E62D4ADD4";
shapes = (
{
closed = 1;
nodes = (
(51,0,l),
(317,362,l),
(297,364,l),
(407,0,l),
(464,0,l),
(611,690,l),
(549,690,l),
(416,67,l),
(440,67,l),
(328,432,l),
(298,432,l),
(-21,0,l)
);
}
);
width = 594;
}
);
metricLeft = "=|keBlackfoot-canadian";
metricRight = "nunavuth-canadian";
note = uni15BD;
unicode = 5565;
},
{
glyphname = "koBlackfoot-canadian";
lastChange = "2023-01-13 15:55:03 +0000";
layers = (
{
layerId = "DE93BBBF-E17B-48DE-A6AB-0C4E62D4ADD4";
shapes = (
{
closed = 1;
nodes = (
(89,0,l),
(367,369,l),
(335,374,l),
(452,0,l),
(515,0,l),
(379,432,l),
(348,432,l),
(79,67,l),
(106,67,l),
(239,690,l),
(177,690,l),
(30,0,l)
);
}
);
width = 594;
}
);
metricLeft = "nunavuth-canadian";
metricRight = "keBlackfoot-canadian";
note = uni15BE;
unicode = 5566;
},
{
glyphname = "kaBlackfoot-canadian";
lastChange = "2023-01-13 15:55:03 +0000";
layers = (
{
layerId = "DE93BBBF-E17B-48DE-A6AB-0C4E62D4ADD4";
shapes = (
{
closed = 1;
nodes = (
(464,1,l),
(611,691,l),
(553,691,l),
(274,321,l),
(306,317,l),
(189,691,l),
(126,691,l),
(262,259,l),
(293,259,l),
(561,624,l),
(535,624,l),
(402,1,l)
);
}
);
width = 594;
}
);
metricLeft = "=|keBlackfoot-canadian";
metricRight = "nunavuth-canadian";
note = uni15BF;
unicode = 5567;
},
{
color = 9;
glyphname = "heSayisi-canadian";
lastChange = "2023-01-13 15:55:06 +0000";
layers = (
{
anchors = (
{
name = top_right_can;
pos = (624,690);
}
);
layerId = "DE93BBBF-E17B-48DE-A6AB-0C4E62D4ADD4";
shapes = (
{
closed = 1;
nodes = (
(508,0,l),
(655,690,l),
(593,690,l),
(495,226,l),
(508,225,l),
(561,524,o),
(496,702,o),
(328,702,cs),
(219,702,o),
(147,627,o),
(114,482,cs),
(103,436,o),
(98,392,o),
(97,340,c),
(156,340,l),
(157,386,o),
(162,428,o),
(171,467,cs),
(197,585,o),
(252,647,o),
(334,647,cs),
(496,647,o),
(535,420,o),
(446,0,c)
);
}
);
width = 638;
}
);
metricRight = "nunavuth-canadian";
note = uni15C0;
unicode = 5568;
},
{
color = 9;
glyphname = "hiSayisi-canadian";
lastChange = "2023-01-13 15:55:06 +0000";
layers = (
{
layerId = "DE93BBBF-E17B-48DE-A6AB-0C4E62D4ADD4";
shapes = (
{
closed = 1;
nodes = (
(92,0,l),
(183,426,o),
(308,647,o),
(458,647,cs),
(550,647,o),
(588,567,o),
(559,434,cs),
(553,398,o),
(542,370,o),
(529,340,c),
(588,340,l),
(603,375,o),
(613,406,o),
(620,435,cs),
(653,598,o),
(595,702,o),
(472,702,cs),
(327,702,o),
(204,543,o),
(135,263,c),
(147,262,l),
(239,690,l),
(177,690,l),
(30,0,l)
);
}
);
width = 640;
}
);
metricLeft = "nunavuth-canadian";
metricRight = "=|heSayisi-canadian";
note = uni15C1;
unicode = 5569;
},
{
color = 9;
glyphname = "hoSayisi-canadian";
lastChange = "2023-01-13 15:55:03 +0000";
layers = (
{
anchors = (
{
name = top_center_can;
pos = (412,690);
},
{
name = top_left_can;
pos = (200,690);
},
{
name = top_right_can;
pos = (625,690);
}
);
layerId = "DE93BBBF-E17B-48DE-A6AB-0C4E62D4ADD4";
shapes = (
{
closed = 1;
nodes = (
(358,-13,o),
(482,147,o),
(551,427,c),
(539,428,l),
(447,0,l),
(509,0,l),
(656,690,l),
(594,690,l),
(503,264,o),
(378,43,o),
(228,43,cs),
(136,43,o),
(98,123,o),
(127,256,cs),
(133,292,o),
(144,320,o),
(156,350,c),
(98,350,l),
(83,315,o),
(72,284,o),
(66,255,cs),
(33,92,o),
(91,-13,o),
(213,-13,cs)
);
}
);
width = 639;
}
);
metricLeft = "heSayisi-canadian";
metricRight = "nunavuth-canadian";
note = uni15C2;
unicode = 5570;
},
{
color = 9;
glyphname = "haSayisi-canadian";
lastChange = "2023-01-13 15:55:03 +0000";
layers = (
{
layerId = "DE93BBBF-E17B-48DE-A6AB-0C4E62D4ADD4";
shapes = (
{
closed = 1;
nodes = (
(466,-13,o),
(538,63,o),
(571,208,cs),
(582,254,o),
(587,298,o),
(588,350,c),
(529,350,l),
(527,303,o),
(523,262,o),
(514,223,cs),
(488,104,o),
(433,43,o),
(351,43,cs),
(189,43,o),
(150,270,o),
(239,690,c),
(177,690,l),
(30,0,l),
(92,0,l),
(190,464,l),
(177,465,l),
(124,166,o),
(189,-13,o),
(356,-13,cs)
);
}
);
width = 639;
}
);
metricLeft = "nunavuth-canadian";
metricRight = "=|heSayisi-canadian";
note = uni15C3;
unicode = 5571;
},
{
color = 9;
glyphname = "ghuCarrier-canadian";
lastChange = "2023-01-13 15:55:06 +0000";
layers = (
{
layerId = "DE93BBBF-E17B-48DE-A6AB-0C4E62D4ADD4";
shapes = (
{
closed = 1;
nodes = (
(309,0,l),
(748,670,l),
(752,690,l),
(694,690,l),
(537,446,l),
(564,461,l),
(213,461,l),
(235,446,l),
(183,690,l),
(132,690,l),
(128,670,l),
(281,0,l)
);
},
{
closed = 1;
nodes = (
(534,412,l),
(525,425,l),
(296,68,l),
(319,64,l),
(240,426,l),
(224,412,l)
);
}
);
width = 691;
}
);
metricLeft = "e-canadian";
metricRight = "e-canadian";
note = uni15C4;
unicode = 5572;
},
{
color = 9;
glyphname = "ghoCarrier-canadian";
lastChange = "2023-01-13 15:55:06 +0000";
layers = (
{
layerId = "DE93BBBF-E17B-48DE-A6AB-0C4E62D4ADD4";
shapes = (
{
closed = 1;
nodes = (
(44,0,l),
(200,243,l),
(173,229,l),
(524,229,l),
(502,243,l),
(555,0,l),
(605,0,l),
(610,19,l),
(456,690,l),
(428,690,l),
(-11,19,l),
(-14,0,l)
);
},
{
closed = 1;
nodes = (
(510,293,l),
(212,294,l),
(221,266,l),
(444,607,l),
(410,610,l),
(489,263,l)
);
}
);
width = 691;
}
);
metricLeft = "e-canadian";
metricRight = "e-canadian";
note = uni15C5;
unicode = 5573;
},
{
color = 9;
glyphname = "gheCarrier-canadian";
lastChange = "2023-01-13 15:55:03 +0000";
layers = (
{
anchors = (
{
name = middle_center_can;
pos = (100,351);
}
);
layerId = "DE93BBBF-E17B-48DE-A6AB-0C4E62D4ADD4";
shapes = (
{
closed = 1;
nodes = (
(26,0,l),
(618,330,l),
(625,358,l),
(173,690,l),
(155,690,l),
(145,644,l),
(289,539,l),
(283,576,l),
(187,128,l),
(207,162,l),
(19,58,l),
(8,0,l)
);
},
{
closed = 1;
nodes = (
(326,549,l),
(307,531,l),
(574,334,l),
(576,364,l),
(232,173,l),
(242,154,l)
);
}
);
width = 635;
}
);
metricLeft = "po-canadian";
metricRight = "o-canadian";
note = uni15C6;
unicode = 5574;
},
{
color = 9;
glyphname = "ghaCarrier-canadian";
lastChange = "2023-01-13 15:55:03 +0000";
layers = (
{
layerId = "DE93BBBF-E17B-48DE-A6AB-0C4E62D4ADD4";
shapes = (
{
closed = 1;
nodes = (
(526,0,l),
(536,45,l),
(391,151,l),
(397,114,l),
(493,562,l),
(473,527,l),
(661,632,l),
(673,690,l),
(654,690,l),
(62,359,l),
(56,331,l),
(507,0,l)
);
},
{
closed = 1;
nodes = (
(374,158,l),
(109,354,l),
(108,327,l),
(448,517,l),
(438,532,l),
(355,146,l)
);
}
);
width = 634;
}
);
metricLeft = "=|o-canadian";
metricRight = "=|po-canadian";
note = uni15C9;
unicode = 5577;
},
{
color = 9;
glyphname = "ruCarrier-canadian";
lastChange = "2023-01-13 15:55:06 +0000";
layers = (
{
layerId = "DE93BBBF-E17B-48DE-A6AB-0C4E62D4ADD4";
shapes = (
{
closed = 1;
nodes = (
(309,0,l),
(748,670,l),
(752,690,l),
(694,690,l),
(631,594,l),
(660,608,l),
(182,608,l),
(203,593,l),
(182,690,l),
(132,690,l),
(128,670,l),
(281,0,l)
);
},
{
closed = 1;
nodes = (
(629,557,l),
(617,571,l),
(296,69,l),
(319,66,l),
(208,572,l),
(192,557,l)
);
}
);
width = 691;
}
);
metricLeft = "e-canadian";
metricRight = "e-canadian";
note = uni15CA;
unicode = 5578;
},
{
color = 9;
glyphname = "roCarrier-canadian";
lastChange = "2023-01-13 15:55:06 +0000";
layers = (
{
layerId = "DE93BBBF-E17B-48DE-A6AB-0C4E62D4ADD4";
shapes = (
{
closed = 1;
nodes = (
(428,690,l),
(-11,19,l),
(-14,0,l),
(44,0,l),
(106,96,l),
(78,82,l),
(555,82,l),
(534,97,l),
(555,0,l),
(605,0,l),
(610,19,l),
(456,690,l)
);
},
{
closed = 1;
nodes = (
(109,132,l),
(120,119,l),
(441,621,l),
(418,624,l),
(530,118,l),
(545,132,l)
);
}
);
width = 691;
}
);
metricLeft = "e-canadian";
metricRight = "e-canadian";
note = uni15CB;
unicode = 5579;
},
{
color = 9;
glyphname = "reCarrier-canadian";
lastChange = "2023-01-13 15:55:06 +0000";
layers = (
{
layerId = "DE93BBBF-E17B-48DE-A6AB-0C4E62D4ADD4";
shapes = (
{
closed = 1;
nodes = (
(26,0,l),
(619,331,l),
(625,358,l),
(173,690,l),
(155,690,l),
(145,645,l),
(215,594,l),
(208,632,l),
(89,71,l),
(109,105,l),
(19,55,l),
(8,0,l)
);
},
{
closed = 1;
nodes = (
(251,601,l),
(233,582,l),
(571,334,l),
(572,363,l),
(135,119,l),
(144,100,l)
);
}
);
width = 635;
}
);
metricLeft = "po-canadian";
metricRight = "o-canadian";
note = uni15CC;
unicode = 5580;
},
{
color = 9;
glyphname = "reeCarrier-canadian";
lastChange = "2023-01-13 15:55:06 +0000";
layers = (
{
layerId = "DE93BBBF-E17B-48DE-A6AB-0C4E62D4ADD4";
shapes = (
{
closed = 1;
nodes = (
(26,0,l),
(619,331,l),
(625,358,l),
(173,690,l),
(155,690,l),
(146,651,l),
(214,601,l),
(208,636,l),
(88,67,l),
(105,100,l),
(18,51,l),
(8,0,l)
);
},
{
closed = 1;
nodes = (
(248,611,l),
(228,593,l),
(582,335,l),
(583,363,l),
(129,110,l),
(138,91,l)
);
},
{
closed = 1;
nodes = (
(272,257,l),
(312,440,l),
(279,440,l),
(240,257,l)
);
}
);
width = 635;
}
);
metricLeft = "po-canadian";
metricRight = "o-canadian";
note = uni15CD;
unicode = 5581;
},
{
color = 9;
glyphname = "riCarrier-canadian";
lastChange = "2023-01-13 15:55:06 +0000";
layers = (
{
layerId = "DE93BBBF-E17B-48DE-A6AB-0C4E62D4ADD4";
shapes = (
{
closed = 1;
nodes = (
(26,0,l),
(619,331,l),
(625,358,l),
(173,690,l),
(155,690,l),
(146,651,l),
(214,601,l),
(208,636,l),
(88,67,l),
(107,101,l),
(18,51,l),
(8,0,l)
);
},
{
closed = 1;
nodes = (
(346,313,o),
(362,328,o),
(362,350,cs),
(362,371,o),
(346,385,o),
(326,385,cs),
(305,385,o),
(289,371,o),
(289,350,cs),
(289,328,o),
(305,313,o),
(326,313,cs)
);
},
{
closed = 1;
nodes = (
(248,611,l),
(228,593,l),
(582,335,l),
(583,363,l),
(129,110,l),
(138,91,l)
);
}
);
width = 635;
}
);
metricLeft = "po-canadian";
metricRight = "o-canadian";
note = uni15CE;
unicode = 5582;
},
{
color = 9;
glyphname = "raCarrier-canadian";
lastChange = "2023-01-13 15:55:03 +0000";
layers = (
{
layerId = "DE93BBBF-E17B-48DE-A6AB-0C4E62D4ADD4";
shapes = (
{
closed = 1;
nodes = (
(526,0,l),
(536,44,l),
(466,96,l),
(473,58,l),
(592,618,l),
(572,584,l),
(662,635,l),
(673,690,l),
(654,690,l),
(62,358,l),
(56,331,l),
(508,0,l)
);
},
{
closed = 1;
nodes = (
(448,107,l),
(110,355,l),
(109,327,l),
(546,571,l),
(536,589,l),
(430,89,l)
);
}
);
width = 634;
}
);
metricLeft = "=|o-canadian";
metricRight = "=|po-canadian";
note = uni15CF;
unicode = 5583;
},
{
color = 9;
glyphname = "wuCarrier-canadian";
lastChange = "2023-01-13 15:55:03 +0000";
layers = (
{
layerId = "DE93BBBF-E17B-48DE-A6AB-0C4E62D4ADD4";
shapes = (
{
closed = 1;
nodes = (
(312,0,l),
(752,670,l),
(756,690,l),
(699,690,l),
(332,117,l),
(345,116,l),
(467,690,l),
(414,690,l),
(293,115,l),
(306,115,l),
(180,690,l),
(132,690,l),
(128,670,l),
(283,0,l)
);
}
);
width = 695;
}
);
metricLeft = "e-canadian";
metricRight = "e-canadian";
note = uni15D0;
unicode = 5584;
},
{
color = 9;
glyphname = "woCarrier-canadian";
lastChange = "2023-01-13 15:55:06 +0000";
layers = (
{
layerId = "DE93BBBF-E17B-48DE-A6AB-0C4E62D4ADD4";
shapes = (
{
closed = 1;
nodes = (
(43,0,l),
(410,573,l),
(397,574,l),
(275,0,l),
(328,0,l),
(449,575,l),
(436,575,l),
(562,0,l),
(610,0,l),
(613,19,l),
(459,690,l),
(430,690,l),
(-11,19,l),
(-14,0,l)
);
}
);
width = 695;
}
);
metricLeft = "e-canadian";
metricRight = "e-canadian";
note = uni15D1;
unicode = 5585;
},
{
color = 9;
glyphname = "weCarrier-canadian";
lastChange = "2023-01-13 15:55:03 +0000";
layers = (
{
layerId = "DE93BBBF-E17B-48DE-A6AB-0C4E62D4ADD4";
shapes = (
{
closed = 1;
nodes = (
(46,0,l),
(639,331,l),
(645,358,l),
(193,690,l),
(174,690,l),
(164,644,l),
(548,364,l),
(552,376,l),
(108,376,l),
(98,327,l),
(546,327,l),
(546,337,l),
(40,56,l),
(28,0,l)
);
}
);
width = 655;
}
);
metricRight = "o-canadian";
note = uni15D2;
unicode = 5586;
},
{
color = 9;
glyphname = "weeCarrier-canadian";
lastChange = "2023-01-13 15:55:03 +0000";
layers = (
{
layerId = "DE93BBBF-E17B-48DE-A6AB-0C4E62D4ADD4";
shapes = (
{
closed = 1;
nodes = (
(46,0,l),
(639,331,l),
(645,358,l),
(193,690,l),
(175,690,l),
(165,648,l),
(560,360,l),
(565,373,l),
(228,373,l),
(245,456,l),
(207,456,l),
(189,373,l),
(107,373,l),
(99,330,l),
(180,330,l),
(162,247,l),
(201,247,l),
(218,330,l),
(560,330,l),
(558,341,l),
(39,52,l),
(28,0,l)
);
}
);
width = 655;
}
);
metricLeft = "weCarrier-canadian";
metricRight = "o-canadian";
note = uni15D3;
unicode = 5587;
},
{
color = 9;
glyphname = "wiCarrier-canadian";
lastChange = "2023-01-13 15:55:03 +0000";
layers = (
{
layerId = "DE93BBBF-E17B-48DE-A6AB-0C4E62D4ADD4";
shapes = (
{
closed = 1;
nodes = (
(46,0,l),
(639,331,l),
(645,358,l),
(193,690,l),
(175,690,l),
(165,648,l),
(556,363,l),
(564,373,l),
(291,373,l),
(283,396,o),
(261,412,o),
(235,412,cs),
(209,412,o),
(187,396,o),
(180,373,c),
(107,373,l),
(99,332,l),
(180,332,l),
(188,310,o),
(210,293,o),
(235,293,cs),
(261,293,o),
(282,310,o),
(290,332,c),
(559,332,l),
(555,339,l),
(39,52,l),
(28,0,l)
);
}
);
width = 655;
}
);
metricLeft = "weCarrier-canadian";
metricRight = "o-canadian";
note = uni15D4;
unicode = 5588;
},
{
color = 9;
glyphname = "waCarrier-canadian";
lastChange = "2023-01-13 15:55:03 +0000";
layers = (
{
layerId = "DE93BBBF-E17B-48DE-A6AB-0C4E62D4ADD4";
shapes = (
{
closed = 1;
nodes = (
(526,0,l),
(536,45,l),
(153,326,l),
(149,314,l),
(593,314,l),
(604,363,l),
(156,363,l),
(156,353,l),
(661,634,l),
(673,690,l),
(654,690,l),
(62,358,l),
(56,331,l),
(507,0,l)
);
}
);
width = 654;
}
);
metricLeft = "=|o-canadian";
metricRight = "=|weCarrier-canadian";
note = uni15D5;
unicode = 5589;
},
{
color = 9;
glyphname = "hwuCarrier-canadian";
lastChange = "2023-01-13 15:55:03 +0000";
layers = (
{
layerId = "DE93BBBF-E17B-48DE-A6AB-0C4E62D4ADD4";
shapes = (
{
closed = 1;
nodes = (
(312,0,l),
(752,670,l),
(756,690,l),
(702,690,l),
(551,455,l),
(572,467,l),
(414,467,l),
(462,690,l),
(418,690,l),
(371,467,l),
(213,467,l),
(229,456,l),
(177,690,l),
(132,690,l),
(128,670,l),
(283,0,l)
);
},
{
closed = 1;
nodes = (
(307,97,l),
(231,441,l),
(220,428,l),
(365,428,l),
(295,96,l)
);
},
{
closed = 1;
nodes = (
(403,428,l),
(549,428,l),
(544,440,l),
(323,98,l),
(332,94,l)
);
}
);
width = 695;
}
);
metricLeft = "e-canadian";
metricRight = "e-canadian";
note = uni15D6;
unicode = 5590;
},
{
color = 9;
glyphname = "hwoCarrier-canadian";
lastChange = "2023-01-13 15:55:06 +0000";
layers = (
{
layerId = "DE93BBBF-E17B-48DE-A6AB-0C4E62D4ADD4";
shapes = (
{
closed = 1;
nodes = (
(40,0,l),
(191,235,l),
(170,223,l),
(328,223,l),
(280,0,l),
(324,0,l),
(371,223,l),
(529,223,l),
(513,234,l),
(565,0,l),
(610,0,l),
(613,19,l),
(459,690,l),
(430,690,l),
(-11,19,l),
(-14,0,l)
);
},
{
closed = 1;
nodes = (
(419,592,l),
(410,596,l),
(339,262,l),
(193,262,l),
(198,249,l)
);
},
{
closed = 1;
nodes = (
(522,262,l),
(377,262,l),
(446,594,l),
(435,593,l),
(511,248,l)
);
}
);
width = 695;
}
);
metricLeft = "e-canadian";
metricRight = "e-canadian";
note = uni15D7;
unicode = 5591;
},
{
color = 9;
glyphname = "hweCarrier-canadian";
lastChange = "2023-01-13 15:55:03 +0000";
layers = (
{
layerId = "DE93BBBF-E17B-48DE-A6AB-0C4E62D4ADD4";
shapes = (
{
closed = 1;
nodes = (
(46,0,l),
(639,331,l),
(645,358,l),
(193,690,l),
(174,690,l),
(165,649,l),
(298,554,l),
(259,374,l),
(107,374,l),
(98,329,l),
(250,329,l),
(212,149,l),
(39,52,l),
(27,0,l)
);
},
{
closed = 1;
nodes = (
(287,332,l),
(550,332,l),
(252,168,l)
);
},
{
closed = 1;
nodes = (
(329,533,l),
(552,371,l),
(296,371,l)
);
}
);
width = 655;
}
);
metricLeft = "weCarrier-canadian";
metricRight = "o-canadian";
note = uni15D8;
unicode = 5592;
},
{
color = 9;
glyphname = "hweeCarrier-canadian";
lastChange = "2023-01-13 15:55:03 +0000";
layers = (
{
layerId = "DE93BBBF-E17B-48DE-A6AB-0C4E62D4ADD4";
shapes = (
{
closed = 1;
nodes = (
(46,0,l),
(639,331,l),
(645,358,l),
(193,690,l),
(174,690,l),
(166,650,l),
(307,548,l),
(270,371,l),
(212,371,l),
(229,455,l),
(194,455,l),
(177,371,l),
(106,371,l),
(99,332,l),
(168,332,l),
(151,249,l),
(185,249,l),
(203,332,l),
(262,332,l),
(224,154,l),
(39,51,l),
(27,0,l)
);
},
{
closed = 1;
nodes = (
(297,334,l),
(553,334,l),
(262,172,l)
);
},
{
closed = 1;
nodes = (
(337,528,l),
(554,369,l),
(303,369,l)
);
}
);
width = 655;
}
);
metricLeft = "weCarrier-canadian";
metricRight = "o-canadian";
note = uni15D9;
unicode = 5593;
},
{
color = 9;
glyphname = "hwiCarrier-canadian";
lastChange = "2023-01-13 15:55:03 +0000";
layers = (
{
layerId = "DE93BBBF-E17B-48DE-A6AB-0C4E62D4ADD4";
shapes = (
{
closed = 1;
nodes = (
(46,0,l),
(639,331,l),
(645,358,l),
(193,690,l),
(174,690,l),
(166,650,l),
(308,548,l),
(270,369,l),
(236,369,l),
(230,390,o),
(210,406,o),
(186,406,cs),
(163,406,o),
(144,390,o),
(138,369,c),
(106,369,l),
(99,334,l),
(137,334,l),
(144,313,o),
(164,298,o),
(186,298,cs),
(210,298,o),
(229,313,o),
(236,334,c),
(263,334,l),
(224,154,l),
(39,51,l),
(27,0,l)
);
},
{
closed = 1;
nodes = (
(297,334,l),
(553,334,l),
(262,172,l)
);
},
{
closed = 1;
nodes = (
(337,528,l),
(554,369,l),
(304,369,l)
);
}
);
width = 655;
}
);
metricLeft = "weCarrier-canadian";
metricRight = "o-canadian";
note = uni15DA;
unicode = 5594;
},
{
color = 9;
glyphname = "hwaCarrier-canadian";
lastChange = "2023-01-13 15:55:03 +0000";
layers = (
{
layerId = "DE93BBBF-E17B-48DE-A6AB-0C4E62D4ADD4";
shapes = (
{
closed = 1;
nodes = (
(655,690,l),
(62,358,l),
(56,331,l),
(508,0,l),
(526,0,l),
(535,41,l),
(404,136,l),
(441,316,l),
(593,316,l),
(603,360,l),
(451,360,l),
(490,541,l),
(663,638,l),
(673,690,l)
);
},
{
closed = 1;
nodes = (
(413,357,l),
(151,357,l),
(448,522,l)
);
},
{
closed = 1;
nodes = (
(371,156,l),
(149,319,l),
(406,319,l)
);
}
);
width = 655;
}
);
metricLeft = "=|o-canadian";
metricRight = "=|weCarrier-canadian";
note = uni15DB;
unicode = 5595;
},
{
color = 9;
glyphname = "thuCarrier-canadian";
lastChange = "2023-01-13 15:55:06 +0000";
layers = (
{
layerId = "DE93BBBF-E17B-48DE-A6AB-0C4E62D4ADD4";
shapes = (
{
closed = 1;
nodes = (
(485,-13,o),
(582,79,o),
(622,266,cs),
(712,690,l),
(170,690,l),
(86,294,ls),
(43,97,o),
(132,-13,o),
(318,-13,cs)
);
},
{
closed = 1;
nodes = (
(220,634,l),
(639,634,l),
(561,270,ls),
(528,115,o),
(453,45,o),
(322,45,cs),
(171,45,o),
(111,126,o),
(147,291,cs)
);
}
);
width = 689;
}
);
metricLeft = "te-canadian";
metricRight = "te-canadian";
note = uni15DC;
unicode = 5596;
},
{
color = 9;
glyphname = "thoCarrier-canadian";
lastChange = "2023-01-13 15:55:06 +0000";
layers = (
{
layerId = "DE93BBBF-E17B-48DE-A6AB-0C4E62D4ADD4";
shapes = (
{
closed = 1;
nodes = (
(565,0,l),
(649,396,ls),
(692,593,o),
(603,702,o),
(417,702,cs),
(250,702,o),
(154,611,o),
(113,424,cs),
(23,0,l)
);
},
{
closed = 1;
nodes = (
(174,420,ls),
(207,575,o),
(282,644,o),
(413,644,cs),
(564,644,o),
(624,564,o),
(588,399,cs),
(515,56,l),
(97,56,l)
);
}
);
width = 688;
}
);
metricLeft = "te-canadian";
metricRight = "te-canadian";
note = uni15DD;
unicode = 5597;
},
{
color = 9;
glyphname = "theCarrier-canadian";
lastChange = "2023-01-13 15:55:06 +0000";
layers = (
{
anchors = (
{
name = middle_center_can;
pos = (356,345);
}
);
layerId = "DE93BBBF-E17B-48DE-A6AB-0C4E62D4ADD4";
shapes = (
{
closed = 1;
nodes = (
(236,0,ls),
(545,0,o),
(632,262,o),
(632,434,cs),
(632,596,o),
(538,690,o),
(370,690,cs),
(177,690,l),
(30,0,l)
);
},
{
closed = 1;
nodes = (
(232,656,l),
(209,635,l),
(359,635,ls),
(497,635,o),
(573,563,o),
(573,432,cs),
(573,282,o),
(496,55,o),
(241,55,cs),
(89,55,l),
(99,36,l)
);
}
);
width = 667;
}
);
metricLeft = "nunavuth-canadian";
metricRight = "to-canadian";
note = uni15DE;
unicode = 5598;
},
{
color = 9;
glyphname = "thaCarrier-canadian";
lastChange = "2023-01-13 15:55:06 +0000";
layers = (
{
layerId = "DE93BBBF-E17B-48DE-A6AB-0C4E62D4ADD4";
shapes = (
{
closed = 1;
nodes = (
(535,0,l),
(682,690,l),
(477,690,ls),
(168,690,o),
(81,428,o),
(81,256,cs),
(81,94,o),
(174,0,o),
(343,0,cs)
);
},
{
closed = 1;
nodes = (
(140,408,o),
(217,635,o),
(472,635,cs),
(623,635,l),
(613,654,l),
(481,34,l),
(504,55,l),
(354,55,ls),
(214,55,o),
(140,127,o),
(140,258,cs)
);
}
);
width = 665;
}
);
metricLeft = "=|theCarrier-canadian";
metricRight = "nunavuth-canadian";
note = uni15E1;
unicode = 5601;
},
{
color = 9;
glyphname = "ttuCarrier-canadian";
lastChange = "2023-01-13 15:55:06 +0000";
layers = (
{
layerId = "DE93BBBF-E17B-48DE-A6AB-0C4E62D4ADD4";
shapes = (
{
closed = 1;
nodes = (
(484,-13,o),
(582,76,o),
(622,268,cs),
(712,690,l),
(685,690,l),
(379,497,l),
(425,489,l),
(199,690,l),
(170,690,l),
(85,291,ls),
(43,96,o),
(131,-13,o),
(318,-13,cs)
);
},
{
closed = 1;
nodes = (
(172,45,o),
(112,126,o),
(146,289,cs),
(219,635,l),
(191,627,l),
(384,453,l),
(402,453,l),
(657,616,l),
(638,632,l),
(561,271,ls),
(528,115,o),
(452,45,o),
(318,45,cs)
);
}
);
width = 688;
}
);
metricLeft = "te-canadian";
metricRight = "te-canadian";
note = uni15E2;
unicode = 5602;
},
{
color = 9;
glyphname = "ttoCarrier-canadian";
lastChange = "2023-01-13 15:55:06 +0000";
layers = (
{
layerId = "DE93BBBF-E17B-48DE-A6AB-0C4E62D4ADD4";
shapes = (
{
closed = 1;
nodes = (
(50,0,l),
(356,193,l),
(310,201,l),
(536,0,l),
(565,0,l),
(650,399,ls),
(692,594,o),
(604,702,o),
(417,702,cs),
(251,702,o),
(154,613,o),
(113,422,cs),
(23,0,l)
);
},
{
closed = 1;
nodes = (
(563,644,o),
(623,564,o),
(589,401,cs),
(516,55,l),
(544,63,l),
(352,237,l),
(333,237,l),
(78,73,l),
(98,58,l),
(174,418,ls),
(207,575,o),
(283,644,o),
(417,644,cs)
);
}
);
width = 688;
}
);
metricLeft = "te-canadian";
metricRight = "te-canadian";
note = uni15E3;
unicode = 5603;
},
{
color = 9;
glyphname = "tteCarrier-canadian";
lastChange = "2023-01-13 15:55:06 +0000";
layers = (
{
anchors = (
{
name = middle_center_can;
pos = (407,345);
}
);
layerId = "DE93BBBF-E17B-48DE-A6AB-0C4E62D4ADD4";
shapes = (
{
closed = 1;
nodes = (
(244,0,ls),
(542,0,o),
(641,248,o),
(641,434,cs),
(641,595,o),
(548,690,o),
(381,690,cs),
(170,690,l),
(165,670,l),
(220,322,l),
(226,373,l),
(27,19,l),
(23,0,l)
);
},
{
closed = 1;
nodes = (
(270,335,l),
(274,352,l),
(225,662,l),
(204,635,l),
(368,635,ls),
(508,635,o),
(582,563,o),
(582,432,cs),
(582,283,o),
(506,55,o),
(250,55,cs),
(84,55,l),
(99,31,l)
);
}
);
width = 676;
}
);
metricRight = "theCarrier-canadian";
note = uni15E4;
unicode = 5604;
},
{
color = 9;
glyphname = "ttaCarrier-canadian";
lastChange = "2023-01-13 15:55:06 +0000";
layers = (
{
layerId = "DE93BBBF-E17B-48DE-A6AB-0C4E62D4ADD4";
shapes = (
{
closed = 1;
nodes = (
(553,0,l),
(557,19,l),
(503,368,l),
(496,317,l),
(695,670,l),
(699,690,l),
(478,690,ls),
(181,690,o),
(81,441,o),
(81,256,cs),
(81,95,o),
(175,0,o),
(343,0,cs)
);
},
{
closed = 1;
nodes = (
(519,55,l),
(354,55,ls),
(215,55,o),
(141,127,o),
(141,258,cs),
(141,407,o),
(216,635,o),
(472,635,cs),
(638,635,l),
(623,659,l),
(452,355,l),
(448,338,l),
(497,28,l)
);
}
);
width = 676;
}
);
metricLeft = "=|theCarrier-canadian";
metricRight = "=|tteCarrier-canadian";
note = uni15E7;
unicode = 5607;
},
{
color = 9;
glyphname = "puCarrier-canadian";
lastChange = "2023-01-13 15:55:06 +0000";
layers = (
{
layerId = "DE93BBBF-E17B-48DE-A6AB-0C4E62D4ADD4";
shapes = (
{
closed = 1;
nodes = (
(485,-13,o),
(582,79,o),
(622,266,cs),
(712,690,l),
(650,690,l),
(613,517,l),
(195,517,l),
(232,690,l),
(170,690,l),
(86,294,ls),
(43,97,o),
(132,-13,o),
(318,-13,cs)
);
},
{
closed = 1;
nodes = (
(171,45,o),
(111,126,o),
(147,291,cs),
(184,463,l),
(602,463,l),
(561,270,ls),
(528,115,o),
(453,45,o),
(322,45,cs)
);
}
);
width = 689;
}
);
metricLeft = "te-canadian";
metricRight = "te-canadian";
note = uni15E8;
unicode = 5608;
},
{
color = 9;
glyphname = "poCarrier-canadian";
lastChange = "2023-01-13 15:55:06 +0000";
layers = (
{
layerId = "DE93BBBF-E17B-48DE-A6AB-0C4E62D4ADD4";
shapes = (
{
closed = 1;
nodes = (
(85,0,l),
(122,173,l),
(540,173,l),
(503,0,l),
(565,0,l),
(649,396,ls),
(692,593,o),
(603,702,o),
(417,702,cs),
(250,702,o),
(154,611,o),
(113,424,cs),
(23,0,l)
);
},
{
closed = 1;
nodes = (
(174,420,ls),
(207,575,o),
(282,644,o),
(413,644,cs),
(564,644,o),
(624,564,o),
(588,399,cs),
(552,227,l),
(133,227,l)
);
}
);
width = 688;
}
);
metricLeft = "te-canadian";
metricRight = "te-canadian";
note = uni15E9;
unicode = 5609;
},
{
color = 9;
glyphname = "peCarrier-canadian";
lastChange = "2023-01-13 15:55:03 +0000";
layers = (
{
anchors = (
{
name = middle_center_can;
pos = (393,345);
}
);
layerId = "DE93BBBF-E17B-48DE-A6AB-0C4E62D4ADD4";
shapes = (
{
closed = 1;
nodes = (
(240,0,ls),
(548,0,o),
(636,261,o),
(636,434,cs),
(636,596,o),
(542,690,o),
(375,690,cs),
(164,690,l),
(153,635,l),
(242,635,l),
(119,55,l),
(29,55,l),
(17,0,l)
);
},
{
closed = 1;
nodes = (
(309,662,l),
(268,635,l),
(363,635,ls),
(501,635,o),
(576,563,o),
(576,432,cs),
(576,282,o),
(499,55,o),
(244,55,cs),
(145,55,l),
(175,28,l)
);
}
);
width = 671;
}
);
metricRight = "theCarrier-canadian";
note = uni15EA;
unicode = 5610;
},
{
color = 9;
glyphname = "paCarrier-canadian";
lastChange = "2023-01-13 15:55:06 +0000";
layers = (
{
layerId = "DE93BBBF-E17B-48DE-A6AB-0C4E62D4ADD4";
shapes = (
{
closed = 1;
nodes = (
(553,0,l),
(564,55,l),
(474,55,l),
(598,635,l),
(688,635,l),
(699,690,l),
(478,690,ls),
(170,690,o),
(81,429,o),
(81,256,cs),
(81,94,o),
(175,0,o),
(342,0,cs)
);
},
{
closed = 1;
nodes = (
(449,55,l),
(354,55,ls),
(215,55,o),
(141,127,o),
(141,258,cs),
(141,408,o),
(217,635,o),
(472,635,cs),
(573,635,l),
(542,662,l),
(408,28,l)
);
}
);
width = 670;
}
);
metricLeft = "=|theCarrier-canadian";
metricRight = "=|peCarrier-canadian";
note = uni15ED;
unicode = 5613;
},
{
color = 6;
glyphname = "pCarrier-canadian";
lastChange = "2023-01-13 15:55:06 +0000";
layers = (
{
layerId = "DE93BBBF-E17B-48DE-A6AB-0C4E62D4ADD4";
shapes = (
{
closed = 1;
nodes = (
(365,183,l),
(375,226,l),
(243,226,l),
(307,527,l),
(261,527,l),
(197,226,l),
(65,226,l),
(55,183,l)
);
}
);
width = 443;
}
);
metricLeft = "shorthorizontalstrokeFinal-canadian";
metricRight = "shorthorizontalstrokeFinal-canadian";
note = uni15EE;
unicode = 5614;
},
{
color = 9;
glyphname = "guCarrier-canadian";
lastChange = "2023-01-13 15:55:03 +0000";
layers = (
{
anchors = (
{
name = top_center_can;
pos = (516,690);
}
);
layerId = "DE93BBBF-E17B-48DE-A6AB-0C4E62D4ADD4";
shapes = (
{
closed = 1;
nodes = (
(307,-13,o),
(373,38,o),
(411,134,c),
(388,134,l),
(395,43,o),
(453,-13,o),
(544,-13,cs),
(651,-13,o),
(722,57,o),
(750,185,cs),
(857,690,l),
(797,690,l),
(691,188,ls),
(670,94,o),
(619,43,o),
(542,43,cs),
(459,43,o),
(420,103,o),
(441,203,cs),
(545,690,l),
(487,690,l),
(384,204,ls),
(360,99,o),
(307,43,o),
(227,43,cs),
(140,43,o),
(106,100,o),
(129,210,cs),
(232,690,l),
(172,690,l),
(71,214,ls),
(41,71,o),
(95,-13,o),
(218,-13,cs)
);
}
);
width = 836;
}
);
metricRight = "=|";
note = uni15EF;
unicode = 5615;
},
{
color = 9;
glyphname = "goCarrier-canadian";
lastChange = "2023-01-13 15:55:06 +0000";
layers = (
{
layerId = "DE93BBBF-E17B-48DE-A6AB-0C4E62D4ADD4";
shapes = (
{
closed = 1;
nodes = (
(85,0,l),
(191,501,ls),
(212,596,o),
(263,646,o),
(339,646,cs),
(423,646,o),
(462,586,o),
(440,487,cs),
(337,0,l),
(395,0,l),
(498,486,ls),
(521,591,o),
(574,646,o),
(655,646,cs),
(742,646,o),
(775,589,o),
(752,480,cs),
(649,0,l),
(709,0,l),
(810,475,ls),
(840,618,o),
(787,702,o),
(664,702,cs),
(574,702,o),
(509,652,o),
(471,555,c),
(494,555,l),
(487,647,o),
(429,702,o),
(338,702,cs),
(231,702,o),
(159,633,o),
(132,504,cs),
(25,0,l)
);
}
);
width = 834;
}
);
metricLeft = "guCarrier-canadian";
metricRight = "guCarrier-canadian";
note = uni15F0;
unicode = 5616;
},
{
color = 9;
glyphname = "geCarrier-canadian";
lastChange = "2023-01-13 15:55:03 +0000";
layers = (
{
anchors = (
{
name = top_center_can;
pos = (438,690);
}
);
layerId = "DE93BBBF-E17B-48DE-A6AB-0C4E62D4ADD4";
shapes = (
{
closed = 1;
nodes = (
(345,0,ls),
(504,0,o),
(588,81,o),
(588,208,cs),
(588,278,o),
(553,332,o),
(489,350,c),
(486,332,l),
(608,353,o),
(658,443,o),
(658,534,cs),
(658,628,o),
(591,690,o),
(485,690,cs),
(177,690,l),
(165,638,l),
(470,638,ls),
(552,638,o),
(596,598,o),
(596,530,cs),
(596,431,o),
(533,371,o),
(415,371,cs),
(109,371,l),
(98,319,l),
(406,319,ls),
(485,319,o),
(528,280,o),
(528,213,cs),
(528,122,o),
(478,52,o),
(347,52,cs),
(42,52,l),
(30,0,l)
);
}
);
width = 676;
}
);
metricLeft = "nunavuth-canadian";
note = uni15F1;
unicode = 5617;
},
{
color = 9;
glyphname = "geeCarrier-canadian";
lastChange = "2023-01-13 15:55:03 +0000";
layers = (
{
layerId = "DE93BBBF-E17B-48DE-A6AB-0C4E62D4ADD4";
shapes = (
{
closed = 1;
nodes = (
(345,0,ls),
(504,0,o),
(588,81,o),
(588,208,cs),
(588,278,o),
(553,332,o),
(489,350,c),
(486,332,l),
(608,353,o),
(658,443,o),
(658,534,cs),
(658,628,o),
(591,690,o),
(485,690,cs),
(177,690,l),
(165,638,l),
(470,638,ls),
(552,638,o),
(596,598,o),
(596,530,cs),
(596,431,o),
(533,371,o),
(415,371,cs),
(357,371,l),
(376,458,l),
(335,458,l),
(317,371,l),
(109,371,l),
(98,319,l),
(305,319,l),
(288,234,l),
(328,234,l),
(347,319,l),
(406,319,ls),
(485,319,o),
(528,280,o),
(528,213,cs),
(528,122,o),
(478,52,o),
(347,52,cs),
(42,52,l),
(30,0,l)
);
}
);
width = 676;
}
);
metricLeft = "geCarrier-canadian";
metricRight = "geCarrier-canadian";
note = uni15F2;
unicode = 5618;
},
{
color = 9;
glyphname = "giCarrier-canadian";
lastChange = "2023-01-13 15:55:03 +0000";
layers = (
{
layerId = "DE93BBBF-E17B-48DE-A6AB-0C4E62D4ADD4";
shapes = (
{
closed = 1;
nodes = (
(345,0,ls),
(504,0,o),
(588,81,o),
(588,208,cs),
(588,278,o),
(553,332,o),
(489,351,c),
(487,332,l),
(609,353,o),
(658,443,o),
(658,534,cs),
(658,628,o),
(591,690,o),
(485,690,cs),
(177,690,l),
(165,638,l),
(470,638,ls),
(552,638,o),
(596,598,o),
(596,530,cs),
(596,431,o),
(533,371,o),
(415,371,cs),
(373,371,l),
(396,354,l),
(393,385,o),
(365,411,o),
(332,411,cs),
(305,411,o),
(283,394,o),
(274,371,c),
(109,371,l),
(98,319,l),
(275,319,l),
(284,297,o),
(306,280,o),
(332,280,cs),
(365,280,o),
(391,305,o),
(395,336,c),
(370,319,l),
(406,319,ls),
(485,319,o),
(528,280,o),
(528,213,cs),
(528,122,o),
(478,52,o),
(347,52,cs),
(42,52,l),
(30,0,l)
);
}
);
width = 676;
}
);
metricLeft = "geCarrier-canadian";
metricRight = "geCarrier-canadian";
note = uni15F3;
unicode = 5619;
},
{
color = 9;
glyphname = "gaCarrier-canadian";
lastChange = "2023-01-13 15:55:06 +0000";
layers = (
{
anchors = (
{
name = top_center_can;
pos = (450,690);
}
);
layerId = "DE93BBBF-E17B-48DE-A6AB-0C4E62D4ADD4";
shapes = (
{
closed = 1;
nodes = (
(547,0,l),
(557,52,l),
(252,52,ls),
(171,52,o),
(127,92,o),
(127,159,cs),
(127,259,o),
(190,319,o),
(307,319,cs),
(615,319,l),
(626,371,l),
(318,371,ls),
(238,371,o),
(195,410,o),
(195,477,cs),
(195,568,o),
(244,638,o),
(376,638,cs),
(682,638,l),
(693,690,l),
(378,690,ls),
(219,690,o),
(134,609,o),
(134,482,cs),
(134,412,o),
(171,357,o),
(234,340,c),
(237,357,l),
(115,337,o),
(65,246,o),
(65,156,cs),
(65,62,o),
(131,0,o),
(239,0,cs)
);
}
);
width = 677;
}
);
metricLeft = "=|geCarrier-canadian";
metricRight = "=|geCarrier-canadian";
note = uni15F4;
unicode = 5620;
},
{
color = 9;
glyphname = "khuCarrier-canadian";
lastChange = "2023-01-13 15:55:03 +0000";
layers = (
{
layerId = "DE93BBBF-E17B-48DE-A6AB-0C4E62D4ADD4";
shapes = (
{
closed = 1;
nodes = (
(305,-13,o),
(370,35,o),
(407,127,c),
(390,128,l),
(397,42,o),
(455,-13,o),
(544,-13,cs),
(651,-13,o),
(722,57,o),
(750,185,cs),
(857,690,l),
(172,690,l),
(71,214,ls),
(41,71,o),
(95,-13,o),
(218,-13,cs)
);
},
{
closed = 1;
nodes = (
(140,43,o),
(106,100,o),
(129,210,cs),
(220,636,l),
(475,636,l),
(384,204,ls),
(360,99,o),
(307,43,o),
(227,43,cs)
);
},
{
closed = 1;
nodes = (
(459,43,o),
(420,103,o),
(441,203,cs),
(533,636,l),
(785,636,l),
(691,188,ls),
(670,94,o),
(619,43,o),
(542,43,cs)
);
}
);
width = 836;
}
);
metricLeft = "guCarrier-canadian";
metricRight = "guCarrier-canadian";
note = uni15F5;
unicode = 5621;
},
{
color = 9;
glyphname = "khoCarrier-canadian";
lastChange = "2023-01-13 15:55:06 +0000";
layers = (
{
layerId = "DE93BBBF-E17B-48DE-A6AB-0C4E62D4ADD4";
shapes = (
{
closed = 1;
nodes = (
(709,0,l),
(810,475,ls),
(840,618,o),
(787,702,o),
(664,702,cs),
(577,702,o),
(512,655,o),
(475,563,c),
(492,562,l),
(484,648,o),
(427,702,o),
(338,702,cs),
(231,702,o),
(159,633,o),
(132,504,cs),
(25,0,l)
);
},
{
closed = 1;
nodes = (
(191,501,ls),
(212,596,o),
(263,646,o),
(339,646,cs),
(423,646,o),
(461,586,o),
(440,487,cs),
(348,54,l),
(97,54,l)
);
},
{
closed = 1;
nodes = (
(498,486,ls),
(521,591,o),
(574,646,o),
(655,646,cs),
(742,646,o),
(775,589,o),
(752,480,cs),
(661,54,l),
(407,54,l)
);
}
);
width = 834;
}
);
metricLeft = "guCarrier-canadian";
metricRight = "guCarrier-canadian";
note = uni15F6;
unicode = 5622;
},
{
color = 9;
glyphname = "kheCarrier-canadian";
lastChange = "2023-01-13 15:55:03 +0000";
layers = (
{
layerId = "DE93BBBF-E17B-48DE-A6AB-0C4E62D4ADD4";
shapes = (
{
closed = 1;
nodes = (
(348,0,ls),
(507,0,o),
(592,81,o),
(592,209,cs),
(592,279,o),
(555,332,o),
(491,350,c),
(489,332,l),
(613,353,o),
(661,446,o),
(661,534,cs),
(661,628,o),
(594,690,o),
(487,690,cs),
(177,690,l),
(30,0,l)
);
},
{
closed = 1;
nodes = (
(159,320,l),
(409,320,ls),
(488,320,o),
(531,281,o),
(531,213,cs),
(531,122,o),
(481,52,o),
(350,52,cs),
(102,52,l)
);
},
{
closed = 1;
nodes = (
(228,638,l),
(473,638,ls),
(554,638,o),
(599,598,o),
(599,530,cs),
(599,432,o),
(537,371,o),
(418,371,cs),
(171,371,l)
);
}
);
width = 680;
}
);
metricLeft = "nunavuth-canadian";
metricRight = "geCarrier-canadian";
note = uni15F7;
unicode = 5623;
},
{
color = 9;
glyphname = "kheeCarrier-canadian";
lastChange = "2023-01-13 15:55:03 +0000";
layers = (
{
layerId = "DE93BBBF-E17B-48DE-A6AB-0C4E62D4ADD4";
shapes = (
{
closed = 1;
nodes = (
(348,0,ls),
(507,0,o),
(592,81,o),
(592,209,cs),
(592,279,o),
(555,332,o),
(491,350,c),
(489,332,l),
(613,353,o),
(661,446,o),
(661,534,cs),
(661,628,o),
(594,690,o),
(487,690,cs),
(177,690,l),
(30,0,l)
);
},
{
closed = 1;
nodes = (
(159,320,l),
(320,320,l),
(301,231,l),
(345,231,l),
(366,333,l),
(346,320,l),
(409,320,ls),
(488,320,o),
(531,281,o),
(531,213,cs),
(531,122,o),
(481,52,o),
(350,52,cs),
(102,52,l)
);
},
{
closed = 1;
nodes = (
(393,460,l),
(350,460,l),
(331,371,l),
(171,371,l),
(228,638,l),
(473,638,ls),
(554,638,o),
(599,598,o),
(599,530,cs),
(599,432,o),
(537,371,o),
(418,371,cs),
(356,371,l),
(372,357,l)
);
}
);
width = 680;
}
);
metricLeft = "nunavuth-canadian";
metricRight = "geCarrier-canadian";
note = uni15F8;
unicode = 5624;
},
{
color = 9;
glyphname = "khiCarrier-canadian";
lastChange = "2023-01-13 15:55:03 +0000";
layers = (
{
layerId = "DE93BBBF-E17B-48DE-A6AB-0C4E62D4ADD4";
shapes = (
{
closed = 1;
nodes = (
(348,0,ls),
(507,0,o),
(592,81,o),
(592,209,cs),
(592,277,o),
(556,330,o),
(494,350,c),
(489,332,l),
(613,353,o),
(661,446,o),
(661,534,cs),
(661,628,o),
(594,690,o),
(487,690,cs),
(177,690,l),
(30,0,l)
);
},
{
closed = 1;
nodes = (
(160,321,l),
(288,321,l),
(298,298,o),
(320,280,o),
(346,280,cs),
(380,280,o),
(406,306,o),
(410,339,c),
(372,321,l),
(410,321,ls),
(489,321,o),
(531,281,o),
(531,213,cs),
(531,122,o),
(481,52,o),
(350,52,cs),
(102,52,l)
);
},
{
closed = 1;
nodes = (
(473,638,ls),
(554,638,o),
(599,598,o),
(599,530,cs),
(599,431,o),
(538,370,o),
(419,370,cs),
(376,370,l),
(410,352,l),
(407,385,o),
(380,411,o),
(346,411,cs),
(312,411,o),
(285,384,o),
(283,352,c),
(306,370,l),
(171,370,l),
(228,638,l)
);
}
);
width = 680;
}
);
metricLeft = "nunavuth-canadian";
metricRight = "geCarrier-canadian";
note = uni15F9;
unicode = 5625;
},
{
color = 9;
glyphname = "khaCarrier-canadian";
lastChange = "2023-01-13 15:55:03 +0000";
layers = (
{
layerId = "DE93BBBF-E17B-48DE-A6AB-0C4E62D4ADD4";
shapes = (
{
closed = 1;
nodes = (
(549,0,l),
(696,690,l),
(378,690,ls),
(218,690,o),
(134,609,o),
(134,481,cs),
(134,411,o),
(171,357,o),
(235,340,c),
(236,357,l),
(112,337,o),
(65,243,o),
(65,156,cs),
(65,62,o),
(131,0,o),
(239,0,cs)
);
},
{
closed = 1;
nodes = (
(170,52,o),
(126,92,o),
(126,159,cs),
(126,258,o),
(188,319,o),
(307,319,cs),
(554,319,l),
(497,52,l),
(251,52,ls)
);
},
{
closed = 1;
nodes = (
(238,370,o),
(194,409,o),
(194,477,cs),
(194,568,o),
(245,638,o),
(376,638,cs),
(623,638,l),
(566,370,l),
(317,370,ls)
);
}
);
width = 679;
}
);
metricLeft = "=|geCarrier-canadian";
metricRight = "nunavuth-canadian";
note = uni15FA;
unicode = 5626;
},
{
color = 9;
glyphname = "kkuCarrier-canadian";
lastChange = "2023-01-13 15:55:03 +0000";
layers = (
{
layerId = "DE93BBBF-E17B-48DE-A6AB-0C4E62D4ADD4";
shapes = (
{
closed = 1;
nodes = (
(303,-13,o),
(369,34,o),
(407,127,c),
(390,128,l),
(397,43,o),
(453,-13,o),
(544,-13,cs),
(651,-13,o),
(722,56,o),
(750,185,cs),
(857,690,l),
(828,690,l),
(497,519,l),
(484,455,l),
(806,619,l),
(785,639,l),
(691,188,ls),
(670,94,o),
(619,43,o),
(542,43,cs),
(454,43,o),
(421,109,o),
(441,203,cs),
(545,690,l),
(487,690,l),
(384,204,ls),
(360,97,o),
(305,43,o),
(227,43,cs),
(140,43,o),
(106,99,o),
(129,210,cs),
(221,642,l),
(192,631,l),
(448,462,l),
(460,519,l),
(201,690,l),
(172,690,l),
(71,214,ls),
(41,71,o),
(96,-13,o),
(218,-13,cs)
);
}
);
width = 836;
}
);
metricLeft = "guCarrier-canadian";
metricRight = "guCarrier-canadian";
note = uni15FB;
unicode = 5627;
},
{
color = 9;
glyphname = "kkoCarrier-canadian";
lastChange = "2023-01-13 15:55:06 +0000";
layers = (
{
layerId = "DE93BBBF-E17B-48DE-A6AB-0C4E62D4ADD4";
shapes = (
{
closed = 1;
nodes = (
(53,0,l),
(384,171,l),
(397,235,l),
(76,71,l),
(96,50,l),
(191,501,ls),
(212,596,o),
(262,646,o),
(339,646,cs),
(427,646,o),
(460,581,o),
(440,487,cs),
(336,0,l),
(394,0,l),
(497,486,ls),
(521,593,o),
(576,646,o),
(655,646,cs),
(741,646,o),
(775,590,o),
(752,480,cs),
(660,47,l),
(689,59,l),
(433,228,l),
(421,171,l),
(680,0,l),
(709,0,l),
(810,475,ls),
(841,619,o),
(785,702,o),
(664,702,cs),
(578,702,o),
(512,656,o),
(474,563,c),
(492,562,l),
(484,647,o),
(428,702,o),
(337,702,cs),
(231,702,o),
(160,634,o),
(132,504,cs),
(25,0,l)
);
}
);
width = 834;
}
);
metricLeft = "guCarrier-canadian";
metricRight = "guCarrier-canadian";
note = uni15FC;
unicode = 5628;
},
{
color = 9;
glyphname = "kkeCarrier-canadian";
lastChange = "2023-01-13 15:55:03 +0000";
layers = (
{
layerId = "DE93BBBF-E17B-48DE-A6AB-0C4E62D4ADD4";
shapes = (
{
closed = 1;
nodes = (
(362,0,ls),
(521,0,o),
(606,81,o),
(606,208,cs),
(606,278,o),
(570,332,o),
(503,351,c),
(502,332,l),
(627,353,o),
(675,445,o),
(675,534,cs),
(675,629,o),
(609,690,o),
(500,690,cs),
(175,690,l),
(170,670,l),
(216,371,l),
(112,371,l),
(100,319,l),
(203,319,l),
(32,19,l),
(28,0,l)
);
},
{
closed = 1;
nodes = (
(267,319,l),
(423,319,ls),
(502,319,o),
(545,280,o),
(545,213,cs),
(545,123,o),
(496,52,o),
(364,52,cs),
(86,52,l),
(102,29,l)
);
},
{
closed = 1;
nodes = (
(231,665,l),
(209,638,l),
(487,638,ls),
(569,638,o),
(613,598,o),
(613,530,cs),
(613,430,o),
(550,371,o),
(432,371,cs),
(276,371,l)
);
}
);
width = 694;
}
);
metricRight = "geCarrier-canadian";
note = uni15FD;
unicode = 5629;
},
{
color = 9;
glyphname = "kkeeCarrier-canadian";
lastChange = "2023-01-13 15:55:03 +0000";
layers = (
{
layerId = "DE93BBBF-E17B-48DE-A6AB-0C4E62D4ADD4";
shapes = (
{
closed = 1;
nodes = (
(362,0,ls),
(521,0,o),
(606,81,o),
(606,208,cs),
(606,278,o),
(570,332,o),
(503,351,c),
(502,332,l),
(627,353,o),
(675,445,o),
(675,534,cs),
(675,629,o),
(609,690,o),
(500,690,cs),
(175,690,l),
(170,670,l),
(216,371,l),
(112,371,l),
(100,319,l),
(203,319,l),
(32,19,l),
(28,0,l)
);
},
{
closed = 1;
nodes = (
(268,321,l),
(354,321,l),
(335,231,l),
(379,231,l),
(401,336,l),
(382,321,l),
(424,321,ls),
(503,321,o),
(545,280,o),
(545,213,cs),
(545,123,o),
(496,52,o),
(364,52,cs),
(86,52,l),
(102,29,l)
);
},
{
closed = 1;
nodes = (
(428,460,l),
(384,460,l),
(365,370,l),
(276,370,l),
(231,665,l),
(209,638,l),
(487,638,ls),
(569,638,o),
(613,598,o),
(613,530,cs),
(613,430,o),
(550,370,o),
(433,370,cs),
(392,370,l),
(406,356,l)
);
}
);
width = 694;
}
);
metricLeft = "kkeCarrier-canadian";
metricRight = "geCarrier-canadian";
note = uni15FE;
unicode = 5630;
},
{
color = 9;
glyphname = "kkiCarrier-canadian";
lastChange = "2023-01-13 15:55:03 +0000";
layers = (
{
layerId = "DE93BBBF-E17B-48DE-A6AB-0C4E62D4ADD4";
shapes = (
{
closed = 1;
nodes = (
(362,0,ls),
(521,0,o),
(606,81,o),
(606,208,cs),
(606,278,o),
(570,332,o),
(503,351,c),
(502,332,l),
(627,353,o),
(675,445,o),
(675,534,cs),
(675,629,o),
(609,690,o),
(500,690,cs),
(175,690,l),
(170,670,l),
(216,371,l),
(112,371,l),
(100,319,l),
(203,319,l),
(32,19,l),
(28,0,l)
);
},
{
closed = 1;
nodes = (
(268,321,l),
(319,321,l),
(327,298,o),
(350,280,o),
(377,280,cs),
(409,280,o),
(434,304,o),
(438,335,c),
(399,321,l),
(424,321,ls),
(503,321,o),
(545,280,o),
(545,213,cs),
(545,123,o),
(496,52,o),
(364,52,cs),
(86,52,l),
(102,29,l)
);
},
{
closed = 1;
nodes = (
(436,386,o),
(409,411,o),
(376,411,cs),
(349,411,o),
(327,393,o),
(318,369,c),
(276,369,l),
(231,665,l),
(209,638,l),
(487,638,ls),
(569,638,o),
(613,598,o),
(613,530,cs),
(613,430,o),
(550,369,o),
(433,369,cs),
(400,369,l),
(439,355,l)
);
}
);
width = 694;
}
);
metricLeft = "kkeCarrier-canadian";
metricRight = "geCarrier-canadian";
note = uni15FF;
unicode = 5631;
},
{
color = 9;
glyphname = "kkaCarrier-canadian";
lastChange = "2023-01-13 15:55:03 +0000";
layers = (
{
layerId = "DE93BBBF-E17B-48DE-A6AB-0C4E62D4ADD4";
shapes = (
{
closed = 1;
nodes = (
(565,0,l),
(570,19,l),
(524,319,l),
(629,319,l),
(639,371,l),
(537,371,l),
(708,670,l),
(712,690,l),
(378,690,ls),
(219,690,o),
(134,609,o),
(134,482,cs),
(134,412,o),
(170,357,o),
(237,339,c),
(238,357,l),
(113,337,o),
(65,244,o),
(65,156,cs),
(65,61,o),
(131,0,o),
(240,0,cs)
);
},
{
closed = 1;
nodes = (
(531,52,l),
(253,52,ls),
(171,52,o),
(127,92,o),
(127,159,cs),
(127,260,o),
(190,319,o),
(308,319,cs),
(464,319,l),
(510,25,l)
);
},
{
closed = 1;
nodes = (
(238,371,o),
(195,410,o),
(195,477,cs),
(195,567,o),
(244,638,o),
(376,638,cs),
(654,638,l),
(638,661,l),
(473,371,l),
(318,371,ls)
);
}
);
width = 694;
}
);
metricLeft = "=|geCarrier-canadian";
metricRight = "=|kkeCarrier-canadian";
note = uni1600;
unicode = 5632;
},
{
color = 6;
glyphname = "kkCarrier-canadian";
lastChange = "2023-01-13 15:55:03 +0000";
layers = (
{
layerId = "DE93BBBF-E17B-48DE-A6AB-0C4E62D4ADD4";
shapes = (
{
closed = 1;
nodes = (
(379,527,l),
(186,226,l),
(220,226,l),
(156,527,l),
(115,527,l),
(112,516,l),
(188,183,l),
(204,183,l),
(422,516,l),
(425,527,l)
);
}
);
width = 416;
}
);
note = uni1601;
unicode = 5633;
},
{
color = 9;
glyphname = "nuCarrier-canadian";
lastChange = "2023-01-13 15:55:03 +0000";
layers = (
{
layerId = "DE93BBBF-E17B-48DE-A6AB-0C4E62D4ADD4";
shapes = (
{
closed = 1;
nodes = (
(478,-13,o),
(583,81,o),
(619,253,cs),
(629,298,l),
(567,298,l),
(558,257,ls),
(529,117,o),
(448,44,o),
(324,44,cs),
(179,44,o),
(114,136,o),
(147,295,cs),
(232,690,l),
(170,690,l),
(86,295,ls),
(46,108,o),
(138,-13,o),
(320,-13,cs)
);
}
);
width = 686;
}
);
metricLeft = "te-canadian";
note = uni1602;
unicode = 5634;
},
{
color = 9;
glyphname = "noCarrier-canadian";
lastChange = "2023-01-13 15:55:06 +0000";
layers = (
{
layerId = "DE93BBBF-E17B-48DE-A6AB-0C4E62D4ADD4";
shapes = (
{
closed = 1;
nodes = (
(562,0,l),
(646,395,ls),
(686,582,o),
(594,702,o),
(412,702,cs),
(254,702,o),
(149,609,o),
(113,437,cs),
(103,391,l),
(165,391,l),
(174,433,ls),
(203,573,o),
(284,645,o),
(409,645,cs),
(554,645,o),
(618,554,o),
(584,395,cs),
(500,0,l)
);
}
);
width = 685;
}
);
metricLeft = "=|nuCarrier-canadian";
metricRight = "te-canadian";
note = uni1603;
unicode = 5635;
},
{
color = 9;
glyphname = "neCarrier-canadian";
lastChange = "2023-01-13 15:55:06 +0000";
layers = (
{
anchors = (
{
name = middle_center_can;
pos = (311,345);
}
);
layerId = "DE93BBBF-E17B-48DE-A6AB-0C4E62D4ADD4";
shapes = (
{
closed = 1;
nodes = (
(242,0,ls),
(541,0,o),
(632,254,o),
(632,433,cs),
(632,596,o),
(537,690,o),
(369,690,cs),
(152,690,l),
(140,634,l),
(361,634,ls),
(497,634,o),
(571,562,o),
(571,431,cs),
(571,287,o),
(502,56,o),
(248,56,cs),
(228,56,l),
(216,0,l)
);
}
);
width = 667;
}
);
metricRight = "theCarrier-canadian";
note = uni1604;
unicode = 5636;
},
{
color = 9;
glyphname = "naCarrier-canadian";
lastChange = "2023-01-13 15:55:03 +0000";
layers = (
{
layerId = "DE93BBBF-E17B-48DE-A6AB-0C4E62D4ADD4";
shapes = (
{
closed = 1;
nodes = (
(562,0,l),
(575,56,l),
(354,56,ls),
(216,56,o),
(143,128,o),
(143,259,cs),
(143,403,o),
(212,634,o),
(466,634,cs),
(486,634,l),
(497,690,l),
(472,690,ls),
(174,690,o),
(82,436,o),
(82,257,cs),
(82,94,o),
(177,0,o),
(345,0,cs)
);
}
);
width = 668;
}
);
metricLeft = "=|theCarrier-canadian";
metricRight = "=|neCarrier-canadian";
note = uni1607;
unicode = 5639;
},
{
color = 9;
glyphname = "muCarrier-canadian";
lastChange = "2023-01-13 15:55:03 +0000";
layers = (
{
layerId = "DE93BBBF-E17B-48DE-A6AB-0C4E62D4ADD4";
shapes = (
{
closed = 1;
nodes = (
(305,-13,o),
(373,36,o),
(411,134,c),
(388,134,l),
(395,44,o),
(451,-13,o),
(544,-13,cs),
(651,-13,o),
(722,57,o),
(750,185,cs),
(792,388,l),
(731,388,l),
(689,188,ls),
(669,94,o),
(618,43,o),
(543,43,cs),
(455,43,o),
(422,109,o),
(442,202,cs),
(481,388,l),
(422,388,l),
(383,204,ls),
(359,97,o),
(305,43,o),
(227,43,cs),
(141,43,o),
(107,99,o),
(131,210,cs),
(233,690,l),
(172,690,l),
(71,214,ls),
(41,71,o),
(96,-13,o),
(218,-13,cs)
);
}
);
width = 836;
}
);
metricLeft = "guCarrier-canadian";
metricRight = "=|";
note = uni1608;
unicode = 5640;
},
{
color = 9;
glyphname = "moCarrier-canadian";
lastChange = "2023-01-13 15:55:06 +0000";
layers = (
{
layerId = "DE93BBBF-E17B-48DE-A6AB-0C4E62D4ADD4";
shapes = (
{
closed = 1;
nodes = (
(710,0,l),
(810,475,ls),
(841,619,o),
(786,702,o),
(664,702,cs),
(576,702,o),
(509,654,o),
(471,555,c),
(494,555,l),
(487,645,o),
(431,702,o),
(338,702,cs),
(231,702,o),
(160,633,o),
(132,504,cs),
(89,301,l),
(151,301,l),
(193,501,ls),
(213,596,o),
(264,646,o),
(339,646,cs),
(427,646,o),
(460,581,o),
(440,488,cs),
(400,301,l),
(460,301,l),
(499,486,ls),
(523,593,o),
(577,646,o),
(655,646,cs),
(741,646,o),
(775,591,o),
(751,480,cs),
(649,0,l)
);
}
);
width = 835;
}
);
metricLeft = "=|muCarrier-canadian";
metricRight = "guCarrier-canadian";
note = uni1609;
unicode = 5641;
},
{
color = 9;
glyphname = "meCarrier-canadian";
lastChange = "2023-01-13 15:55:03 +0000";
layers = (
{
layerId = "DE93BBBF-E17B-48DE-A6AB-0C4E62D4ADD4";
shapes = (
{
closed = 1;
nodes = (
(346,0,ls),
(505,0,o),
(589,81,o),
(589,208,cs),
(589,278,o),
(554,332,o),
(490,350,c),
(487,332,l),
(610,353,o),
(659,443,o),
(659,534,cs),
(659,628,o),
(592,690,o),
(486,690,cs),
(152,690,l),
(141,638,l),
(471,638,ls),
(553,638,o),
(597,598,o),
(597,530,cs),
(597,431,o),
(534,371,o),
(416,371,cs),
(307,371,l),
(297,319,l),
(407,319,ls),
(486,319,o),
(529,280,o),
(529,213,cs),
(529,122,o),
(479,52,o),
(348,52,cs),
(240,52,l),
(229,0,l)
);
}
);
width = 677;
}
);
metricLeft = "neCarrier-canadian";
metricRight = "geCarrier-canadian";
note = uni160A;
unicode = 5642;
},
{
color = 9;
glyphname = "meeCarrier-canadian";
lastChange = "2023-01-13 15:55:03 +0000";
layers = (
{
layerId = "DE93BBBF-E17B-48DE-A6AB-0C4E62D4ADD4";
shapes = (
{
closed = 1;
nodes = (
(346,0,ls),
(505,0,o),
(589,81,o),
(589,208,cs),
(589,278,o),
(554,332,o),
(490,350,c),
(487,332,l),
(610,353,o),
(659,443,o),
(659,534,cs),
(659,628,o),
(592,690,o),
(486,690,cs),
(152,690,l),
(141,638,l),
(471,638,ls),
(553,638,o),
(597,598,o),
(597,530,cs),
(597,431,o),
(534,370,o),
(416,370,cs),
(351,370,l),
(369,458,l),
(325,458,l),
(277,233,l),
(322,233,l),
(340,320,l),
(408,320,ls),
(486,320,o),
(529,280,o),
(529,213,cs),
(529,122,o),
(479,52,o),
(348,52,cs),
(240,52,l),
(229,0,l)
);
}
);
width = 677;
}
);
metricLeft = "neCarrier-canadian";
metricRight = "geCarrier-canadian";
note = uni160B;
unicode = 5643;
},
{
color = 9;
glyphname = "miCarrier-canadian";
lastChange = "2023-01-13 15:55:03 +0000";
layers = (
{
layerId = "DE93BBBF-E17B-48DE-A6AB-0C4E62D4ADD4";
shapes = (
{
closed = 1;
nodes = (
(346,0,ls),
(503,0,o),
(582,77,o),
(588,197,cs),
(592,272,o),
(556,330,o),
(490,350,c),
(487,332,l),
(605,352,o),
(654,437,o),
(658,523,cs),
(664,622,o),
(596,690,o),
(486,690,cs),
(152,690,l),
(141,638,l),
(471,638,ls),
(554,638,o),
(599,596,o),
(597,526,cs),
(595,427,o),
(532,370,o),
(416,370,cs),
(355,370,l),
(387,352,l),
(385,386,o),
(357,412,o),
(324,412,cs),
(288,412,o),
(260,383,o),
(260,347,cs),
(260,312,o),
(288,282,o),
(324,282,cs),
(356,282,o),
(383,306,o),
(387,338,c),
(354,320,l),
(407,320,ls),
(488,320,o),
(531,280,o),
(528,209,cs),
(526,118,o),
(476,52,o),
(348,52,cs),
(240,52,l),
(229,0,l)
);
}
);
width = 676;
}
);
metricLeft = "neCarrier-canadian";
metricRight = "geCarrier-canadian";
note = uni160C;
unicode = 5644;
},
{
color = 9;
glyphname = "maCarrier-canadian";
lastChange = "2023-01-13 15:55:03 +0000";
layers = (
{
layerId = "DE93BBBF-E17B-48DE-A6AB-0C4E62D4ADD4";
shapes = (
{
closed = 1;
nodes = (
(573,0,l),
(584,52,l),
(252,52,ls),
(171,52,o),
(127,92,o),
(127,159,cs),
(127,259,o),
(190,319,o),
(307,319,cs),
(416,319,l),
(428,371,l),
(318,371,ls),
(238,371,o),
(195,410,o),
(195,477,cs),
(195,568,o),
(244,638,o),
(376,638,cs),
(484,638,l),
(496,690,l),
(378,690,ls),
(219,690,o),
(134,609,o),
(134,482,cs),
(134,412,o),
(171,357,o),
(234,340,c),
(237,357,l),
(115,337,o),
(65,246,o),
(65,156,cs),
(65,62,o),
(131,0,o),
(239,0,cs)
);
}
);
width = 678;
}
);
metricLeft = "=|geCarrier-canadian";
metricRight = "=|neCarrier-canadian";
note = uni160D;
unicode = 5645;
},
{
color = 9;
glyphname = "yuCarrier-canadian";
lastChange = "2023-01-13 15:55:03 +0000";
layers = (
{
layerId = "DE93BBBF-E17B-48DE-A6AB-0C4E62D4ADD4";
shapes = (
{
closed = 1;
nodes = (
(515,-13,o),
(626,103,o),
(681,363,cs),
(719,545,o),
(699,702,o),
(554,702,cs),
(417,702,o),
(368,554,o),
(368,458,cs),
(368,369,o),
(415,315,o),
(497,315,cs),
(511,315,o),
(524,317,o),
(541,323,c),
(552,372,l),
(539,368,o),
(525,366,o),
(511,366,cs),
(453,366,o),
(423,400,o),
(423,462,cs),
(423,526,o),
(452,650,o),
(550,650,cs),
(655,650,o),
(654,526,o),
(624,374,cs),
(578,142,o),
(492,45,o),
(327,45,cs),
(165,45,o),
(115,144,o),
(149,298,cs),
(232,690,l),
(170,690,l),
(87,298,ls),
(49,118,o),
(123,-13,o),
(325,-13,cs)
);
}
);
width = 727;
}
);
metricLeft = "te-canadian";
metricRight = "te-canadian";
note = uni160E;
unicode = 5646;
},
{
color = 9;
glyphname = "yoCarrier-canadian";
lastChange = "2023-01-13 15:55:06 +0000";
layers = (
{
layerId = "DE93BBBF-E17B-48DE-A6AB-0C4E62D4ADD4";
shapes = (
{
closed = 1;
nodes = (
(354,-13,o),
(405,135,o),
(405,232,cs),
(405,321,o),
(357,375,o),
(275,375,cs),
(262,375,o),
(249,373,o),
(232,367,c),
(221,318,l),
(233,322,o),
(247,324,o),
(262,324,cs),
(320,324,o),
(350,290,o),
(350,228,cs),
(350,164,o),
(321,40,o),
(223,40,cs),
(118,40,o),
(118,164,o),
(149,316,cs),
(194,548,o),
(281,644,o),
(444,644,cs),
(608,644,o),
(657,546,o),
(624,391,cs),
(541,0,l),
(603,0,l),
(686,391,ls),
(724,572,o),
(650,702,o),
(448,702,cs),
(258,702,o),
(146,586,o),
(92,327,cs),
(53,145,o),
(73,-13,o),
(218,-13,cs)
);
}
);
width = 726;
}
);
metricLeft = "te-canadian";
metricRight = "te-canadian";
note = uni160F;
unicode = 5647;
},
{
color = 9;
glyphname = "yeCarrier-canadian";
lastChange = "2023-01-13 15:55:03 +0000";
layers = (
{
layerId = "DE93BBBF-E17B-48DE-A6AB-0C4E62D4ADD4";
shapes = (
{
closed = 1;
nodes = (
(523,-13,o),
(632,231,o),
(632,417,cs),
(632,589,o),
(532,690,o),
(355,690,cs),
(178,690,l),
(166,634,l),
(345,634,ls),
(492,634,o),
(570,555,o),
(570,415,cs),
(570,269,o),
(497,42,o),
(289,42,cs),
(179,42,o),
(116,95,o),
(116,182,cs),
(116,255,o),
(156,350,o),
(240,350,cs),
(295,350,o),
(326,314,o),
(326,254,cs),
(326,216,o),
(316,179,o),
(301,144,c),
(352,144,l),
(368,184,o),
(379,222,o),
(379,262,cs),
(379,347,o),
(327,400,o),
(242,400,cs),
(126,400,o),
(60,288,o),
(60,178,cs),
(60,63,o),
(146,-13,o),
(286,-13,cs)
);
}
);
width = 670;
}
);
metricRight = "theCarrier-canadian";
note = uni1610;
unicode = 5648;
},
{
color = 9;
glyphname = "yeeCarrier-canadian";
lastChange = "2023-01-13 15:55:03 +0000";
layers = (
{
layerId = "DE93BBBF-E17B-48DE-A6AB-0C4E62D4ADD4";
shapes = (
{
closed = 1;
nodes = (
(523,-13,o),
(633,233,o),
(633,420,cs),
(633,589,o),
(532,690,o),
(356,690,cs),
(179,690,l),
(167,634,l),
(346,634,ls),
(493,634,o),
(571,555,o),
(571,416,cs),
(571,279,o),
(502,42,o),
(290,42,cs),
(180,42,o),
(117,93,o),
(117,181,cs),
(117,250,o),
(156,350,o),
(243,350,cs),
(314,350,o),
(327,289,o),
(313,221,cs),
(302,174,l),
(345,174,l),
(414,502,l),
(373,502,l),
(329,300,l),
(337,299,l),
(338,363,o),
(301,400,o),
(238,400,cs),
(121,400,o),
(61,279,o),
(61,178,cs),
(61,63,o),
(146,-13,o),
(288,-13,cs)
);
}
);
width = 670;
}
);
metricRight = "theCarrier-canadian";
metricWidth = "yeCarrier-canadian";
note = uni1611;
unicode = 5649;
},
{
color = 9;
glyphname = "yiCarrier-canadian";
lastChange = "2023-01-13 15:55:06 +0000";
layers = (
{
layerId = "DE93BBBF-E17B-48DE-A6AB-0C4E62D4ADD4";
shapes = (
{
closed = 1;
nodes = (
(508,-13,o),
(632,205,o),
(632,420,cs),
(632,589,o),
(531,690,o),
(356,690,cs),
(179,690,l),
(167,634,l),
(346,634,ls),
(493,634,o),
(570,555,o),
(570,416,cs),
(570,241,o),
(480,42,o),
(290,42,cs),
(179,42,o),
(116,94,o),
(116,178,cs),
(116,257,o),
(159,327,o),
(257,325,c),
(239,343,l),
(240,310,o),
(267,285,o),
(299,285,cs),
(333,285,o),
(359,312,o),
(359,346,cs),
(359,380,o),
(333,405,o),
(299,405,cs),
(274,405,o),
(253,390,o),
(245,370,c),
(126,366,o),
(60,281,o),
(60,173,cs),
(60,62,o),
(146,-13,o),
(287,-13,cs)
);
}
);
width = 670;
}
);
metricRight = "theCarrier-canadian";
metricWidth = "yeCarrier-canadian";
note = uni1612;
unicode = 5650;
},
{
color = 9;
glyphname = "yaCarrier-canadian";
lastChange = "2023-01-13 15:55:06 +0000";
layers = (
{
layerId = "DE93BBBF-E17B-48DE-A6AB-0C4E62D4ADD4";
shapes = (
{
closed = 1;
nodes = (
(538,0,l),
(550,56,l),
(370,56,ls),
(224,56,o),
(146,134,o),
(146,274,cs),
(146,421,o),
(219,648,o),
(427,648,cs),
(536,648,o),
(600,595,o),
(600,508,cs),
(600,435,o),
(560,340,o),
(475,340,cs),
(421,340,o),
(389,376,o),
(389,436,cs),
(389,473,o),
(400,511,o),
(413,546,c),
(363,546,l),
(347,506,o),
(337,468,o),
(337,428,cs),
(337,343,o),
(388,290,o),
(474,290,cs),
(589,290,o),
(656,402,o),
(656,512,cs),
(656,627,o),
(570,702,o),
(430,702,cs),
(193,702,o),
(84,459,o),
(84,272,cs),
(84,100,o),
(184,0,o),
(360,0,cs)
);
}
);
width = 669;
}
);
metricLeft = "=|theCarrier-canadian";
metricRight = "=|yeCarrier-canadian";
note = uni1613;
unicode = 5651;
},
{
color = 9;
glyphname = "juCarrier-canadian";
lastChange = "2023-01-13 15:55:03 +0000";
layers = (
{
layerId = "DE93BBBF-E17B-48DE-A6AB-0C4E62D4ADD4";
shapes = (
{
closed = 1;
nodes = (
(517,-13,o),
(620,108,o),
(620,248,cs),
(620,339,o),
(567,400,o),
(481,400,cs),
(368,400,o),
(314,300,o),
(304,196,cs),
(301,178,o),
(300,159,o),
(300,144,c),
(352,144,l),
(351,156,o),
(352,171,o),
(355,190,cs),
(362,271,o),
(398,350,o),
(478,350,cs),
(533,350,o),
(565,310,o),
(565,247,cs),
(565,137,o),
(491,42,o),
(355,42,cs),
(220,42,o),
(143,114,o),
(143,239,cs),
(143,452,o),
(315,634,o),
(610,634,cs),
(696,634,l),
(708,690,l),
(169,690,l),
(157,635,l),
(491,635,l),
(554,659,l),
(274,657,o),
(81,479,o),
(81,241,cs),
(81,88,o),
(185,-13,o),
(349,-13,cs)
);
}
);
width = 690;
}
);
metricRight = "=|yeCarrier-canadian";
note = uni1614;
unicode = 5652;
},
{
color = 9;
glyphname = "juSayisi-canadian";
lastChange = "2023-01-13 15:55:06 +0000";
layers = (
{
anchors = (
{
name = top_center_can;
pos = (459,690);
}
);
layerId = "DE93BBBF-E17B-48DE-A6AB-0C4E62D4ADD4";
shapes = (
{
closed = 1;
nodes = (
(528,-13,o),
(633,188,o),
(636,364,cs),
(640,549,o),
(521,658,o),
(300,662,c),
(376,635,l),
(702,635,l),
(714,690,l),
(174,690,l),
(162,634,l),
(249,634,ls),
(470,634,o),
(579,542,o),
(576,370,cs),
(574,233,o),
(508,42,o),
(296,42,cs),
(177,42,o),
(114,96,o),
(115,185,cs),
(115,265,o),
(162,350,o),
(241,350,cs),
(295,350,o),
(325,314,o),
(324,252,cs),
(324,217,o),
(313,175,o),
(299,144,c),
(350,144,l),
(369,185,o),
(375,228,o),
(376,259,cs),
(378,346,o),
(328,400,o),
(243,400,cs),
(132,400,o),
(62,294,o),
(60,183,cs),
(57,65,o),
(142,-13,o),
(294,-13,cs)
);
}
);
width = 688;
}
);
metricLeft = "yeCarrier-canadian";
metricRight = "=|juCarrier-canadian";
note = uni1615;
unicode = 5653;
},
{
color = 9;
glyphname = "joCarrier-canadian";
lastChange = "2023-01-13 15:55:06 +0000";
layers = (
{
layerId = "DE93BBBF-E17B-48DE-A6AB-0C4E62D4ADD4";
shapes = (
{
closed = 1;
nodes = (
(567,0,l),
(579,55,l),
(244,55,l),
(183,31,l),
(462,33,o),
(654,211,o),
(654,449,cs),
(654,602,o),
(551,702,o),
(387,702,cs),
(219,702,o),
(116,582,o),
(116,441,cs),
(116,351,o),
(169,290,o),
(255,290,cs),
(367,290,o),
(422,389,o),
(432,494,cs),
(435,512,o),
(436,530,o),
(435,546,c),
(384,546,l),
(384,534,o),
(384,519,o),
(382,499,cs),
(374,418,o),
(337,340,o),
(258,340,cs),
(202,340,o),
(171,380,o),
(171,442,cs),
(171,553,o),
(245,648,o),
(382,648,cs),
(515,648,o),
(592,576,o),
(592,451,cs),
(592,238,o),
(421,56,o),
(127,56,cs),
(40,56,l),
(28,0,l)
);
}
);
width = 688;
}
);
metricLeft = "yeCarrier-canadian";
metricRight = "=|juCarrier-canadian";
note = uni1616;
unicode = 5654;
},
{
color = 9;
glyphname = "jeCarrier-canadian";
lastChange = "2023-01-13 15:55:03 +0000";
layers = (
{
layerId = "DE93BBBF-E17B-48DE-A6AB-0C4E62D4ADD4";
shapes = (
{
closed = 1;
nodes = (
(639,-13,o),
(685,308,o),
(685,438,cs),
(685,608,o),
(609,702,o),
(462,702,cs),
(327,702,o),
(229,617,o),
(172,449,c),
(184,433,l),
(239,690,l),
(177,690,l),
(30,0,l),
(92,0,l),
(153,287,ls),
(203,526,o),
(302,645,o),
(451,645,cs),
(570,645,o),
(626,575,o),
(626,436,cs),
(626,351,o),
(598,40,o),
(448,40,cs),
(392,40,o),
(360,76,o),
(360,140,cs),
(360,215,o),
(394,324,o),
(504,324,cs),
(521,324,o),
(534,322,o),
(547,318,c),
(557,367,l),
(541,373,o),
(523,375,o),
(501,375,cs),
(356,375,o),
(305,238,o),
(305,137,cs),
(305,45,o),
(357,-13,o),
(443,-13,cs)
);
}
);
width = 733;
}
);
metricLeft = "nunavuth-canadian";
metricRight = "te-canadian";
note = uni1617;
unicode = 5655;
},
{
color = 9;
glyphname = "jeeCarrier-canadian";
lastChange = "2023-01-13 15:55:03 +0000";
layers = (
{
layerId = "DE93BBBF-E17B-48DE-A6AB-0C4E62D4ADD4";
shapes = (
{
closed = 1;
nodes = (
(639,-13,o),
(685,308,o),
(685,437,cs),
(685,608,o),
(609,702,o),
(462,702,cs),
(326,702,o),
(229,617,o),
(172,448,c),
(184,433,l),
(239,690,l),
(177,690,l),
(30,0,l),
(92,0,l),
(153,285,ls),
(203,526,o),
(302,645,o),
(451,645,cs),
(570,645,o),
(626,574,o),
(626,436,cs),
(626,343,o),
(596,40,o),
(441,40,cs),
(381,40,o),
(347,78,o),
(347,145,cs),
(347,213,o),
(375,315,o),
(469,328,c),
(449,237,l),
(488,237,l),
(533,454,l),
(495,454,l),
(477,370,l),
(348,354,o),
(305,227,o),
(305,136,cs),
(305,45,o),
(357,-13,o),
(444,-13,cs)
);
}
);
width = 733;
}
);
metricLeft = "nunavuth-canadian";
metricRight = "jeCarrier-canadian";
note = uni1618;
unicode = 5656;
},
{
color = 9;
glyphname = "jiCarrier-canadian";
lastChange = "2023-01-13 15:55:03 +0000";
layers = (
{
layerId = "DE93BBBF-E17B-48DE-A6AB-0C4E62D4ADD4";
shapes = (
{
closed = 1;
nodes = (
(639,-13,o),
(685,308,o),
(685,437,cs),
(685,608,o),
(609,702,o),
(462,702,cs),
(326,702,o),
(229,617,o),
(172,448,c),
(184,433,l),
(239,690,l),
(177,690,l),
(30,0,l),
(92,0,l),
(153,285,ls),
(203,526,o),
(302,645,o),
(451,645,cs),
(570,645,o),
(626,574,o),
(626,436,cs),
(626,343,o),
(596,40,o),
(441,40,cs),
(381,40,o),
(347,78,o),
(347,145,cs),
(347,203,o),
(367,285,o),
(433,314,c),
(440,298,o),
(458,285,o),
(479,285,cs),
(513,285,o),
(537,312,o),
(537,346,cs),
(537,380,o),
(512,405,o),
(478,405,cs),
(446,405,o),
(422,381,o),
(420,349,c),
(333,313,o),
(305,212,o),
(305,136,cs),
(305,45,o),
(357,-13,o),
(444,-13,cs)
);
}
);
width = 733;
}
);
metricLeft = "nunavuth-canadian";
metricRight = "jeCarrier-canadian";
note = uni1619;
unicode = 5657;
},
{
color = 9;
glyphname = "jiSayisi-canadian";
lastChange = "2023-01-13 15:55:03 +0000";
layers = (
{
layerId = "DE93BBBF-E17B-48DE-A6AB-0C4E62D4ADD4";
shapes = (
{
closed = 1;
nodes = (
(612,-13,o),
(706,337,o),
(706,514,cs),
(706,637,o),
(658,702,o),
(564,702,cs),
(425,702,o),
(374,550,o),
(374,455,cs),
(374,366,o),
(423,315,o),
(497,315,cs),
(517,315,o),
(536,318,o),
(547,323,c),
(558,373,l),
(547,368,o),
(532,366,o),
(517,366,cs),
(460,366,o),
(428,396,o),
(428,460,cs),
(428,515,o),
(457,650,o),
(560,650,cs),
(620,650,o),
(648,608,o),
(648,519,cs),
(648,377,o),
(577,44,o),
(347,44,cs),
(154,44,o),
(143,242,o),
(180,413,cs),
(239,690,l),
(177,690,l),
(30,0,l),
(92,0,l),
(160,328,l),
(147,340,l),
(109,164,o),
(154,-13,o),
(349,-13,cs)
);
}
);
width = 735;
}
);
metricLeft = "nunavuth-canadian";
metricRight = "jeCarrier-canadian";
note = uni161A;
unicode = 5658;
},
{
color = 9;
glyphname = "jaCarrier-canadian";
lastChange = "2023-01-13 15:55:06 +0000";
layers = (
{
anchors = (
{
name = top_center_can;
pos = (455,690);
}
);
layerId = "DE93BBBF-E17B-48DE-A6AB-0C4E62D4ADD4";
shapes = (
{
closed = 1;
nodes = (
(454,-12,o),
(551,72,o),
(608,242,c),
(596,258,l),
(542,0,l),
(603,0,l),
(750,690,l),
(688,690,l),
(627,403,ls),
(577,165,o),
(477,44,o),
(328,44,cs),
(211,44,o),
(154,115,o),
(154,255,cs),
(154,339,o),
(183,650,o),
(331,650,cs),
(388,650,o),
(420,613,o),
(420,551,cs),
(420,474,o),
(385,366,o),
(275,366,cs),
(260,366,o),
(246,368,o),
(233,373,c),
(223,323,l),
(240,317,o),
(257,315,o),
(278,315,cs),
(424,315,o),
(474,453,o),
(474,554,cs),
(474,645,o),
(423,702,o),
(336,702,cs),
(141,702,o),
(94,382,o),
(94,252,cs),
(94,83,o),
(172,-12,o),
(318,-12,cs)
);
}
);
width = 733;
}
);
metricLeft = "=|jeCarrier-canadian";
metricRight = "nunavuth-canadian";
note = uni161B;
unicode = 5659;
},
{
color = 9;
glyphname = "jjuCarrier-canadian";
lastChange = "2023-01-13 15:55:06 +0000";
layers = (
{
layerId = "DE93BBBF-E17B-48DE-A6AB-0C4E62D4ADD4";
shapes = (
{
closed = 1;
nodes = (
(501,-13,o),
(606,106,o),
(606,248,cs),
(606,339,o),
(552,400,o),
(465,400,cs),
(377,400,o),
(317,342,o),
(294,232,cs),
(286,201,o),
(283,170,o),
(283,144,c),
(334,144,l),
(334,167,o),
(336,193,o),
(343,223,cs),
(361,305,o),
(401,350,o),
(461,350,cs),
(518,350,o),
(551,309,o),
(551,246,cs),
(551,135,o),
(472,42,o),
(340,42,cs),
(213,42,o),
(142,114,o),
(142,243,cs),
(142,430,o),
(249,634,o),
(543,634,cs),
(675,634,l),
(687,690,l),
(554,690,ls),
(419,690,o),
(319,655,o),
(245,601,c),
(166,702,l),
(116,663,l),
(198,559,l),
(111,472,o),
(81,349,o),
(81,247,cs),
(81,88,o),
(177,-13,o),
(336,-13,cs)
);
}
);
width = 676;
}
);
metricRight = "=|yeCarrier-canadian";
note = uni161C;
unicode = 5660;
},
{
color = 9;
glyphname = "jjoCarrier-canadian";
lastChange = "2023-01-13 15:55:03 +0000";
layers = (
{
layerId = "DE93BBBF-E17B-48DE-A6AB-0C4E62D4ADD4";
shapes = (
{
closed = 1;
nodes = (
(606,27,l),
(524,130,l),
(611,217,o),
(640,341,o),
(640,442,cs),
(640,602,o),
(545,702,o),
(385,702,cs),
(220,702,o),
(116,583,o),
(116,441,cs),
(116,351,o),
(170,290,o),
(257,290,cs),
(345,290,o),
(405,348,o),
(428,458,cs),
(436,489,o),
(439,520,o),
(439,546,c),
(388,546,l),
(387,523,o),
(385,497,o),
(379,467,cs),
(360,384,o),
(321,340,o),
(261,340,cs),
(204,340,o),
(171,381,o),
(171,443,cs),
(171,554,o),
(249,648,o),
(382,648,cs),
(509,648,o),
(580,576,o),
(580,446,cs),
(580,260,o),
(472,56,o),
(179,56,cs),
(46,56,l),
(35,0,l),
(167,0,ls),
(302,0,o),
(403,35,o),
(476,89,c),
(555,-13,l)
);
}
);
width = 675;
}
);
metricLeft = "yeCarrier-canadian";
metricRight = "=|jjuCarrier-canadian";
note = uni161D;
unicode = 5661;
},
{
color = 9;
glyphname = "jjeCarrier-canadian";
lastChange = "2023-01-13 15:55:03 +0000";
layers = (
{
layerId = "DE93BBBF-E17B-48DE-A6AB-0C4E62D4ADD4";
shapes = (
{
closed = 1;
nodes = (
(643,-13,o),
(690,309,o),
(690,438,cs),
(690,611,o),
(609,702,o),
(452,702,cs),
(369,702,o),
(297,675,o),
(239,617,c),
(170,701,l),
(123,662,l),
(197,570,l),
(158,518,o),
(130,448,o),
(111,360,cs),
(35,0,l),
(97,0,l),
(172,355,ls),
(213,548,o),
(306,645,o),
(448,645,cs),
(572,645,o),
(631,578,o),
(631,436,cs),
(631,352,o),
(602,40,o),
(453,40,cs),
(396,40,o),
(364,76,o),
(364,140,cs),
(364,216,o),
(399,324,o),
(509,324,cs),
(528,324,o),
(541,322,o),
(552,318,c),
(561,367,l),
(548,373,o),
(529,375,o),
(509,375,cs),
(362,375,o),
(310,238,o),
(310,137,cs),
(310,45,o),
(361,-13,o),
(448,-13,cs)
);
}
);
width = 738;
}
);
metricRight = "jeCarrier-canadian";
note = uni161E;
unicode = 5662;
},
{
color = 9;
glyphname = "jjeeCarrier-canadian";
lastChange = "2023-01-13 15:55:03 +0000";
layers = (
{
layerId = "DE93BBBF-E17B-48DE-A6AB-0C4E62D4ADD4";
shapes = (
{
closed = 1;
nodes = (
(643,-13,o),
(690,309,o),
(690,438,cs),
(690,611,o),
(609,702,o),
(452,702,cs),
(369,702,o),
(297,675,o),
(239,617,c),
(170,701,l),
(123,662,l),
(197,570,l),
(158,518,o),
(130,448,o),
(111,360,cs),
(35,0,l),
(97,0,l),
(172,355,ls),
(213,548,o),
(306,645,o),
(448,645,cs),
(572,645,o),
(631,578,o),
(631,436,cs),
(631,350,o),
(603,40,o),
(446,40,cs),
(386,40,o),
(351,78,o),
(351,146,cs),
(351,217,o),
(379,313,o),
(468,328,c),
(448,237,l),
(487,237,l),
(532,453,l),
(494,453,l),
(476,368,l),
(353,352,o),
(310,229,o),
(310,137,cs),
(310,45,o),
(361,-13,o),
(448,-13,cs)
);
}
);
width = 738;
}
);
metricLeft = "jjeCarrier-canadian";
metricRight = "jeCarrier-canadian";
note = uni161F;
unicode = 5663;
},
{
color = 9;
glyphname = "jjiCarrier-canadian";
lastChange = "2023-01-13 15:55:03 +0000";
layers = (
{
layerId = "DE93BBBF-E17B-48DE-A6AB-0C4E62D4ADD4";
shapes = (
{
closed = 1;
nodes = (
(605,-13,o),
(659,195,o),
(681,351,cs),
(710,575,o),
(630,702,o),
(451,702,cs),
(365,702,o),
(294,673,o),
(238,618,c),
(170,701,l),
(123,662,l),
(197,571,l),
(158,518,o),
(129,447,o),
(111,360,cs),
(35,0,l),
(97,0,l),
(172,355,ls),
(213,548,o),
(306,645,o),
(448,645,cs),
(588,645,o),
(646,548,o),
(622,355,cs),
(605,234,o),
(573,40,o),
(446,40,cs),
(378,40,o),
(345,90,o),
(355,176,cs),
(360,236,o),
(382,295,o),
(439,315,c),
(446,298,o),
(465,285,o),
(486,285,cs),
(521,285,o),
(545,313,o),
(545,346,cs),
(545,380,o),
(520,405,o),
(486,405,cs),
(453,405,o),
(431,380,o),
(428,351,c),
(355,324,o),
(322,249,o),
(314,173,cs),
(300,60,o),
(353,-13,o),
(448,-13,cs)
);
}
);
width = 733;
}
);
metricLeft = "jjeCarrier-canadian";
metricRight = "jeCarrier-canadian";
note = uni1620;
unicode = 5664;
},
{
color = 9;
glyphname = "jjaCarrier-canadian";
lastChange = "2023-01-13 15:55:06 +0000";
layers = (
{
layerId = "DE93BBBF-E17B-48DE-A6AB-0C4E62D4ADD4";
shapes = (
{
closed = 1;
nodes = (
(414,-13,o),
(488,14,o),
(546,72,c),
(613,-12,l),
(662,28,l),
(586,120,l),
(625,172,o),
(654,242,o),
(672,329,cs),
(749,690,l),
(688,690,l),
(612,334,ls),
(571,142,o),
(477,44,o),
(335,44,cs),
(212,44,o),
(154,112,o),
(154,254,cs),
(154,338,o),
(182,650,o),
(331,650,cs),
(387,650,o),
(419,613,o),
(419,550,cs),
(419,473,o),
(384,366,o),
(275,366,cs),
(256,366,o),
(242,368,o),
(233,372,c),
(222,323,l),
(236,317,o),
(254,315,o),
(274,315,cs),
(422,315,o),
(474,452,o),
(474,553,cs),
(474,644,o),
(422,702,o),
(335,702,cs),
(140,702,o),
(94,381,o),
(94,252,cs),
(94,78,o),
(176,-13,o),
(332,-13,cs)
);
}
);
width = 738;
}
);
metricLeft = "=|jeCarrier-canadian";
metricRight = "=|jjeCarrier-canadian";
note = uni1621;
unicode = 5665;
},
{
color = 9;
glyphname = "luCarrier-canadian";
lastChange = "2023-01-13 15:55:06 +0000";
layers = (
{
layerId = "DE93BBBF-E17B-48DE-A6AB-0C4E62D4ADD4";
shapes = (
{
closed = 1;
nodes = (
(483,-13,o),
(582,79,o),
(621,266,cs),
(711,690,l),
(649,690,l),
(560,271,ls),
(527,118,o),
(452,44,o),
(327,44,cs),
(205,44,o),
(140,116,o),
(140,237,cs),
(140,406,o),
(246,630,o),
(460,639,c),
(471,690,l),
(160,690,l),
(150,638,l),
(354,638,l),
(392,653,l),
(192,631,o),
(78,411,o),
(78,234,cs),
(78,83,o),
(169,-13,o),
(325,-13,cs)
);
}
);
width = 688;
}
);
metricRight = "te-canadian";
note = uni1622;
unicode = 5666;
},
{
color = 9;
glyphname = "loCarrier-canadian";
lastChange = "2023-01-13 15:55:06 +0000";
layers = (
{
layerId = "DE93BBBF-E17B-48DE-A6AB-0C4E62D4ADD4";
shapes = (
{
closed = 1;
nodes = (
(85,0,l),
(174,418,ls),
(207,572,o),
(281,645,o),
(407,645,cs),
(529,645,o),
(594,574,o),
(594,453,cs),
(594,284,o),
(488,60,o),
(274,51,c),
(263,0,l),
(574,0,l),
(584,52,l),
(381,52,l),
(342,37,l),
(542,59,o),
(656,279,o),
(656,456,cs),
(656,607,o),
(565,702,o),
(409,702,cs),
(251,702,o),
(153,611,o),
(113,424,cs),
(23,0,l)
);
}
);
width = 687;
}
);
metricLeft = "te-canadian";
metricRight = "=|luCarrier-canadian";
note = uni1623;
unicode = 5667;
},
{
color = 9;
glyphname = "leCarrier-canadian";
lastChange = "2023-01-13 15:55:06 +0000";
layers = (
{
anchors = (
{
name = middle_center_can;
pos = (355,346);
}
);
layerId = "DE93BBBF-E17B-48DE-A6AB-0C4E62D4ADD4";
shapes = (
{
closed = 1;
nodes = (
(232,0,ls),
(537,0,o),
(629,253,o),
(629,443,cs),
(629,602,o),
(552,702,o),
(420,702,cs),
(312,702,o),
(226,632,o),
(180,505,c),
(189,505,l),
(229,690,l),
(173,690,l),
(108,385,l),
(160,385,l),
(201,552,o),
(289,645,o),
(405,645,cs),
(509,645,o),
(567,569,o),
(567,440,cs),
(567,277,o),
(487,56,o),
(240,56,cs),
(39,56,l),
(26,0,l)
);
}
);
width = 663;
}
);
metricRight = "theCarrier-canadian";
note = uni1624;
unicode = 5668;
},
{
color = 9;
glyphname = "laCarrier-canadian";
lastChange = "2023-01-13 15:55:06 +0000";
layers = (
{
layerId = "DE93BBBF-E17B-48DE-A6AB-0C4E62D4ADD4";
shapes = (
{
closed = 1;
nodes = (
(537,0,l),
(549,56,l),
(365,56,ls),
(215,56,o),
(144,126,o),
(144,262,cs),
(144,402,o),
(217,645,o),
(413,645,cs),
(537,645,o),
(596,544,o),
(567,385,c),
(619,385,l),
(684,690,l),
(628,690,l),
(585,491,l),
(595,490,l),
(599,621,o),
(528,702,o),
(408,702,cs),
(179,702,o),
(82,430,o),
(82,261,cs),
(82,94,o),
(175,0,o),
(356,0,cs)
);
}
);
width = 663;
}
);
metricLeft = "=|theCarrier-canadian";
metricRight = "=|leCarrier-canadian";
note = uni1627;
unicode = 5671;
},
{
color = 1;
glyphname = "dluCarrier-canadian";
lastChange = "2023-01-13 15:55:03 +0000";
layers = (
{
layerId = "DE93BBBF-E17B-48DE-A6AB-0C4E62D4ADD4";
shapes = (
{
closed = 1;
nodes = (
(561,-13,o),
(641,256,o),
(641,407,cs),
(641,544,o),
(574,637,o),
(458,657,c),
(473,641,l),
(699,641,l),
(682,557,l),
(730,557,l),
(776,773,l),
(728,773,l),
(710,690,l),
(410,690,l),
(398,639,l),
(521,626,o),
(583,548,o),
(583,418,cs),
(583,298,o),
(526,44,o),
(309,44,cs),
(173,44,o),
(113,132,o),
(146,288,cs),
(232,690,l),
(170,690,l),
(85,292,ls),
(45,103,o),
(130,-13,o),
(306,-13,cs)
);
}
);
width = 720;
}
);
metricLeft = "te-canadian";
note = uni1628;
unicode = 5672;
},
{
color = 9;
glyphname = "dloCarrier-canadian";
lastChange = "2023-01-13 15:55:06 +0000";
layers = (
{
layerId = "DE93BBBF-E17B-48DE-A6AB-0C4E62D4ADD4";
shapes = (
{
closed = 1;
nodes = (
(594,-83,l),
(640,132,l),
(592,132,l),
(575,49,l),
(380,49,l),
(372,43,l),
(551,71,o),
(656,283,o),
(656,456,cs),
(656,607,o),
(565,702,o),
(409,702,cs),
(251,702,o),
(153,611,o),
(113,424,cs),
(23,0,l),
(85,0,l),
(174,418,ls),
(207,572,o),
(281,645,o),
(407,645,cs),
(529,645,o),
(594,574,o),
(594,453,cs),
(594,284,o),
(488,60,o),
(274,51,c),
(263,0,l),
(564,0,l),
(547,-83,l)
);
}
);
width = 720;
}
);
metricLeft = "te-canadian";
metricRight = "dluCarrier-canadian";
note = uni1629;
unicode = 5673;
},
{
color = 9;
glyphname = "dleCarrier-canadian";
lastChange = "2023-01-13 15:55:06 +0000";
layers = (
{
anchors = (
{
name = middle_center_can;
pos = (365,346);
}
);
layerId = "DE93BBBF-E17B-48DE-A6AB-0C4E62D4ADD4";
shapes = (
{
closed = 1;
nodes = (
(242,0,ls),
(548,0,o),
(639,253,o),
(639,443,cs),
(639,602,o),
(561,702,o),
(431,702,cs),
(321,702,o),
(226,626,o),
(178,493,c),
(187,493,l),
(231,703,l),
(312,703,l),
(322,750,l),
(119,750,l),
(108,703,l),
(186,703,l),
(119,385,l),
(171,385,l),
(212,552,o),
(299,645,o),
(415,645,cs),
(520,645,o),
(578,569,o),
(578,440,cs),
(578,277,o),
(497,56,o),
(250,56,cs),
(48,56,l),
(37,0,l)
);
}
);
width = 673;
}
);
metricRight = "theCarrier-canadian";
note = uni162A;
unicode = 5674;
},
{
color = 9;
glyphname = "dlaCarrier-canadian";
lastChange = "2023-01-13 15:55:06 +0000";
layers = (
{
layerId = "DE93BBBF-E17B-48DE-A6AB-0C4E62D4ADD4";
shapes = (
{
closed = 1;
nodes = (
(537,0,l),
(549,56,l),
(365,56,ls),
(215,56,o),
(144,126,o),
(144,262,cs),
(144,402,o),
(217,645,o),
(413,645,cs),
(537,645,o),
(596,544,o),
(567,385,c),
(619,385,l),
(687,703,l),
(763,703,l),
(773,750,l),
(570,750,l),
(561,703,l),
(638,703,l),
(593,489,l),
(602,488,l),
(606,621,o),
(528,702,o),
(408,702,cs),
(179,702,o),
(82,430,o),
(82,261,cs),
(82,94,o),
(175,0,o),
(356,0,cs)
);
}
);
width = 673;
}
);
metricLeft = "=|theCarrier-canadian";
metricRight = "=|dleCarrier-canadian";
note = uni162D;
unicode = 5677;
},
{
color = 9;
glyphname = "lhuCarrier-canadian";
lastChange = "2023-01-13 15:55:03 +0000";
layers = (
{
layerId = "DE93BBBF-E17B-48DE-A6AB-0C4E62D4ADD4";
shapes = (
{
closed = 1;
nodes = (
(594,-13,o),
(684,230,o),
(684,410,cs),
(684,533,o),
(633,622,o),
(539,656,c),
(555,637,l),
(749,637,l),
(760,690,l),
(519,690,l),
(507,639,l),
(584,610,o),
(625,533,o),
(625,426,cs),
(625,278,o),
(561,44,o),
(354,44,cs),
(224,44,o),
(151,123,o),
(151,256,cs),
(151,388,o),
(217,600,o),
(391,639,c),
(402,690,l),
(160,690,l),
(149,637,l),
(348,637,l),
(372,662,l),
(171,622,o),
(89,408,o),
(89,252,cs),
(89,90,o),
(187,-13,o),
(353,-13,cs)
);
}
);
width = 727;
}
);
metricLeft = "luCarrier-canadian";
metricRight = "=|";
note = uni162E;
unicode = 5678;
},
{
color = 9;
glyphname = "lhoCarrier-canadian";
lastChange = "2023-01-13 15:55:06 +0000";
layers = (
{
layerId = "DE93BBBF-E17B-48DE-A6AB-0C4E62D4ADD4";
shapes = (
{
closed = 1;
nodes = (
(254,0,l),
(266,51,l),
(188,80,o),
(148,156,o),
(148,264,cs),
(148,412,o),
(212,645,o),
(419,645,cs),
(549,645,o),
(622,567,o),
(622,434,cs),
(622,301,o),
(555,90,o),
(382,51,c),
(371,0,l),
(612,0,l),
(624,53,l),
(425,53,l),
(401,28,l),
(602,68,o),
(684,282,o),
(684,438,cs),
(684,600,o),
(585,702,o),
(420,702,cs),
(179,702,o),
(89,460,o),
(89,280,cs),
(89,156,o),
(140,68,o),
(234,34,c),
(217,53,l),
(24,53,l),
(13,0,l)
);
}
);
width = 726;
}
);
metricLeft = "luCarrier-canadian";
metricRight = "=|";
note = uni162F;
unicode = 5679;
},
{
color = 9;
glyphname = "lheCarrier-canadian";
lastChange = "2023-01-13 15:55:06 +0000";
layers = (
{
anchors = (
{
name = middle_center_can;
pos = (373,345);
}
);
layerId = "DE93BBBF-E17B-48DE-A6AB-0C4E62D4ADD4";
shapes = (
{
closed = 1;
nodes = (
(563,-13,o),
(658,256,o),
(658,436,cs),
(658,598,o),
(573,702,o),
(432,702,cs),
(326,702,o),
(239,640,o),
(192,531,c),
(198,530,l),
(232,690,l),
(177,690,l),
(119,419,l),
(171,419,l),
(213,565,o),
(301,645,o),
(414,645,cs),
(531,645,o),
(596,567,o),
(596,434,cs),
(596,284,o),
(522,44,o),
(326,44,cs),
(202,44,o),
(124,138,o),
(139,270,c),
(87,270,l),
(30,0,l),
(85,0,l),
(125,187,l),
(115,185,l),
(123,66,o),
(210,-13,o),
(333,-13,cs)
);
}
);
width = 693;
}
);
metricLeft = "nunavuth-canadian";
metricRight = "theCarrier-canadian";
note = uni1630;
unicode = 5680;
},
{
color = 9;
glyphname = "lhaCarrier-canadian";
lastChange = "2023-01-13 15:55:06 +0000";
layers = (
{
layerId = "DE93BBBF-E17B-48DE-A6AB-0C4E62D4ADD4";
shapes = (
{
closed = 1;
nodes = (
(413,-13,o),
(501,49,o),
(548,158,c),
(542,159,l),
(507,0,l),
(563,0,l),
(620,270,l),
(568,270,l),
(526,125,o),
(438,44,o),
(325,44,cs),
(209,44,o),
(144,123,o),
(144,256,cs),
(144,406,o),
(217,645,o),
(412,645,cs),
(537,645,o),
(615,552,o),
(600,419,c),
(652,419,l),
(709,690,l),
(654,690,l),
(614,502,l),
(625,504,l),
(616,624,o),
(530,702,o),
(407,702,cs),
(176,702,o),
(82,434,o),
(82,254,cs),
(82,92,o),
(167,-13,o),
(307,-13,cs)
);
}
);
width = 693;
}
);
metricLeft = "=|theCarrier-canadian";
metricRight = "nunavuth-canadian";
note = uni1633;
unicode = 5683;
},
{
color = 9;
glyphname = "tlhuCarrier-canadian";
lastChange = "2023-01-13 15:55:03 +0000";
layers = (
{
layerId = "DE93BBBF-E17B-48DE-A6AB-0C4E62D4ADD4";
shapes = (
{
closed = 1;
nodes = (
(594,-13,o),
(684,230,o),
(684,410,cs),
(684,530,o),
(639,621,o),
(546,656,c),
(547,640,l),
(740,640,l),
(723,557,l),
(770,557,l),
(815,773,l),
(768,773,l),
(751,690,l),
(519,690,l),
(507,639,l),
(584,610,o),
(625,533,o),
(625,426,cs),
(625,278,o),
(561,44,o),
(354,44,cs),
(224,44,o),
(151,123,o),
(151,256,cs),
(151,388,o),
(217,600,o),
(391,639,c),
(402,690,l),
(160,690,l),
(149,637,l),
(349,637,l),
(364,659,l),
(160,615,o),
(89,397,o),
(89,252,cs),
(89,90,o),
(187,-13,o),
(353,-13,cs)
);
}
);
width = 749;
}
);
metricLeft = "lhuCarrier-canadian";
note = uni1634;
unicode = 5684;
},
{
color = 9;
glyphname = "tlhoCarrier-canadian";
lastChange = "2023-01-13 15:55:06 +0000";
layers = (
{
layerId = "DE93BBBF-E17B-48DE-A6AB-0C4E62D4ADD4";
shapes = (
{
closed = 1;
nodes = (
(28,-83,l),
(45,0,l),
(277,0,l),
(288,51,l),
(211,80,o),
(171,156,o),
(171,264,cs),
(171,412,o),
(235,645,o),
(442,645,cs),
(571,645,o),
(644,567,o),
(644,434,cs),
(644,301,o),
(579,90,o),
(405,51,c),
(393,0,l),
(635,0,l),
(646,53,l),
(446,53,l),
(431,31,l),
(636,74,o),
(706,293,o),
(706,438,cs),
(706,600,o),
(608,702,o),
(443,702,cs),
(202,702,o),
(111,460,o),
(111,280,cs),
(111,159,o),
(156,69,o),
(249,34,c),
(249,49,l),
(56,49,l),
(73,132,l),
(25,132,l),
(-20,-83,l)
);
}
);
width = 748;
}
);
metricLeft = "=|tlhuCarrier-canadian";
metricRight = "lhuCarrier-canadian";
note = uni1635;
unicode = 5685;
},
{
color = 9;
glyphname = "tlheCarrier-canadian";
lastChange = "2023-01-13 15:55:03 +0000";
layers = (
{
anchors = (
{
name = middle_center_can;
pos = (380,345);
}
);
layerId = "DE93BBBF-E17B-48DE-A6AB-0C4E62D4ADD4";
shapes = (
{
closed = 1;
nodes = (
(571,-13,o),
(665,256,o),
(665,436,cs),
(665,598,o),
(580,702,o),
(440,702,cs),
(326,702,o),
(234,634,o),
(185,514,c),
(196,522,l),
(235,703,l),
(312,703,l),
(323,750,l),
(119,750,l),
(108,703,l),
(186,703,l),
(127,419,l),
(179,419,l),
(220,565,o),
(309,645,o),
(422,645,cs),
(538,645,o),
(604,567,o),
(604,434,cs),
(604,284,o),
(529,44,o),
(334,44,cs),
(210,44,o),
(131,138,o),
(147,270,c),
(95,270,l),
(38,0,l),
(93,0,l),
(132,187,l),
(122,185,l),
(130,66,o),
(216,-13,o),
(341,-13,cs)
);
}
);
width = 701;
}
);
metricLeft = "dleCarrier-canadian";
metricRight = "theCarrier-canadian";
note = uni1636;
unicode = 5686;
},
{
color = 9;
glyphname = "tlhaCarrier-canadian";
lastChange = "2023-01-13 15:55:06 +0000";
layers = (
{
layerId = "DE93BBBF-E17B-48DE-A6AB-0C4E62D4ADD4";
shapes = (
{
closed = 1;
nodes = (
(413,-13,o),
(501,49,o),
(548,158,c),
(542,159,l),
(508,0,l),
(563,0,l),
(621,270,l),
(569,270,l),
(526,125,o),
(439,44,o),
(325,44,cs),
(209,44,o),
(144,123,o),
(144,256,cs),
(144,406,o),
(217,645,o),
(412,645,cs),
(537,645,o),
(615,552,o),
(600,419,c),
(652,419,l),
(713,703,l),
(790,703,l),
(801,750,l),
(597,750,l),
(587,703,l),
(665,703,l),
(621,500,l),
(629,501,l),
(619,625,o),
(531,702,o),
(407,702,cs),
(176,702,o),
(82,434,o),
(82,254,cs),
(82,92,o),
(167,-13,o),
(307,-13,cs)
);
}
);
width = 701;
}
);
metricLeft = "=|theCarrier-canadian";
metricRight = "=|dleCarrier-canadian";
note = uni1639;
unicode = 5689;
},
{
color = 9;
glyphname = "tluCarrier-canadian";
lastChange = "2023-01-13 15:55:03 +0000";
layers = (
{
layerId = "DE93BBBF-E17B-48DE-A6AB-0C4E62D4ADD4";
shapes = (
{
closed = 1;
nodes = (
(315,-13,o),
(371,31,o),
(408,122,c),
(391,122,l),
(399,38,o),
(454,-13,o),
(540,-13,cs),
(736,-13,o),
(791,270,o),
(791,412,cs),
(791,535,o),
(744,617,o),
(656,649,c),
(643,641,l),
(849,641,l),
(831,557,l),
(879,557,l),
(924,773,l),
(877,773,l),
(859,690,l),
(574,690,l),
(562,639,l),
(676,626,o),
(732,556,o),
(732,425,cs),
(732,309,o),
(690,43,o),
(539,43,cs),
(457,43,o),
(422,103,o),
(444,208,cs),
(464,298,l),
(405,298,l),
(386,210,ls),
(362,98,o),
(318,43,o),
(242,43,cs),
(172,43,o),
(136,90,o),
(136,185,cs),
(136,301,o),
(194,635,o),
(445,639,c),
(456,690,l),
(160,690,l),
(150,637,l),
(337,637,l),
(327,645,l),
(142,586,o),
(75,330,o),
(75,183,cs),
(75,58,o),
(131,-13,o),
(234,-13,cs)
);
}
);
width = 858;
}
);
metricRight = "tlhuCarrier-canadian";
note = uni163A;
unicode = 5690;
},
{
color = 1;
glyphname = "tloCarrier-canadian";
lastChange = "2023-01-13 15:55:06 +0000";
layers = (
{
layerId = "DE93BBBF-E17B-48DE-A6AB-0C4E62D4ADD4";
shapes = (
{
closed = 1;
nodes = (
(742,-83,l),
(788,132,l),
(740,132,l),
(723,49,l),
(539,49,l),
(550,42,l),
(738,98,o),
(808,356,o),
(808,507,cs),
(808,632,o),
(751,702,o),
(648,702,cs),
(567,702,o),
(511,658,o),
(474,566,c),
(491,565,l),
(484,651,o),
(429,702,o),
(342,702,cs),
(147,702,o),
(91,420,o),
(91,277,cs),
(91,157,o),
(137,76,o),
(221,43,c),
(236,52,l),
(24,52,l),
(13,0,l),
(309,0,l),
(320,51,l),
(207,64,o),
(150,133,o),
(150,265,cs),
(150,381,o),
(192,646,o),
(344,646,cs),
(425,646,o),
(460,586,o),
(438,482,cs),
(419,391,l),
(478,391,l),
(496,480,ls),
(520,592,o),
(565,646,o),
(639,646,cs),
(710,646,o),
(746,600,o),
(746,504,cs),
(746,388,o),
(689,55,o),
(437,51,c),
(426,0,l),
(712,0,l),
(695,-83,l)
);
}
);
width = 857;
}
);
metricLeft = "tluCarrier-canadian";
metricRight = "tlhuCarrier-canadian";
note = uni163B;
unicode = 5691;
},
{
color = 9;
glyphname = "tleCarrier-canadian";
lastChange = "2023-01-13 15:55:06 +0000";
layers = (
{
anchors = (
{
name = middle_center_can;
pos = (294,345);
}
);
layerId = "DE93BBBF-E17B-48DE-A6AB-0C4E62D4ADD4";
shapes = (
{
closed = 1;
nodes = (
(514,-13,o),
(619,72,o),
(619,208,cs),
(619,283,o),
(576,340,o),
(507,351,c),
(503,337,l),
(613,347,o),
(688,429,o),
(688,531,cs),
(688,633,o),
(600,702,o),
(462,702,cs),
(334,702,o),
(239,641,o),
(189,529,c),
(195,519,l),
(234,703,l),
(312,703,l),
(322,750,l),
(119,750,l),
(108,703,l),
(186,703,l),
(126,419,l),
(178,419,l),
(214,573,o),
(302,646,o),
(446,646,cs),
(559,646,o),
(626,599,o),
(626,523,cs),
(626,423,o),
(547,372,o),
(440,372,cs),
(398,372,l),
(386,319,l),
(427,319,ls),
(511,319,o),
(559,279,o),
(559,212,cs),
(559,105,o),
(479,43,o),
(362,43,cs),
(210,43,o),
(126,130,o),
(146,270,c),
(94,270,l),
(37,0,l),
(93,0,l),
(133,191,l),
(120,180,l),
(126,63,o),
(223,-13,o),
(368,-13,cs)
);
}
);
width = 706;
}
);
metricLeft = "dleCarrier-canadian";
metricRight = "geCarrier-canadian";
note = uni163C;
unicode = 5692;
},
{
color = 9;
glyphname = "tlaCarrier-canadian";
lastChange = "2023-01-13 15:55:06 +0000";
layers = (
{
layerId = "DE93BBBF-E17B-48DE-A6AB-0C4E62D4ADD4";
shapes = (
{
closed = 1;
nodes = (
(409,-13,o),
(498,39,o),
(552,133,c),
(546,146,l),
(514,0,l),
(570,0,l),
(628,270,l),
(576,270,l),
(539,117,o),
(451,43,o),
(307,43,cs),
(194,43,o),
(128,91,o),
(128,167,cs),
(128,267,o),
(206,318,o),
(314,318,cs),
(355,318,l),
(367,371,l),
(327,371,ls),
(242,371,o),
(194,411,o),
(194,478,cs),
(194,584,o),
(274,646,o),
(392,646,cs),
(544,646,o),
(628,559,o),
(608,419,c),
(660,419,l),
(719,703,l),
(796,703,l),
(807,750,l),
(603,750,l),
(593,703,l),
(671,703,l),
(629,504,l),
(637,513,l),
(626,629,o),
(528,702,o),
(385,702,cs),
(240,702,o),
(134,617,o),
(134,482,cs),
(134,409,o),
(176,354,o),
(241,341,c),
(243,352,l),
(138,339,o),
(66,259,o),
(66,158,cs),
(66,57,o),
(153,-13,o),
(292,-13,cs)
);
}
);
width = 707;
}
);
metricLeft = "=|geCarrier-canadian";
metricRight = "=|dleCarrier-canadian";
note = uni163F;
unicode = 5695;
},
{
color = 9;
glyphname = "zuCarrier-canadian";
lastChange = "2023-01-13 15:55:06 +0000";
layers = (
{
layerId = "DE93BBBF-E17B-48DE-A6AB-0C4E62D4ADD4";
shapes = (
{
closed = 1;
nodes = (
(532,-13,o),
(658,113,o),
(658,298,cs),
(658,390,o),
(621,473,o),
(621,539,cs),
(621,599,o),
(654,636,o),
(716,636,cs),
(747,636,l),
(757,690,l),
(717,690,ls),
(618,690,o),
(562,639,o),
(562,541,cs),
(562,467,o),
(598,389,o),
(598,301,cs),
(598,150,o),
(502,44,o),
(339,44,cs),
(209,44,o),
(129,105,o),
(129,201,cs),
(129,351,o),
(303,480,o),
(303,600,cs),
(303,655,o),
(264,690,o),
(198,690,cs),
(157,690,l),
(146,636,l),
(180,636,ls),
(223,636,o),
(243,621,o),
(243,591,cs),
(243,497,o),
(69,364,o),
(69,195,cs),
(69,71,o),
(170,-13,o),
(331,-13,cs)
);
}
);
width = 722;
}
);
metricRight = "=|";
note = uni1640;
unicode = 5696;
},
{
color = 9;
glyphname = "zoCarrier-canadian";
lastChange = "2023-01-13 15:55:06 +0000";
layers = (
{
layerId = "DE93BBBF-E17B-48DE-A6AB-0C4E62D4ADD4";
shapes = (
{
closed = 1;
nodes = (
(50,0,ls),
(150,0,o),
(205,51,o),
(205,149,cs),
(205,223,o),
(169,300,o),
(169,388,cs),
(169,540,o),
(265,645,o),
(429,645,cs),
(558,645,o),
(638,584,o),
(638,489,cs),
(638,339,o),
(465,210,o),
(465,90,cs),
(465,35,o),
(503,0,o),
(570,0,cs),
(610,0,l),
(621,54,l),
(587,54,ls),
(544,54,o),
(525,69,o),
(525,99,cs),
(525,193,o),
(699,326,o),
(699,495,cs),
(699,618,o),
(597,702,o),
(436,702,cs),
(235,702,o),
(109,577,o),
(109,391,cs),
(109,299,o),
(147,216,o),
(147,151,cs),
(147,91,o),
(113,54,o),
(51,54,cs),
(21,54,l),
(10,0,l)
);
}
);
width = 720;
}
);
metricLeft = "zuCarrier-canadian";
metricRight = "zuCarrier-canadian";
note = uni1641;
unicode = 5697;
},
